<?xml version="1.0" encoding="UTF-8"?>
<svg id="_Слой_1" data-name="Слой 1" xmlns="http://www.w3.org/2000/svg" viewBox="0 0 1401.08 1238.17">
  <defs>
    <style>
      .cls-1 {
        fill: #000;
      }

      .cls-1, .cls-2 {
        stroke-width: 0px;
      }

      .cls-2, .cls-3 {
        fill: #fff;
      }

      .cls-3 {
        stroke: #1d1d1b;
        stroke-miterlimit: 10;
        stroke-width: 5px;
      }
    </style>
  </defs>
  <g>
    <path class="cls-3" d="M683.63,703.67c4.7-9.02,8.1-19.09,14.33-26.89,25.66-32.09,58.05-50.11,100.72-46.29,6.2.56,13.12-3.42,19.19-6.37,3.68-1.79,6.29-5.73,9.5-8.57,25.97-22.99,26.05-26.58-6.24-41.11-15.78-7.1-33.6-9.68-49.89-14.14,9.89-16.88,55.8-33.53,82.92-27.45,16.5,3.7,32.39,10.74,48.01,17.55,10.8,4.71,50.98.33,57.58-8.99,2.23-3.15,1.23-10.19-.67-14.37-10.36-22.87-26.35-40.63-50.37-50.45.26-1.63.51-3.26.77-4.9,17.34.49,35.06-1.14,51.92,1.94,29.5,5.38,53.29,21.49,67.58,48.42,6.59,12.43,14.96,19.02,28.73,19.81,4.71.27,9.35,1.96,13.98,3.15,19.59,5.02,23.48,1.97,22.52-18.98-1.03-22.54-5.76-44.05-22.03-62.74,36.4,5.47,76.14,42.97,82.95,76.66.38,1.87,1.28,3.76,1.17,5.6-1.59,27.08,11.6,44.89,33.28,59.92,11.15,7.73,15.53,5.21,20.75-4.14,12.26-21.97,17.5-45.3,12.36-74.29,6.33,6.62,11.19,10.48,14.53,15.39,22.07,32.41,37.69,66.98,19.37,105.88-10.1,21.45-5.8,39.38,4.02,58.18,2.4,4.6,4.69,9.26,7.67,15.15,28.28-12.79,46.66-33.16,58.28-65.32,3.06,9.19,5.16,13.79,6.1,18.61,8.48,43.66-4.19,80.2-37.49,109.57-12.55,11.07-23.08,45.17-16.88,59.78,1.37,3.23,9.17,5.86,13.57,5.31,24.12-2.99,45.43-13.1,65.72-29.18.03,3.89.64,6.96-.02,9.72-11.54,48.55-41.87,78.16-96.96,88.1-3.43.62-8.02,1.88-9.62,4.4-7.7,12.07-15.13,24.41-21.2,37.34-1.16,2.46,3.29,10.23,6.81,11.78,23.85,10.51,48.54,13.84,75.56,6.42-4.92,5.88-9.02,12.79-14.9,17.47-31.88,25.41-66.42,42.73-108.21,26.72-12.78-4.9-22.84-3.32-33.35,3.85-9.04,6.17-18.27,12.05-29.21,19.24,13.97,27.74,38.79,40.2,66.19,49.41-12.93,11.47-44.24,18.11-67.12,13.64-24.45-4.78-46.06-14.78-63.49-33.6-4.5-4.86-12.98-7.39-19.97-8.26-8.86-1.09-18.06.8-27.12,1.06-14.84.43-16.73,3.11-13.23,18.14,5.47,23.44,17.75,42.8,38.93,61.36-40.23-3.35-72.38-13.59-92.93-45.71-7.36-11.5-11.21-25.19-17.34-37.55-2.41-4.86-6.03-9.63-10.26-12.96-4.8-3.77-10.86-5.97-16.44-8.71-27.78-13.62-32.67-11.69-34.59,19.83-1.1,18.01,3.08,36.35,5.36,59.37-14.45-14.19-28.9-25.12-39.12-39.13-18.49-25.34-24.58-54.45-18.08-85.79,2.64-12.7-15.47-45.3-27.86-48.79-4.05-1.14-10.85,2.3-14.47,5.7-14.57,13.71-25.18,38.82-28.49,64.29-29.64-36.24-30.2-91.5-.99-128.96,10.97-14.07,13.84-46.87,3.35-60.91-2.51-3.36-12.26-4.21-17.22-2.34-22.65,8.57-41.49,22.67-54.8,44.9-8.54-43.44,11.59-92.08,49.22-107.16,32.97-13.22,36.27-40.88,45.26-69-30.75-10.18-58.49-3.64-85.23,12.04-.8-.89-1.61-1.79-2.41-2.68ZM914.24,855.76c28.23,55.84,101.89,80.46,157.36,50.39,55.65-30.17,80.85-95.66,50.49-157.59-29.33-59.84-103.36-79.86-156.56-51.62-58.64,31.12-81.47,99.13-51.29,158.82Z"/>
    <path class="cls-3" d="M705.95,1010.01c20.94,24.4,40.27,47.06,59.82,69.52,2.38,2.73,5.97,4.41,12.14,8.81-.23-12.85-.41-22.83-.6-32.87,20.19,10.39,21.5,14.78,5.72,30.32-14.9,14.68-31.05,28.12-46.95,41.75-10.71,9.18-22.47,4.05-32.42-.73-18.07-8.68-34.01-7.72-50.53,6.94,5.43,10.74,11.33,22.42,18.66,36.91-29.91,10.46-57.53,20.5-85.49,29.47-3.87,1.24-10.19-1.76-14.06-4.59-8.06-5.9-15.41-12.82-22.73-19.67-10.26-9.6-22.33-7.12-33.88-4.6-2.28.5-4.44,7.51-4.43,11.51.06,29.63.24,29.67-29.53,29.69-6.21,0-12.47-1-18.61-.42-31.99,3.04-54.24-8.24-63.15-40.96-3.97-14.6-18.25-13.59-29.18-16.87-1.55-.47-6.05,4.96-7.4,8.36-11.86,29.83-11.85,30.13-41.32,16.52-15.62-7.22-30.61-15.81-46.18-23.15-9.07-4.28-12.58-10.74-12.15-20.46.34-7.62-1.07-15.35-.34-22.9,1.59-16.47-11.23-22.04-21.67-28.91-1.81-1.19-8.36,2.46-11.09,5.4-20.61,22.22-16.94,25.23-40.33.32-13.36-14.23-26.07-29.13-38.2-44.42-2.78-3.5-3.6-10.21-2.5-14.76,2.34-9.71,5.99-19.22,10.11-28.35,5.41-11.99.24-21.65-6.32-30.51-1.8-2.44-8.57-3.32-11.97-2.04-8.89,3.35-17.17,8.3-29.52,14.53-10.15-29.77-21.29-57.96-28.56-87.12-1.73-6.94,8.54-17.86,14.93-25.59,8-9.69,16.54-18.14,15.16-32.41-1.11-11.56-6.16-15.63-17.63-15.09-26.21,1.24-26.67.86-25.84-25.31.63-20.06,1.89-40.15,4.35-60.05.64-5.13,6.17-10.47,10.74-14.07,4.35-3.43,10.22-5.27,15.7-6.87,18.89-5.51,25.55-19.69,28.06-38.59-12.05-4.39-23.98-8.74-39.51-14.4,13.7-27.68,26.39-54.26,40.21-80.22,2.05-3.85,9.25-6.07,14.42-6.92,11.28-1.85,23.31-.64,34-3.98,7.22-2.26,14.88-9.12,18.09-15.93,1.88-3.99-3.68-12.56-7.53-17.89-4.05-5.62-10.03-9.84-17.67-17.02,24.21-21.08,47.26-41.4,70.76-61.18,2.02-1.7,7.27-.66,10.57.45,10.88,3.68,21.42,8.4,32.37,11.83,4.08,1.28,9.52,1.46,13.33-.19,19.45-8.39,20.42-11.78,10.85-30.74-2.56-5.07-5.12-10.14-9.51-18.82,29.65-9.95,57.51-20.8,86.29-27.85,6.99-1.71,18.06,7.91,25.43,14.4,9.82,8.64,17.93,17.86,33.22,15.7,10.95-1.55,14.69-6.13,14.47-16.71-.57-27.3-.3-27.57,27.64-26.59,18.15.64,36.25,2.52,54.4,3.2,9.47.36,14.71,4.85,18.19,13.21,4.05,9.72,8.35,19.41,13.6,28.5,2.28,3.95,6.76,7.98,11.03,9.2,19.35,5.52,21.38,4.3,27.62-15.22,1.86-5.81,1.95-12.19,3.32-21.44,31.33,15.3,58.05,27.98,84.29,41.58,3.59,1.86,6.33,8.16,6.79,12.67,1.06,10.42-.03,21.05.79,31.51.37,4.69,1.97,10.47,5.15,13.55,16.79,16.23,19.68,15.81,34.75-2.03,3.31-3.92,6.69-7.79,11.44-13.31,10.72,10.37,20.38,19.71,29.23,28.27-27.12,24.56-52.67,47.71-79.9,72.37-84.68-78.14-184.14-112.16-300.4-83.45-70,17.29-125.86,56.89-168.21,114.42-88.8,120.64-77.91,285.43,25.71,393.42,60.41,62.96,135.59,93.88,222.39,94.01,86.78.12,160.3-33.64,219.57-93.14Z"/>
    <path class="cls-3" d="M691.99,635.53c-15.98,31.28-30.4,59.49-44.69,87.46-27.84-58.82-75.81-94.65-142.29-102.79-48.23-5.91-92.99,5.56-131.42,36.8-76.48,62.17-96.66,181-16.23,265.45,43.13,45.28,97.86,60.54,158.71,50.52,60.45-9.95,103.55-45.25,132.87-102.4,6.43,27.07,11.97,50.4,17.51,73.72,1.2.39,2.4.78,3.59,1.17,2.76-4.26,6.11-8.26,8.19-12.84,7.71-16.97,14.46-34.39,22.7-51.08,3.24-6.57,8.94-12.24,14.49-17.24,3.3-2.97,8.5-3.84,12.84-5.66-1.14,5.04-1.51,10.41-3.55,15.05-7.45,16.96-15.46,33.67-23.25,50.48-.2.43-.31.92-.35,1.39-4.39,47.99-40.7,71.52-75.54,94.07-55.36,35.83-116.99,49.56-182.35,37.46-85.17-15.77-148.98-60.46-191.26-138.33-60.3-111.06-29.33-249.11,63.62-323.24,126.27-100.71,287.66-72.69,376.56,40.43.56.71.76,1.71-.15-.43Z"/>
    <path class="cls-3" d="M665.26,788.13c-7.23-30.63-2.54-39.64,31.37-58.81,11.4-6.45,22.61-16.16,41.7-11.43-5.44,5.8-8.25,11.05-12.57,13.04-25.95,11.98-46.35,29.73-60.5,57.2Z"/>
    <path class="cls-3" d="M808.66,599.32c-6.65,2.41-10.61,4.59-14.8,5.24-17.32,2.67-34.76,4.57-52.06,7.36-12.16,1.97-12.09,2.41-19.72-9.76,18.14-13.58,68.2-16.78,86.57-2.84Z"/>
    <path class="cls-3" d="M771.11,1029.6c2.78-13.09,5.3-26.25,8.6-39.21.58-2.28,4.47-3.71,6.82-5.53,1.68,2.46,4.83,4.95,4.79,7.38-.22,14.75-2.19,29.06-15.36,38.54-1.62-.39-3.24-.79-4.86-1.18Z"/>
  </g>
  <g>
    <path class="cls-1" d="M1041.22,776.06c-8.29,16.04-12,34.05-10.7,52.06,1.32,18.26,2.6,39.77,5.74,47.24,8.78,20.96,6.41,40.25-6.93,57.4-11.82,15.2-26.01,28.54-38.95,42.9-2.49,2.76-5.13,6.2-5.77,9.69-2.87,15.48-11.33,26.81-23.88,35.8-26.58,19.03-53.42,37.73-79.3,57.68-20.09,15.49-42.1,15.14-64.95,11.24-33.87-5.77-67.63-3.98-101.23,1.37-25.29,4.03-46.33-3.77-66.1-23.77-15.5-15.68-33.88-28.13-53.41-38.38-19.8-10.4-33.61-23.82-37.35-44.73-.64-3.6-4.14-7.41-7.35-9.71-21.76-15.58-37.5-36.18-46.07-61.01-3.42-9.91-1.04-22.49.98-33.44,1.91-10.36,5.51-36.85,8.85-56.41,2.21-12.94.91-26.23-3.85-38.47l-23.18-59.63-42.75-79.74c-7.76-16.08-9.6-35.86-3.39-52.59,7.8-21.04-3.01-48.67-4.52-68.32-2.93-38.15-21.42-103.13-22.69-116.23-5.18-53.54-5.37-106.76,14.44-158.07,28.29-73.27,80.19-124.66,149.73-158.66,54.72-26.75,112.14-45.13,173.42-49.61,50.23-3.67,98.16,6.93,145.48,22.3,54.81,17.8,105.84,42.56,147.87,82.71,66.43,63.46,92.6,142.36,85.5,232.89-2.33,29.77-6.82,59.37-10.27,89.05-.44,3.81-.59,7.66-1.06,13.94l-13.07,62.8c-2.88,13.82-3.75,27.99-2.58,42.06l.82,9.86c1.11,13.4-.72,26.88-5.36,39.5l-58.11,138.27ZM1154.08,489.02,867.8,1066.55c4.52-3.16,9.18-6.13,13.53-9.51,17.93-13.93,34.81-29.49,53.88-41.61,23.78-15.12,38-35.64,44.62-62.33,1.25-5.03,2.5-10.07,4.07-15,.66-2.09,1.77-4.29,3.3-5.81,5.27-5.26,12.62-9.31,15.85-15.55,5.1-9.85,7.5-21.1,10.68-30.65,8.82,26.61-5.01,47.45-22,67.63,6.61-5.85,12.09-12.31,17.32-18.97,11.68-14.9,15.78-30.3,10.81-50.04-6.06-24.09-7.62-49.32-10.84-74.1-1.62-12.5,2.99-23.27,9.83-33.59,7.02-10.59,13.4-21.64,19.49-32.8,4.66-8.54,1.95-16.28-6.61-19.92-8.55-3.63-18-5.13-27.06-7.56-.38,1.18-.76,2.36-1.14,3.54,3.72,5.65,7.44,11.3,12.8,19.43-6.62-2.51-10.08-3.82-14.94-5.66,2.25,4.47,3.79,7.55,5.56,11.08-17.95-4.07-23.97.3-25.11,16.61,2.49-2.32,5.48-5.09,9.69-9.01,2.37,53.59-6.44,117.47-38.93,143.98-.6-1.83-1.17-3.6-1.95-5.97-4.37,8.33-8.21,15.66-12.25,23.35-8.33-7.12-7.36-12.06-1.45-20.43,10.66-15.11,20.48-31.42,27.17-48.59,13.57-34.85,6.68-69.78-4.01-104.24-1.82-5.85-1.85-12.26-2.59-17.6-7.9,7-10.87,14.12-4.66,22.31,14,18.45,13.86,39.67,13.32,60.61-.72,28.22-5.7,55.39-26.62,77.24-6.12,6.4-9.47,15.44-13.79,22.77-1.06-1.69-3.61-5.74-7.6-12.08-4.92,12.41-8.97,22.61-12.98,32.72-2.09-4.6-4.4-9.68-7.29-16.05-4.01,12.93-7.38,23.81-10.56,34.07-3.16-8.38-6.32-16.74-9.87-26.14-6.57,8.57-11.45,14.95-16.34,21.32.72.2,1.44.4,2.16.59-1.62,3.68-3.24,7.36-5.23,11.86-4.46-8.83-8.29-16.42-12.2-24.16-6.38,8.22-11.97,15.43-17.27,22.26-.09-.04,1.57.63,2.66,1.06-3.72,4.23-6.99,7.95-10.03,11.4-3.58-8.33-7.24-16.85-9.98-23.21-9.08,4.6-17.7,12.67-23.84,11.1-6.82-1.75-11.39-12.3-16.7-18.71-12.42,26.25-16.22,27-37.36,4.9-4.03,9.14-7.77,17.61-11.42,25.89-3.34-3.86-6.57-7.6-10.08-11.65,2.15-.55,3.99-1.03,3.48-.89-5.53-6.55-11.7-13.86-18.27-21.65-4.03,8.11-7.86,15.81-11.32,22.78-5.76-10.41-11.62-21-19.31-34.9-4.32,11.43-7.46,19.74-10.8,28.6-3.04-11.35-5.96-22.28-9.57-35.76-3.42,7.21-5.7,12.01-7.95,16.74-4.24-10.33-8.33-20.3-13.19-32.16-4.05,6.41-6.58,10.42-7.37,11.68-4.83-7.88-8.96-16.59-14.84-23.88-28.97-35.94-34.83-95.2-12.75-134.59,5.97-10.66,3.14-20.21-4.95-24.87-.51,5.59.12,12.6-1.9,18.75-18.54,56.42-15.71,109.05,25.17,155.97,2.73,3.13,1.1,10.06,1.49,15.23-1.66.3-3.33.61-4.99.91-4.15-7.52-8.3-15.03-12.57-22.77-.79,2.07-1.44,3.75-2.12,5.52-26.85-24.33-49.08-108.31-37.04-142.69,3.04,2.71,5.63,5.03,8.22,7.34-1.16-5.87-3.04-12.44-7.31-14.96-4.44-2.62-11.19-1.33-17.11-1.76,1.3-2.52,2.87-5.55,4.87-9.41-4.87,1.39-8.68,2.47-14.11,4.01,4.76-7.33,8.37-12.87,13.27-20.4-6.9.33-11.59.1-16.11.84-20.63,3.36-26.31,14.84-16.36,32.85,2.12,3.83,4.81,7.33,7.1,11.07,9.72,15.86,22.31,30.71,19.16,51.33-3.84,25.11-7.12,50.33-11.96,75.24-4.18,21.52,8.63,51.58,28.54,62.85-24.21-34.42-28.41-47.86-20.05-68.11.5,18.57,5.09,34.96,19,44.79,8.24,5.83,10.01,12.66,12.43,20.58,6.54,21.42,13.12,42.34,32.88,56.67,26.11,18.93,51.53,38.89,76.38,59.44,14.3,11.82,29.12,14.17,46.77,10.68,19.05-3.76,38.5-7.37,57.8-7.48,16.46-.1,32.95,4.83,49.42,7.56,15.61,2.59,31.06,4.55,42.4-10.34l-.42.44ZM1083.8,536.01c17.14-50.07,22.52-101.8,28.06-156.48-5.64,5.54-9.18,9.01-12.72,12.48.94-4.96,3.92-8.83,5.92-13.15,3.41-7.38,8.35-14.89,8.93-22.62,5.17-68.44-18.79-126.65-64.3-176.76-13.32-14.67-13.63-14.36-32.09-6.55-.79.33-2.01-.35-4.11-.79,5.47-4.61,10.19-8.59,14.95-12.6-130.33-128.99-393.37-122.5-513.63.33,4.68,3.82,9.33,7.62,13.98,11.41-3.46,1.24-5.86.83-7.53-.5-9.81-7.79-16.58-3.73-24,4.4-39.03,42.78-65.56,91.2-68.34,150.27-.98,20.86-4.47,42.67,13.73,59.47,1.85,1.71,1.39,5.91,2.15,9.68-3.85-4.8-6.84-8.53-11.33-14.14-.58,4.18-1.12,5.65-.92,7.01,6.72,45.72,13.39,91.45,20.47,137.11.65,4.18,3.99,7.94,7.34,14.26,14.81-25.43,9.92-50.23,9.41-74.67,14.34,24.84,23.5,51.03,13.18,79.19-5.66,15.44-15.39,29.47-23.96,43.73-15.83,26.34-12.05,54.46,12.1,77.09,4-16.17-12.33-27.05-9.38-42.08,6.54,10.04,12.74,19.55,17.98,27.6-1.37,7.79-6.19,17.53-3.23,21.61,9.47,13.03,20.72,26.04,39.31,25.8,11.13-.14,22.24-1.78,33.38-2.13,17.85-.55,35.86-2.12,53.55-.49,26.5,2.44,44.75,31.91,35.5,59.99-.04-14.42-1.74-24.95-16.31-29.13,1.94,11.39,3.52,20.67,5.1,29.95-3.92-2.74-4.94-6.06-6.17-9.31-1.26-3.29-2.73-6.51-4.1-9.76,7.95,19.55,2.05,36.01-9.25,51.92-4.64,6.53-9.4,13.69-5.02,22.61,4.32-5.68,8.23-10.83,12.15-15.97.46.32.92.63,1.38.95-1.86,8.15-3.72,16.29-5.57,24.44,1.72.54,3.44,1.08,5.16,1.63,5.25-11.65,10.51-23.31,17.07-37.86v44.9c4.97-1.88,7.36-2.78,11.15-4.21-3.55-1.85-5.63-2.93-8.4-4.38,4.3-3.51,7.73-6.31,11.1-9.06,1.88,7.75,3.56,14.69,5.24,21.63.71-.04,1.43-.08,2.14-.12.86-6.04,1.72-12.08,2.94-20.58,6.35,10.67,10.94,18.37,16.15,27.12,2.79-3.63,4.56-5.94,6.48-8.44-2.96-1.38-4.97-2.32-6.31-2.95,2.7-5.28,5.17-10.11,7.14-13.98,4.97,10.12,10.23,20.83,15.03,30.61,7.57-7.93,13.86-14.51,19.71-20.64-1.41-.51-4.37-1.59-8.08-2.93,5.81-3.73,10.44-6.69,14.31-9.17,2.75,9.63,5.6,19.59,8.87,31.03q20.43-20.51,41.58,9.51c19.68-29.53,20.43-29.76,41.62-9.76,3.13-11.29,5.91-21.28,8.52-30.68,4.12,2.49,9.03,5.46,15.13,9.15-4.29,1.63-7.28,2.76-9.4,3.57,3.83,2.74,8.19,4.87,11.13,8.24,2.96,3.4,4.5,8.04,8.13,14.89,6.11-13.09,11.23-24.08,15.84-33.96,2.27,4.2,4.92,9.1,7.58,14.02-2.01.98-4.02,1.96-8.03,3.92,3.01,2.72,5.16,4.65,8.32,7.5,5.2-8.96,9.6-16.53,13.98-24.07,3.04,3.45,5.8,6.58,9.32,10.58,1.15-6.01,2.02-10.58,2.33-12.2,3.14,1.94,7.22,4.46,11.31,6.99-2.72,1.74-4.67,3-7.67,4.92,4.06,1.07,6.6,1.74,11.4,3v-43.08c6.08,13.1,11.46,24.67,16.83,36.24l4.84-1.75c-1.85-7.91-3.7-15.82-6.38-27.31,6.23,7.67,10.33,12.72,14.44,17.77l2.87-1.4c-2.31-6.44-3.56-13.54-7.14-19.17-9.08-14.3-17.63-28.35-12.67-46.57-1.83,4.4-3.66,8.8-5.49,13.2l-2.22-.69c1.51-9.58,3.02-19.15,4.65-29.46-14.47,2.36-14.65,13.74-17.09,24.92-7.33-25.66,10.94-54.1,36.37-56.54,17.29-1.66,34.9-.28,52.35.21,12.73.36,25.49,2.57,38.14,1.97,16.63-.78,27.47-12.9,35.91-25.15,3.06-4.44-1.87-14.39-3.16-21.91,5.5-8.38,11.61-17.7,18.15-27.68,2.35,15.05-12.76,26.05-7.63,41.08,6.76-9.16,12.05-18.8,16.66-28.75,6.86-14.83,6.75-29.13-3.73-42.76-5.57-7.24-10.03-15.32-15.19-22.89-18.4-27.03-18.97-55.88-8.45-85.66,2.38-6.72,6.24-12.92,9.41-19.36-.44,25.22-3.91,49.61,11.13,72.3ZM392.39,488.69,810.44,867.03c-1.28-5.08-3.18-15.25-6.57-24.89-1.36-3.87-5.97-9.12-9.12-9.13-3.28-.02-8.58,5-9.55,8.72-3.87,14.9-6.57,30.13-9.21,45.32-.33,1.89,1.84,5.49,3.71,6.27,13.83,5.78,30.95-6.15,30.74-26.28ZM768.04,882.83c-2.76-12.77-4.76-25.78-8.67-38.19-1.51-4.81-7.34-8.26-11.21-12.33-3.36,4.08-7.88,7.69-9.79,12.36-2.65,6.5-3.67,13.75-4.81,20.77-3.15,19.5,3.47,26.96,23.27,28.31,8.76.6,11.96-2.23,11.21-10.91ZM711.44,834.81c-10.11,9.82-15,34.17-7.77,45.11,2.55,3.86,8.65,5.87,13.54,7.42,1.72.54,5.94-2.3,6.87-4.51,5.31-12.65-1.82-38.59-12.64-48.03ZM830.58,834.06c-9.77,12.57-14.04,26.6-12.14,42.19.48,3.97,3.83,10.76,5.84,10.75,4.93-.03,11.49-1.89,14.44-5.46,8.2-9.93,3.13-37.84-8.13-47.49ZM776.18,907.85c2.37,10.4,4.11,20.44,7.27,30.03.69,2.11,7.62,4.64,9.58,3.46,11.41-6.82,17.93-26.56,14.09-40.18-9.22,1.99-18.46,3.99-30.94,6.69ZM736.14,901.17c-3.67,13.82,2.85,33.49,14.07,40.1,2,1.18,8.92-1.27,9.55-3.3,3.07-9.84,4.77-20.1,6.92-30.09-12.19-2.68-21.38-4.7-30.54-6.71ZM701.91,893.68c-2.48,18.42,4.1,30.88,12.92,42.27,1.04,1.34,8.18.42,9.85-1.62,9.45-11.52-4.34-21.09-4.18-32.31.04-2.4-10.74-4.97-18.59-8.34ZM820.77,940.77c16.04-10.38,23.67-30.04,19.49-43.93-22.34-4.78-18.97,14.87-23.56,25.88-1.84,4.41,2.38,11.35,4.06,18.04ZM680.38,840.48c-8.62,9.53-12.52,30.97-5.95,37.96,3.99,4.24,11.35,5.3,18.36,8.28,1.43-19.39-1.42-33.77-12.41-46.24ZM862.76,840.07c-10.32,13.66-14.91,27.64-11.68,46.98,6.93-3.36,14.5-4.8,18.26-9.37,6.21-7.55,2.17-27.49-6.57-37.61ZM870.64,891.91c-6.65,1.13-12.32,2.09-19.69,3.34,5.61,11.14-9.09,23.71,5.21,34.71,10.83-10.94,15.12-23.25,14.48-38.05ZM672.44,891.78c-.65,15.01,4,27.36,14.75,38.48,14.28-12.02-.87-24.25,4.24-35.19-7.19-1.25-12.54-2.17-18.98-3.29ZM662.15,838.32l-4.52-.16c-6.61,8.78-8.94,18.79-4.56,29.3,1.64,3.95,6.58,6.53,10.01,9.73,1.33-.85,2.66-1.7,3.99-2.55-1.64-12.11-3.28-24.21-4.91-36.32ZM876.52,875.15c2.11.83,4.22,1.66,6.33,2.49,3.02-5.18,7.64-10.07,8.68-15.62,1.62-8.71.98-17.94-10.4-25.81-1.7,14.39-3.16,26.66-4.61,38.94ZM879.74,887.3c.59,9.41,1.18,18.75,1.77,28.09,1.77.22,3.54.43,5.32.65,2.99-11.68,5.99-23.36,9.69-37.8-7.96,4.3-12.37,6.68-16.78,9.06ZM656.54,916.24c1.82-.25,3.63-.5,5.45-.76.5-9.42,1-18.84,1.51-28.33-4.74-2.48-9.47-4.94-17.19-8.97,3.87,14.4,7.05,26.23,10.23,38.06ZM647.62,865.41c-1.46-10.96-2.93-21.93-4.77-35.71-13.21,14.19-11.31,30.01,4.77,35.71ZM902.22,903.53c11.02-5.56,15.3-18.93,12.06-32.73-19.54,5.38-8.31,21.69-12.06,32.73ZM628.63,871.06c-2.84,13.79,2.1,28.07,11.46,33.13,4.35-16.01.35-27.57-11.46-33.13ZM899.62,832.9c-1.09,11.03-2.19,22.06-3.48,35.05,15.19-7.61,17.22-24.26,3.48-35.05ZM624.12,850.42c4.68-9.93,8.02-19.48-3.1-27.86-9.32,14.66-8.45,22.84,3.1,27.86ZM922.12,822.13c-10.73,9.67-8.05,19.09-2.56,29.05,11.13-6.89,11.71-13.15,2.56-29.05ZM933.91,860.93l-4.17-1.42c-11.33,5.45-1.7,15.69-6.22,22.69,1.61.39,3.22.78,4.83,1.17,1.85-7.48,3.7-14.96,5.56-22.45ZM614.16,882.64c1.21-.23,2.42-.46,3.63-.7q1.74-18.18-8.59-23.68c1.94,9.53,3.45,16.96,4.97,24.38Z"/>
    <path class="cls-2" d="M1083.8,536.01c-15.04-22.69-11.56-47.08-11.13-72.3-3.18,6.44-7.04,12.64-9.41,19.36-10.52,29.78-9.95,58.62,8.45,85.66,5.15,7.57,9.62,15.65,15.19,22.89,10.48,13.63,10.59,27.93,3.73,42.76-4.6,9.95-9.9,19.59-16.66,28.75-5.13-15.03,9.98-26.03,7.63-41.08-6.55,9.98-12.66,19.3-18.15,27.68,1.3,7.52,6.23,17.47,3.16,21.91-8.45,12.25-19.29,24.37-35.91,25.15-12.65.6-25.41-1.62-38.14-1.97-17.45-.49-35.06-1.87-52.35-.21-25.43,2.44-43.7,30.88-36.37,56.54,2.44-11.18,2.62-22.56,17.09-24.92-1.63,10.3-3.14,19.88-4.65,29.46l2.22.69c1.83-4.4,3.66-8.8,5.49-13.2-4.97,18.21,3.59,32.27,12.67,46.57,3.58,5.63,4.83,12.74,7.14,19.17l-2.87,1.4c-4.1-5.05-8.21-10.1-14.44-17.77,2.69,11.49,4.53,19.4,6.38,27.31l-4.84,1.75c-5.37-11.57-10.75-23.14-16.83-36.24v43.08c-4.8-1.26-7.34-1.93-11.4-3,3-1.92,4.95-3.18,7.67-4.92-4.1-2.53-8.17-5.05-11.31-6.99-.31,1.61-1.18,6.19-2.33,12.2-3.52-4-6.28-7.13-9.32-10.58-4.38,7.53-8.78,15.11-13.98,24.07-3.17-2.85-5.31-4.79-8.32-7.5,4.02-1.96,6.02-2.94,8.02-3.93-2.66-4.91-5.3-9.81-7.58-14.01-4.61,9.88-9.73,20.86-15.84,33.96-3.62-6.86-5.16-11.49-8.13-14.89-2.93-3.37-7.3-5.5-11.13-8.24,2.12-.81,5.12-1.94,9.4-3.57-6.1-3.69-11-6.66-15.13-9.15-2.61,9.39-5.38,19.39-8.52,30.68-21.18-20-21.94-19.77-41.62,9.76q-21.15-30.02-41.58-9.51c-3.27-11.44-6.12-21.4-8.87-31.03-3.87,2.48-8.5,5.45-14.31,9.17,3.7,1.34,6.66,2.42,8.08,2.93-5.86,6.13-12.14,12.71-19.71,20.64-4.8-9.78-10.06-20.49-15.03-30.61-1.98,3.87-4.45,8.7-7.14,13.98,1.34.63,3.35,1.57,6.31,2.95-1.92,2.5-3.69,4.81-6.48,8.44-5.21-8.75-9.79-16.45-16.15-27.12-1.21,8.5-2.08,14.54-2.94,20.58-.71.04-1.43.08-2.14.12-1.68-6.94-3.36-13.88-5.24-21.63-3.37,2.75-6.81,5.55-11.1,9.06,2.78,1.45,4.85,2.53,8.4,4.38-3.79,1.43-6.18,2.33-11.15,4.21v-44.9c-6.56,14.56-11.82,26.21-17.07,37.86-1.72-.54-3.44-1.08-5.16-1.63,1.86-8.15,3.72-16.29,5.57-24.44-.46-.32-.92-.63-1.38-.95-3.91,5.15-7.83,10.29-12.15,15.97-4.37-8.92.39-16.08,5.02-22.61,11.3-15.91,17.21-32.37,9.25-51.92,1.38,3.25,2.85,6.46,4.1,9.76,1.24,3.24,2.25,6.56,6.17,9.31-1.58-9.28-3.16-18.56-5.1-29.95,14.56,4.18,16.27,14.71,16.31,29.13,9.25-28.08-9-57.55-35.5-59.99-17.69-1.63-35.7-.07-53.55.49-11.14.34-22.25,1.99-33.38,2.13-18.59.23-29.83-12.77-39.31-25.8-2.96-4.08,1.86-13.82,3.23-21.61-5.25-8.05-11.44-17.56-17.98-27.6-2.96,15.03,13.38,25.91,9.38,42.08-24.15-22.64-27.93-50.76-12.1-77.09,8.57-14.26,18.3-28.29,23.96-43.73,10.32-28.15,1.16-54.34-13.18-79.19.51,24.44,5.4,49.24-9.41,74.67-3.34-6.32-6.69-10.08-7.34-14.26-7.08-45.66-13.76-91.39-20.47-137.11-.2-1.36.34-2.83.92-7.01,4.49,5.6,7.48,9.33,11.33,14.14-.76-3.77-.3-7.98-2.15-9.68-18.2-16.8-14.71-38.61-13.73-59.47,2.78-59.06,29.31-107.48,68.34-150.27,7.42-8.13,14.19-12.19,24-4.4,1.67,1.33,4.07,1.74,7.53.5-4.65-3.8-9.3-7.6-13.98-11.41,120.26-122.83,383.3-129.31,513.63-.33-4.76,4.01-9.48,7.99-14.95,12.6,2.1.43,3.32,1.12,4.11.79,18.46-7.81,18.77-8.12,32.09,6.55,45.51,50.1,69.47,108.32,64.3,176.76-.58,7.73-5.52,15.24-8.93,22.62-2,4.32-4.98,8.19-5.92,13.15,3.54-3.47,7.08-6.94,12.72-12.48-5.53,54.67-10.92,106.41-28.06,156.48ZM621.58,417.96c-5.77-4.03-11.38-11.26-17.23-11.46-28.15-.98-54.15,7.38-77.91,22.55-12.02,7.67-19.92,18.38-22.39,32.47-6.79,38.76-5.65,77.75-2.4,116.72.85,10.24,4.21,18.83,17.73,15.72,2.32-.53,5.08.89,7.64,1.41-3.11,1.65-6.12,1.25-8.97,1.77-2.87.52-5.57,1.95-8.82,3.15,23.49,25.06,51.58,33.5,84.16,28.5-13.8-2.75-29.2-.22-41.56-12.18,47.88-2.28,95.04-3.03,127.83-45.16l1.99,2.3c-6.9,9.07-13.8,18.15-20.7,27.22.58.64,1.15,1.29,1.73,1.93,11.56-10.27,23.12-20.54,35.26-31.31-.88,5.41-1.65,10.13-2.41,14.85,20.32-22.6,33.48-48.14,38.93-77.66-.72,10.18-1.43,20.36-2.15,30.55,13.93-34.57,15.61-68.65-6.37-101.09,7.06-2.12,11.5-3.45,17.17-5.15-21.59-8.45-41.21-18.56-62.06-23.6-20.63-4.99-42.5-4.86-64.25-7.01,1.47,4.77,3.24,10.49,4.78,15.49ZM814.82,437.35c-5.11,16.94-13.11,33.37-14.3,50.29-1.18,16.81,4.5,34.1,7.17,51.18,1.05-.14,2.09-.27,3.14-.41-.68-9.92-1.35-19.84-2.03-29.75,5.43,30.81,19.73,56.92,40.16,80.31-1.35-6.02-2.71-12.03-4.07-18.08,12.06,10.85,23.81,21.42,35.57,32,.63-.7,1.25-1.4,1.88-2.11-6.51-8.42-13.02-16.84-19.54-25.26.76-.73,1.53-1.47,2.29-2.2,32.72,40.37,79.17,41.03,125.08,43.27l.52,4.17c-13.79,2.91-27.58,5.82-40.1,8.46,31.19,5.76,61.89-4.97,82.81-30.22-6.04-.84-11.5-1.61-16.97-2.37,2.25-2.12,4.64-3.19,6.66-2.71,13.9,3.3,17.12-5.45,18.76-16.18.42-2.75,1.29-5.51,1.24-8.25-.62-33.07-.97-66.16-2.28-99.2-.61-15.32-7.06-28.87-19.69-38.07-18.64-13.58-39.72-21.66-62.63-24.89-14.77-2.08-29.47-4.38-36.84,13.56-.03.07-1.25-.34-1.68-.47,2.98-7.7,5.97-15.4,8.1-20.9-6.66,1.95-12.81,5.43-18.86,5.25-28.02-.84-54.74,3.72-80.04,16.04-9.02,4.4-18.19,8.5-27.68,12.91,4.14,1.12,8.6,2.34,13.32,3.62ZM803.33,707.68c.57-.37,1.14-.75,1.71-1.12-4.12-1.64-8.24-3.27-12.35-4.91,6.6,11.92,17.87,12.2,29.08,12.72-17.32,5.23-30.98-2.2-44.1-12.7,2.95,5.2,6.14,9.78,10.31,13.15,10.68,8.62,34.36,9.64,45.27,1.68,11.78-8.6,10.39-21.03,6.58-32.65-13.89-42.29-28.23-84.43-42.82-126.48-4.14-11.94-15.29-13.21-25.78-13.17-10.54.04-20.98,1.88-25.41,13.8-4.29,11.56-8.8,23.05-12.61,34.76-10.56,32.48-21.6,64.85-30.57,97.77-1.98,7.28,1.1,19.5,6.47,24.54,16.11,15.14,45.92,7.04,56.04-13.45-27.15,16.63-31.33,17.75-46.03,10.66,13.93,2.89,24.03.42,31.14-10.31-3.55,1.21-7.1,2.41-8.09,2.75,9.31-9.48,19.99-20.36,28.73-29.26,10.59,10.52,21.52,21.37,32.45,32.22ZM1024.07,659.84c-.86-.65-1.72-1.29-2.57-1.94-2.11,4.13-4.22,8.26-6.33,12.38-.86-.77-1.73-1.55-2.59-2.32-.29-1.73-.59-3.46-.34-2.03-16.72,0-32.71,1.09-48.5-.25-25.02-2.13-38.82,15.41-55.52,28.55,32.36-12.89,65.28-12.48,98.4-5.59,21.49,4.47,37.87-3.34,52.29-18.53,6.4-6.74,5.4-11.31-1.54-15.81-11.48,6.49-22.54,12.73-35.17,19.86.89-6.8,1.39-10.56,1.88-14.33ZM635.36,694.31c-17.92-14.72-33.85-32-60.89-28.63-12.92,1.61-26.42-1.63-39.67-2.23-1.76-.08-3.64,2.43-6.11,4.21-2.46-2.28-5.58-5.16-10.27-9.5,1.27,6.23,2.02,9.95,3.41,16.78-13.46-7.8-24.6-14.25-38.23-22.15-.8,5.26-3.58,11.22-1.75,13.54,12.36,15.71,27.88,26.94,49.17,22.94,35.22-6.61,69.97-8.59,104.34,5.02ZM643.48,701.81c2.72,22.65,5.3,44.15,7.98,66.45,22.62-29.98,19.93-52.82-7.98-66.45ZM899.91,701.67c-28.27,14.25-31.17,40.71-8.01,65.35,2.66-21.73,5.29-43.13,8.01-65.35ZM784.09,513.53c-3.73,2.99-8.6,9.86-13.03,9.58-4.53-.28-8.63-7.55-12.21-11.07-2.31,5.18-4.56,11.6-7.93,17.38-3.97,6.83-8.9,13.1-13.42,19.61l2.91,3.02c7.73-12.57,17.46-17.62,32.71-18.49,17.35-.98,22.41,11.84,33.59,18.43-7.82-13.28-15.63-26.56-22.64-38.47ZM953.19,641.34c-33.75-7.28-65.23-11.15-88.2-36.48-.54,1.1-1.08,2.2-1.62,3.3,6.78,6.04,13.57,12.08,20.38,18.15-1.66.96-3.2,1.85-5.86,3.4,23.63,10.22,46.26,18.91,75.29,11.63ZM677.27,610.52c-.77-1.3-1.53-2.59-2.3-3.89-21.42,25.93-52.93,26.38-83.55,34.9,27.69,7.19,50.22-1.69,74.17-11.82-3.12-1.67-4.6-2.46-6.27-3.35,6.11-5.39,12.03-10.61,17.95-15.83ZM855.15,733.7v-47.33c-1.39-.2-2.79-.39-4.18-.59,2.89,18.18.26,33.93-19.34,42.4,9.89,2.32,17.78,4.16,23.53,5.51ZM691.65,687.29c-1.21.22-2.42.44-3.63.65v45.49c6.49-1.35,14.52-3.01,24.27-5.03-19.32-8.09-22.73-23.23-20.64-41.11ZM755.95,808.7c.22,7.95-1.08,18.88,9.74,23.95,4.01,1.88,13.09.73,14.93-2.17,4.23-6.68,5.45-15.28,8.22-24.15-6.82,7.55-11.79,13.06-16.77,18.57-5.43-5.46-10.87-10.92-16.12-16.2ZM1023.2,377.84c-14.66-25.37-36.12-39.19-65.96-38.55,25.71,6.61,48.79,17.59,65.96,38.55ZM521.92,375.53c16.72-19.6,39.24-29.31,63.33-36.39-28.11,0-49.21,12.23-63.33,36.39ZM921.13,364.07v-46.2c-1.31.06-2.62.12-3.93.18,7.58,15.01-7.73,31.47,3.93,46.01ZM621.6,364.82c11.74-15.73-2.57-31.56,4.07-46.75-1.36-.03-2.71-.06-4.07-.1v46.85Z"/>
    <path class="cls-2" d="M868.22,1066.11c-11.34,14.89-26.78,12.94-42.4,10.34-16.47-2.73-32.96-7.66-49.42-7.56-19.3.12-38.75,3.72-57.8,7.48-17.64,3.49-32.47,1.14-46.77-10.68-24.86-20.55-50.27-40.51-76.38-59.44-19.76-14.33-26.35-35.25-32.88-56.67-2.42-7.92-4.19-14.75-12.43-20.58-13.9-9.83-18.5-26.22-19-44.79-8.36,20.26-4.16,33.69,20.05,68.11-19.91-11.27-32.72-41.33-28.54-62.85,4.84-24.92,8.13-50.14,11.96-75.24,3.15-20.62-9.44-35.47-19.16-51.33-2.29-3.74-4.99-7.24-7.1-11.07-9.96-18.01-4.28-29.49,16.36-32.85,4.53-.74,9.21-.51,16.11-.84-4.89,7.53-8.5,13.07-13.27,20.4,5.43-1.54,9.24-2.63,14.11-4.01-2,3.86-3.56,6.89-4.87,9.41,5.92.43,12.67-.86,17.11,1.76,4.27,2.52,6.15,9.09,7.31,14.96-2.59-2.31-5.18-4.62-8.22-7.34-12.04,34.39,10.19,118.37,37.04,142.69.68-1.78,1.33-3.46,2.12-5.52,4.27,7.74,8.42,15.26,12.57,22.77,1.66-.3,3.33-.61,4.99-.91-.4-5.16,1.24-12.1-1.49-15.23-40.89-46.92-43.71-99.55-25.17-155.97,2.02-6.15,1.39-13.16,1.9-18.75,8.09,4.66,10.92,14.21,4.95,24.87-22.08,39.4-16.22,98.66,12.75,134.59,5.88,7.29,10.01,15.99,14.84,23.88.8-1.26,3.33-5.27,7.37-11.68,4.87,11.86,8.95,21.83,13.19,32.16,2.25-4.74,4.53-9.54,7.95-16.74,3.61,13.47,6.53,24.41,9.57,35.76,3.35-8.86,6.49-17.17,10.8-28.6,7.69,13.9,13.55,24.48,19.31,34.9,3.46-6.96,7.29-14.67,11.32-22.78,6.57,7.78,12.75,15.1,18.27,21.65.52-.13-1.33.34-3.48.89,3.51,4.06,6.74,7.79,10.08,11.65,3.65-8.27,7.39-16.75,11.42-25.89,21.14,22.09,24.94,21.34,37.36-4.9,5.3,6.42,9.87,16.97,16.7,18.71,6.15,1.57,14.76-6.49,23.84-11.1,2.73,6.36,6.4,14.88,9.98,23.21,3.04-3.46,6.31-7.18,10.03-11.4-1.09-.43-2.75-1.1-2.66-1.06,5.29-6.82,10.88-14.03,17.27-22.26,3.91,7.74,7.74,15.33,12.2,24.16,1.99-4.5,3.61-8.18,5.23-11.86-.72-.2-1.44-.4-2.16-.59,4.89-6.38,9.78-12.76,16.34-21.32,3.55,9.41,6.71,17.76,9.87,26.14,3.18-10.26,6.55-21.14,10.56-34.07,2.9,6.37,5.2,11.45,7.29,16.05,4.01-10.11,8.06-20.32,12.98-32.72,3.99,6.34,6.53,10.39,7.6,12.08,4.32-7.33,7.67-16.38,13.79-22.77,20.92-21.85,25.9-49.02,26.62-77.24.53-20.94.68-42.16-13.32-60.61-6.21-8.18-3.24-15.31,4.66-22.31.74,5.34.77,11.75,2.59,17.6,10.69,34.46,17.58,69.38,4.01,104.24-6.68,17.17-16.51,33.47-27.17,48.59-5.9,8.37-6.88,13.31,1.45,20.43,4.04-7.7,7.88-15.02,12.25-23.35.77,2.38,1.35,4.15,1.95,5.97,32.49-26.51,41.3-90.39,38.93-143.98-4.21,3.92-7.2,6.69-9.69,9.01,1.14-16.31,7.16-20.69,25.11-16.61-1.77-3.53-3.32-6.61-5.56-11.08,4.86,1.84,8.33,3.16,14.94,5.66-5.36-8.13-9.08-13.78-12.8-19.43.38-1.18.76-2.36,1.14-3.54,9.06,2.43,18.51,3.93,27.06,7.56,8.56,3.64,11.26,11.37,6.61,19.92-6.08,11.16-12.47,22.21-19.49,32.8-6.84,10.32-11.46,21.09-9.83,33.59,3.22,24.78,4.78,50.02,10.84,74.1,4.97,19.74.87,35.14-10.81,50.04-5.22,6.66-10.71,13.12-17.32,18.97,16.99-20.18,30.81-41.02,22-67.63-3.18,9.55-5.58,20.8-10.68,30.65-3.23,6.24-10.58,10.29-15.85,15.55-1.53,1.52-2.64,3.72-3.3,5.81-1.56,4.94-2.82,9.97-4.07,15-6.62,26.7-20.84,47.22-44.62,62.33-19.07,12.12-35.95,27.68-53.88,41.61-4.35,3.38-9.01,6.35-13.52,9.5,7.49-6.15,14.97-12.3,22.45-18.44-1.14-1.33-2.29-2.66-3.43-3.98-2.88,1.13-5.76,2.26-8.64,3.39-.44-.79-.89-1.58-1.33-2.37,22.74-14.16,45.49-28.33,68.23-42.49l-.91-1.62c-8.44,3.82-16.89,7.64-25.33,11.45,6.7-5.73,14.64-9.38,21.37-14.59,6.73-5.2,12.27-11.95,18.32-18.03-13.68,5.77-25.14,13.48-37.45,19.46-14.28,6.94-29.67,11.65-43.87,18.74-8.3,4.14-17.57,9.58-22.24,17.04-9.14,14.61-21.82,22.47-36.77,29.49,9.33-2.76,18.65-5.51,27.98-8.27.29.42.57.84.86,1.26-2.39,1.27-4.78,2.55-7.17,3.82.55.76,1.11,1.53,1.66,2.29,4.26-1.17,8.51-2.35,12.77-3.52.46.67.91,1.34,1.37,2.02-3.51,2.26-7.01,4.53-10.52,6.79.65,1.03,1.29,2.07,1.94,3.1,7.04-1.99,14.08-3.98,21.12-5.97ZM596.37,999.69l-.79,1.6c22.76,14.02,45.51,28.04,68.27,42.06-.52.9-1.04,1.8-1.57,2.69-2.83-1.38-5.67-2.76-8.5-4.14,12.21,12.77,21.6,29.75,45.44,29.2-4.9-4.53-7.8-7.21-12.15-11.22,6.32,1.52,10.51,2.53,14.7,3.54.96-1.31,1.92-2.63,2.89-3.94-2.47-1.31-4.93-2.63-7.4-3.94-.01.34-.03.68-.04,1.02,9.57,2.61,19.15,5.22,27.69,7.56-9.87-6.43-23.42-10.83-29.43-20.11-10.88-16.8-25.89-24.87-43.11-31.99-24.04-9.93-49.82-17.08-68.16-37.97.86,3.52,1.65,7.38,4.02,9.34,13.15,10.91,26.69,21.36,37.98,30.3-8.16-3.83-19-8.91-29.84-13.99ZM799.07,1061.92c-19.88-15.28-39.07-14.9-56.58,0h56.58ZM755.7,971.6c5.66-2.73,11.17-7.61,16.35-7.28,5.63.36,10.95,5.56,16.05,8.45-.27-11.47-4.94-15.28-19.06-13.93-7.96.76-16.18,1.97-13.35,12.76Z"/>
    <path class="cls-2" d="M810.44,867.03c.21,20.13-16.91,32.06-30.74,26.28-1.86-.78-4.03-4.38-3.71-6.27,2.63-15.19,5.34-30.41,9.21-45.32.96-3.71,6.27-8.74,9.55-8.72,3.15.02,7.76,5.27,9.12,9.13,3.39,9.64,5.29,19.8,6.57,24.89Z"/>
    <path class="cls-2" d="M768.04,882.83c.75,8.68-2.44,11.51-11.21,10.91-19.79-1.35-26.42-8.81-23.27-28.31,1.14-7.02,2.16-14.27,4.81-20.77,1.91-4.67,6.43-8.28,9.79-12.36,3.86,4.07,9.69,7.52,11.21,12.33,3.91,12.41,5.91,25.42,8.67,38.19Z"/>
    <path class="cls-2" d="M711.44,834.81c10.82,9.43,17.95,35.38,12.64,48.03-.92,2.2-5.15,5.05-6.87,4.51-4.89-1.54-10.99-3.56-13.54-7.42-7.23-10.94-2.34-35.29,7.77-45.11Z"/>
    <path class="cls-2" d="M830.58,834.06c11.27,9.65,16.34,37.55,8.13,47.49-2.95,3.57-9.51,5.43-14.44,5.46-2,.01-5.35-6.78-5.84-10.75-1.9-15.59,2.37-29.63,12.14-42.19Z"/>
    <path class="cls-2" d="M776.18,907.85c12.48-2.7,21.72-4.7,30.94-6.69,3.84,13.62-2.69,33.36-14.09,40.18-1.96,1.17-8.88-1.35-9.58-3.46-3.15-9.58-4.9-19.63-7.27-30.03Z"/>
    <path class="cls-2" d="M736.14,901.17c9.17,2.01,18.36,4.03,30.54,6.71-2.16,9.99-3.86,20.25-6.92,30.09-.63,2.03-7.55,4.47-9.55,3.3-11.22-6.61-17.75-26.27-14.07-40.1Z"/>
    <path class="cls-2" d="M701.91,893.68c7.85,3.37,18.62,5.94,18.59,8.34-.16,11.23,13.63,20.79,4.18,32.31-1.67,2.04-8.81,2.95-9.85,1.62-8.82-11.38-15.4-23.84-12.92-42.27Z"/>
    <path class="cls-2" d="M820.77,940.77c-1.69-6.69-5.9-13.63-4.06-18.04,4.59-11.01,1.21-30.67,23.56-25.88,4.18,13.89-3.45,33.55-19.49,43.93Z"/>
    <path class="cls-2" d="M680.38,840.48c10.99,12.47,13.84,26.85,12.41,46.24-7.01-2.98-14.38-4.05-18.36-8.28-6.57-6.99-2.66-28.43,5.95-37.96Z"/>
    <path class="cls-2" d="M862.76,840.07c8.74,10.11,12.79,30.05,6.57,37.61-3.76,4.57-11.33,6.01-18.26,9.37-3.23-19.35,1.36-33.32,11.68-46.98Z"/>
    <path class="cls-2" d="M870.64,891.91c.64,14.8-3.65,27.11-14.48,38.05-14.29-11,.4-23.57-5.21-34.71,7.37-1.25,13.04-2.21,19.69-3.34Z"/>
    <path class="cls-2" d="M672.44,891.78c6.44,1.12,11.79,2.04,18.98,3.29-5.11,10.94,10.04,23.17-4.24,35.19-10.74-11.12-15.4-23.47-14.75-38.48Z"/>
    <path class="cls-2" d="M662.15,838.32c1.64,12.11,3.28,24.21,4.91,36.32-1.33.85-2.66,1.7-3.99,2.55-3.43-3.2-8.36-5.78-10.01-9.73-4.37-10.51-2.05-20.52,4.56-29.3l4.52.16Z"/>
    <path class="cls-2" d="M876.52,875.15c1.45-12.27,2.9-24.55,4.61-38.94,11.38,7.87,12.03,17.09,10.4,25.81-1.04,5.55-5.66,10.44-8.68,15.62-2.11-.83-4.22-1.66-6.33-2.49Z"/>
    <path class="cls-2" d="M879.74,887.3c4.41-2.38,8.81-4.76,16.78-9.06-3.7,14.45-6.7,26.12-9.69,37.8-1.77-.22-3.54-.43-5.32-.65-.59-9.34-1.18-18.69-1.77-28.09Z"/>
    <path class="cls-2" d="M656.54,916.24c-3.18-11.83-6.36-23.65-10.23-38.06,7.72,4.03,12.45,6.5,17.19,8.97-.51,9.49-1.01,18.91-1.51,28.33-1.82.25-3.63.5-5.45.76Z"/>
    <path class="cls-2" d="M647.62,865.41c-16.08-5.7-17.97-21.52-4.77-35.71,1.84,13.78,3.3,24.74,4.77,35.71Z"/>
    <path class="cls-2" d="M902.22,903.53c3.75-11.04-7.48-27.35,12.06-32.73,3.24,13.8-1.04,27.17-12.06,32.73Z"/>
    <path class="cls-2" d="M628.63,871.06c11.81,5.56,15.81,17.12,11.46,33.13-9.36-5.06-14.31-19.34-11.46-33.13Z"/>
    <path class="cls-2" d="M899.62,832.9c13.74,10.79,11.71,27.44-3.48,35.05,1.29-12.98,2.38-24.01,3.48-35.05Z"/>
    <path class="cls-2" d="M624.12,850.42c-11.56-5.02-12.42-13.2-3.1-27.86,11.12,8.38,7.78,17.92,3.1,27.86Z"/>
    <path class="cls-2" d="M922.12,822.13c9.15,15.91,8.57,22.16-2.56,29.05-5.49-9.96-8.18-19.38,2.56-29.05Z"/>
    <path class="cls-2" d="M933.91,860.93c-1.85,7.48-3.7,14.96-5.56,22.45-1.61-.39-3.22-.78-4.83-1.17,4.52-7.01-5.11-17.24,6.22-22.69l4.17,1.42Z"/>
    <path class="cls-2" d="M614.16,882.64c-1.51-7.43-3.02-14.85-4.97-24.38q10.33,5.5,8.59,23.68c-1.21.23-2.42.46-3.63.7Z"/>
    <path class="cls-1" d="M621.58,417.96c-1.54-5-3.31-10.72-4.78-15.49,21.75,2.16,43.62,2.03,64.25,7.01,20.85,5.04,40.47,15.15,62.06,23.6-5.67,1.7-10.11,3.03-17.17,5.15,21.98,32.44,20.3,66.52,6.37,101.09.72-10.18,1.43-20.36,2.15-30.55-5.46,29.53-18.61,55.06-38.93,77.66.77-4.72,1.53-9.44,2.41-14.85-12.14,10.78-23.7,21.04-35.26,31.31-.58-.64-1.15-1.29-1.73-1.93,6.9-9.07,13.8-18.15,20.7-27.22l-1.99-2.3c-32.79,42.13-79.95,42.88-127.83,45.16,12.36,11.96,27.76,9.43,41.56,12.18-32.58,5-60.67-3.44-84.16-28.5,3.25-1.21,5.96-2.64,8.82-3.15,2.84-.51,5.85-.11,8.97-1.77-2.56-.52-5.32-1.94-7.64-1.41-13.53,3.12-16.88-5.47-17.73-15.72-3.25-38.97-4.39-77.96,2.4-116.72,2.47-14.09,10.37-24.8,22.39-32.47,23.76-15.17,49.77-23.53,77.91-22.55,5.85.2,11.46,7.44,17.23,11.46Z"/>
    <path class="cls-1" d="M814.82,437.35c-4.71-1.28-9.18-2.49-13.32-3.62,9.49-4.41,18.65-8.52,27.68-12.91,25.3-12.32,52.01-16.89,80.04-16.04,6.04.18,12.2-3.29,18.86-5.25-2.13,5.5-5.12,13.21-8.1,20.9.44.12,1.65.54,1.68.47,7.37-17.95,22.06-15.65,36.84-13.56,22.91,3.23,43.99,11.31,62.63,24.89,12.63,9.2,19.08,22.75,19.69,38.07,1.31,33.05,1.66,66.13,2.28,99.2.05,2.74-.82,5.5-1.24,8.25-1.64,10.73-4.86,19.47-18.76,16.18-2.02-.48-4.41.59-6.66,2.71,5.46.76,10.92,1.53,16.97,2.37-20.92,25.25-51.62,35.97-82.81,30.22,12.52-2.64,26.31-5.55,40.1-8.46l-.52-4.17c-45.91-2.24-92.36-2.91-125.08-43.27-.76.73-1.53,1.47-2.29,2.2,6.51,8.42,13.02,16.84,19.54,25.26-.63.7-1.25,1.4-1.88,2.11-11.75-10.57-23.51-21.15-35.57-32,1.36,6.04,2.71,12.06,4.07,18.08-20.43-23.39-34.74-49.5-40.16-80.31.68,9.92,1.35,19.84,2.03,29.75-1.05.14-2.09.27-3.14.41-2.67-17.08-8.35-34.37-7.17-51.18,1.19-16.92,9.19-33.36,14.3-50.29Z"/>
    <path class="cls-1" d="M803.33,707.68c-10.93-10.85-21.85-21.7-32.45-32.22-8.74,8.9-19.42,19.78-28.73,29.26.99-.34,4.54-1.54,8.09-2.75-7.1,10.72-17.21,13.19-31.14,10.31,14.7,7.09,18.88,5.97,46.03-10.66-10.11,20.49-39.92,28.59-56.04,13.45-5.36-5.04-8.45-17.27-6.47-24.54,8.97-32.92,20.01-65.29,30.57-97.77,3.81-11.72,8.32-23.2,12.61-34.76,4.43-11.92,14.86-13.76,25.41-13.8,10.49-.04,21.64,1.23,25.78,13.17,14.59,42.05,28.93,84.19,42.82,126.48,3.82,11.61,5.2,24.05-6.58,32.65-10.91,7.96-34.59,6.94-45.27-1.68-4.17-3.37-7.36-7.95-10.31-13.15,13.12,10.51,26.78,17.93,44.1,12.7-11.21-.52-22.48-.8-29.08-12.72,4.12,1.64,8.24,3.27,12.35,4.91-.57.37-1.14.75-1.71,1.12Z"/>
    <path class="cls-1" d="M1024.07,659.84c-.49,3.76-.99,7.53-1.88,14.33,12.63-7.14,23.69-13.38,35.17-19.86,6.94,4.49,7.94,9.06,1.54,15.81-14.41,15.19-30.8,23-52.29,18.53-33.12-6.88-66.03-7.3-98.4,5.59,16.7-13.14,30.5-30.67,55.52-28.55,15.79,1.34,31.78.25,48.5.25-.24-1.43.05.3.34,2.03.86.77,1.73,1.55,2.59,2.32,2.11-4.13,4.22-8.26,6.33-12.38.86.65,1.72,1.29,2.57,1.94Z"/>
    <path class="cls-1" d="M635.36,694.31c-34.36-13.61-69.12-11.63-104.34-5.02-21.3,4-36.81-7.23-49.17-22.94-1.83-2.33.95-8.28,1.75-13.54,13.63,7.9,24.76,14.35,38.23,22.15-1.39-6.83-2.15-10.56-3.41-16.78,4.69,4.34,7.81,7.22,10.27,9.5,2.47-1.78,4.35-4.29,6.11-4.21,13.26.6,26.75,3.84,39.67,2.23,27.04-3.37,42.96,13.92,60.89,28.63Z"/>
    <path class="cls-1" d="M643.48,701.81c27.91,13.63,30.6,36.47,7.98,66.45-2.68-22.3-5.26-43.81-7.98-66.45Z"/>
    <path class="cls-1" d="M899.91,701.67c-2.72,22.21-5.35,43.62-8.01,65.35-23.16-24.64-20.26-51.1,8.01-65.35Z"/>
    <path class="cls-1" d="M784.09,513.53c7.01,11.9,14.82,25.18,22.64,38.47-11.18-6.59-16.25-19.42-33.59-18.43-15.26.87-24.99,5.92-32.71,18.49l-2.91-3.02c4.52-6.51,9.45-12.78,13.42-19.61,3.36-5.78,5.61-12.21,7.93-17.38,3.58,3.52,7.68,10.79,12.21,11.07,4.43.27,9.29-6.6,13.03-9.58Z"/>
    <path class="cls-1" d="M953.19,641.34c-29.04,7.28-51.66-1.4-75.29-11.63,2.66-1.55,4.2-2.44,5.86-3.4-6.82-6.07-13.6-12.11-20.38-18.15.54-1.1,1.08-2.2,1.62-3.3,22.96,25.33,54.44,29.2,88.2,36.48Z"/>
    <path class="cls-1" d="M677.27,610.52c-5.92,5.22-11.84,10.44-17.95,15.83,1.67.89,3.15,1.69,6.27,3.35-23.95,10.13-46.48,19.01-74.17,11.82,30.62-8.51,62.13-8.97,83.55-34.9.77,1.3,1.53,2.59,2.3,3.89Z"/>
    <path class="cls-1" d="M855.15,733.7c-5.75-1.35-13.64-3.19-23.53-5.51,19.6-8.47,22.23-24.22,19.34-42.4,1.39.2,2.79.39,4.18.59v47.33Z"/>
    <path class="cls-1" d="M691.65,687.29c-2.08,17.88,1.32,33.02,20.64,41.11-9.75,2.02-17.78,3.69-24.27,5.03v-45.49c1.21-.22,2.42-.44,3.63-.65Z"/>
    <path class="cls-1" d="M755.95,808.7c5.25,5.27,10.68,10.74,16.12,16.2,4.98-5.51,9.95-11.02,16.77-18.57-2.77,8.88-3.98,17.47-8.22,24.15-1.84,2.9-10.92,4.04-14.93,2.17-10.82-5.07-9.52-15.99-9.74-23.95Z"/>
    <path class="cls-1" d="M1023.2,377.84c-17.17-20.96-40.25-31.94-65.96-38.55,29.84-.64,51.3,13.18,65.96,38.55Z"/>
    <path class="cls-1" d="M521.92,375.53c14.12-24.17,35.22-36.38,63.33-36.39-24.09,7.09-46.61,16.8-63.33,36.39Z"/>
    <path class="cls-1" d="M921.13,364.07c-11.66-14.54,3.65-31-3.93-46.01,1.31-.06,2.62-.12,3.93-.18v46.2Z"/>
    <path class="cls-1" d="M621.6,364.82v-46.85c1.36.03,2.71.06,4.07.1-6.64,15.19,7.67,31.02-4.07,46.75Z"/>
    <path class="cls-1" d="M596.37,999.69c10.84,5.08,21.67,10.16,29.84,13.99-11.29-8.94-24.83-19.39-37.98-30.3-2.37-1.96-3.16-5.82-4.02-9.34,18.34,20.89,44.12,28.04,68.16,37.97,17.22,7.12,32.23,15.19,43.11,31.99,6.01,9.28,19.56,13.69,29.43,20.11-8.55-2.33-18.12-4.95-27.69-7.56.01-.34.03-.68.04-1.02,2.47,1.31,4.93,2.63,7.4,3.94-.96,1.31-1.92,2.63-2.89,3.94-4.19-1.01-8.38-2.02-14.7-3.54,4.34,4.01,7.24,6.69,12.15,11.22-23.84.56-33.23-16.43-45.44-29.2,2.83,1.38,5.67,2.76,8.5,4.14.52-.9,1.04-1.8,1.57-2.69-22.76-14.02-45.51-28.04-68.27-42.06l.79-1.6Z"/>
    <path class="cls-1" d="M868.22,1066.11c-7.04,1.99-14.08,3.98-21.12,5.97-.65-1.03-1.29-2.07-1.94-3.1,3.51-2.26,7.01-4.53,10.52-6.79-.46-.67-.91-1.34-1.37-2.02-4.26,1.17-8.51,2.35-12.77,3.52-.55-.76-1.11-1.53-1.66-2.29,2.39-1.27,4.78-2.55,7.17-3.82-.29-.42-.57-.84-.86-1.26-9.33,2.76-18.65,5.51-27.98,8.27,14.95-7.01,27.63-14.88,36.77-29.49,4.67-7.46,13.95-12.89,22.24-17.04,14.2-7.09,29.58-11.79,43.87-18.74,12.31-5.98,23.77-13.69,37.45-19.46-6.06,6.07-11.59,12.83-18.32,18.03-6.74,5.2-14.67,8.86-21.37,14.59,8.44-3.82,16.89-7.64,25.33-11.45l.91,1.62c-22.74,14.16-45.49,28.33-68.23,42.49.44.79.89,1.58,1.33,2.37,2.88-1.13,5.76-2.26,8.64-3.39,1.14,1.33,2.29,2.66,3.43,3.98-7.48,6.14-14.96,12.29-22.45,18.44,0,0,.41-.44.41-.44Z"/>
    <path class="cls-1" d="M799.07,1061.92h-56.58c17.51-14.9,36.7-15.28,56.58,0Z"/>
    <path class="cls-1" d="M755.7,971.6c-2.84-10.79,5.39-12,13.35-12.76,14.12-1.35,18.79,2.47,19.06,13.93-5.11-2.89-10.43-8.1-16.05-8.45-5.18-.33-10.7,4.55-16.35,7.28Z"/>
  </g>
</svg>