<?xml version="1.0" encoding="UTF-8"?>
<svg id="_Слой_1" data-name="Слой 1" xmlns="http://www.w3.org/2000/svg" viewBox="0 0 1613.72 1434.23">
  <defs>
    <style>
      .cls-1 {
        fill: #fff;
        stroke-width: 0px;
      }
    </style>
  </defs>
  <path class="cls-1" d="M420.69,36.63c21.56,0,43.12,1.65,64.09,4.91l.21.03.21.03c15.19,2.09,29.73,4.98,43.44,8.63l20.82,6.88c99.98,33.03,184.14,104.49,236.99,201.23,4.42,8.08,12.88,13.1,22.09,13.1s17.46-4.9,21.91-12.79c54.23-95.96,139.42-166.2,239.86-197.79l20.92-6.58c13.76-3.45,28.34-6.13,43.56-8l.21-.03.21-.03c19.02-2.67,38.54-4.03,58-4.03,12.34,0,24.89.55,37.4,1.62,2.53,1.25,5.3,2.08,8.21,2.42,36.46,4.24,71.63,12.73,104.53,25.23,35.4,13.45,67.48,31.33,95.34,53.13,30.16,23.61,55.36,51.85,74.9,83.96,21.38,35.13,36.24,75.36,44.19,119.57,25.03,139.29,33.71,303.54-91.65,465.58-22.79,29.46-49.21,57.39-78.52,83.01l-587.06,513.14-.25-.23-.25.22L220.45,868.32c-28.94-26.04-54.95-54.34-77.32-84.13C20.11,620.35,31.16,456.25,58.19,317.33c8.58-44.1,24.03-84.11,45.9-118.92,20-31.82,45.6-59.7,76.1-82.87,28.17-21.4,60.5-38.81,96.09-51.75,33.08-12.03,68.37-20.01,104.88-23.73,2.92-.3,5.7-1.09,8.25-2.3,10.45-.75,20.94-1.13,31.27-1.13M420.69,12.63c-13.12,0-26.42.57-39.87,1.74-.51.04-.94.41-1.05.91h0c-.11.49-.52.85-1.02.9C231.16,31.2,72.87,116.28,34.64,312.75,6.72,456.22-4.45,627.61,123.94,798.6c23.85,31.77,50.92,60.99,80.45,87.56l595.55,535.89.12-.11.12.11,603.2-527.26c29.91-26.15,57.4-54.97,81.71-86.39,130.84-169.12,122.14-340.65,96.29-484.51-35.4-197-192.45-284.35-339.8-301.49-.5-.06-.91-.43-1.01-.92-.11-.5-.53-.88-1.04-.93-15.65-1.58-31.11-2.36-46.34-2.36-20.9,0-41.37,1.45-61.34,4.26-24.75,3.04-48.02,8.14-68.95,15.05l.2.46c-108.68,34.18-197.8,110.22-253.56,208.88-.23.4-.62.6-1.02.6s-.8-.2-1.03-.61c-54.33-99.45-142.34-176.77-250.52-212.51l.21-.46c-20.83-7.21-44.01-12.64-68.72-16.04-22-3.42-44.62-5.19-67.78-5.19h0Z"/>
</svg>