<?xml version="1.0" encoding="UTF-8"?>
<svg id="_Слой_1" data-name="Слой 1" xmlns="http://www.w3.org/2000/svg" viewBox="0 0 595.28 527.24">
  <defs>
    <style>
      .cls-1 {
        fill: #000;
      }

      .cls-1, .cls-2 {
        stroke-width: 0px;
      }

      .cls-2, .cls-3 {
        fill: #fff;
      }

      .cls-3 {
        stroke: #1d1d1b;
        stroke-miterlimit: 10;
        stroke-width: 5px;
      }
    </style>
  </defs>
  <g>
    <path class="cls-3" d="M285.04,292.35c1.96-3.77,3.38-7.97,5.99-11.23,10.72-13.4,24.25-20.93,42.07-19.33,2.59.23,5.48-1.43,8.01-2.66,1.54-.75,2.63-2.39,3.97-3.58,10.85-9.6,10.88-11.1-2.61-17.17-6.59-2.97-14.03-4.04-20.84-5.91,4.13-7.05,23.31-14.01,34.63-11.47,6.89,1.54,13.53,4.49,20.05,7.33,4.51,1.97,21.3.14,24.05-3.75.93-1.31.51-4.25-.28-6-4.33-9.55-11.01-16.97-21.04-21.07.11-.68.21-1.36.32-2.05,7.24.2,14.64-.48,21.69.81,12.32,2.25,22.26,8.98,28.23,20.23,2.75,5.19,6.25,7.95,12,8.28,1.97.11,3.9.82,5.84,1.31,8.18,2.1,9.81.82,9.41-7.93-.43-9.42-2.4-18.4-9.2-26.21,15.21,2.28,31.8,17.95,34.65,32.02.16.78.53,1.57.49,2.34-.66,11.31,4.84,18.75,13.9,25.03,4.66,3.23,6.49,2.18,8.67-1.73,5.12-9.18,7.31-18.92,5.16-31.03,2.64,2.76,4.68,4.38,6.07,6.43,9.22,13.54,15.74,27.98,8.09,44.23-4.22,8.96-2.42,16.45,1.68,24.3,1,1.92,1.96,3.87,3.2,6.33,11.81-5.34,19.49-13.85,24.35-27.28,1.28,3.84,2.16,5.76,2.55,7.77,3.54,18.24-1.75,33.5-15.66,45.77-5.24,4.62-9.64,18.87-7.05,24.97.57,1.35,3.83,2.45,5.67,2.22,10.07-1.25,18.97-5.47,27.45-12.19.01,1.63.27,2.91,0,4.06-4.82,20.28-17.49,32.65-40.5,36.8-1.43.26-3.35.79-4.02,1.84-3.21,5.04-6.32,10.2-8.85,15.59-.48,1.03,1.37,4.27,2.84,4.92,9.96,4.39,20.27,5.78,31.56,2.68-2.06,2.46-3.77,5.34-6.22,7.3-13.32,10.61-27.75,17.85-45.2,11.16-5.34-2.04-9.54-1.39-13.93,1.61-3.77,2.58-7.63,5.03-12.2,8.04,5.83,11.58,16.2,16.79,27.65,20.64-5.4,4.79-18.48,7.56-28.04,5.7-10.21-2-19.24-6.17-26.52-14.03-1.88-2.03-5.42-3.09-8.34-3.45-3.7-.46-7.54.33-11.33.44-6.2.18-6.99,1.3-5.52,7.58,2.28,9.79,7.41,17.88,16.26,25.63-16.8-1.4-30.23-5.68-38.82-19.09-3.07-4.8-4.68-10.52-7.24-15.69-1.01-2.03-2.52-4.02-4.29-5.41-2-1.58-4.54-2.49-6.87-3.64-11.6-5.69-13.65-4.88-14.45,8.28-.46,7.52,1.29,15.18,2.24,24.8-6.04-5.93-12.07-10.49-16.34-16.35-7.72-10.59-10.27-22.74-7.55-35.83,1.1-5.31-6.46-18.92-11.64-20.38-1.69-.48-4.53.96-6.04,2.38-6.09,5.72-10.52,16.21-11.9,26.86-12.38-15.14-12.61-38.22-.42-53.86,4.58-5.88,5.78-19.58,1.4-25.44-1.05-1.4-5.12-1.76-7.19-.98-9.46,3.58-17.33,9.47-22.89,18.76-3.57-18.15,4.84-38.46,20.56-44.76,13.77-5.52,15.15-17.08,18.9-28.82-12.84-4.25-24.43-1.52-35.6,5.03-.34-.37-.67-.75-1.01-1.12ZM381.37,355.88c11.79,23.33,42.56,33.61,65.73,21.05,23.24-12.6,33.77-39.96,21.09-65.82-12.25-25-43.17-33.36-65.4-21.56-24.49,13-34.03,41.4-21.42,66.34Z"/>
    <path class="cls-3" d="M294.37,420.31c8.75,10.19,16.82,19.66,24.99,29.04.99,1.14,2.5,1.84,5.07,3.68-.1-5.37-.17-9.54-.25-13.73,8.43,4.34,8.98,6.17,2.39,12.67-6.22,6.13-12.97,11.75-19.61,17.44-4.47,3.83-9.39,1.69-13.54-.3-7.55-3.62-14.21-3.22-21.11,2.9,2.27,4.48,4.73,9.37,7.79,15.42-12.49,4.37-24.03,8.56-35.71,12.31-1.62.52-4.26-.73-5.87-1.92-3.37-2.47-6.44-5.35-9.5-8.21-4.29-4.01-9.33-2.97-14.15-1.92-.95.21-1.86,3.14-1.85,4.81.03,12.38.1,12.39-12.33,12.4-2.59,0-5.21-.42-7.77-.18-13.36,1.27-22.66-3.44-26.38-17.11-1.66-6.1-7.62-5.68-12.19-7.05-.65-.19-2.53,2.07-3.09,3.49-4.95,12.46-4.95,12.59-17.26,6.9-6.53-3.01-12.79-6.6-19.29-9.67-3.79-1.79-5.26-4.49-5.08-8.55.14-3.18-.45-6.41-.14-9.57.67-6.88-4.69-9.21-9.05-12.08-.76-.5-3.49,1.03-4.63,2.26-8.61,9.28-7.07,10.54-16.85.13-5.58-5.94-10.89-12.17-15.96-18.55-1.16-1.46-1.51-4.27-1.05-6.17.98-4.06,2.5-8.03,4.22-11.84,2.26-5.01.1-9.04-2.64-12.75-.75-1.02-3.58-1.39-5-.85-3.71,1.4-7.17,3.46-12.33,6.07-4.24-12.44-8.89-24.21-11.93-36.39-.72-2.9,3.57-7.46,6.24-10.69,3.34-4.05,6.91-7.58,6.33-13.54-.47-4.83-2.57-6.53-7.36-6.3-10.95.52-11.14.36-10.8-10.57.26-8.38.79-16.77,1.82-25.08.27-2.14,2.58-4.37,4.48-5.88,1.82-1.43,4.27-2.2,6.56-2.87,7.89-2.3,10.67-8.22,11.72-16.12-5.03-1.83-10.02-3.65-16.5-6.02,5.72-11.56,11.02-22.66,16.79-33.51.86-1.61,3.86-2.53,6.02-2.89,4.71-.77,9.74-.27,14.2-1.66,3.02-.94,6.21-3.81,7.55-6.65.79-1.67-1.54-5.25-3.14-7.47-1.69-2.35-4.19-4.11-7.38-7.11,10.11-8.81,19.74-17.29,29.56-25.55.84-.71,3.04-.28,4.42.19,4.54,1.54,8.95,3.51,13.52,4.94,1.71.53,3.98.61,5.57-.08,8.12-3.5,8.53-4.92,4.53-12.84-1.07-2.12-2.14-4.24-3.97-7.86,12.39-4.15,24.02-8.69,36.04-11.63,2.92-.72,7.54,3.31,10.62,6.01,4.1,3.61,7.49,7.46,13.88,6.56,4.57-.65,6.13-2.56,6.04-6.98-.24-11.4-.12-11.52,11.55-11.11,7.58.27,15.14,1.05,22.72,1.34,3.95.15,6.14,2.02,7.6,5.52,1.69,4.06,3.49,8.11,5.68,11.9.95,1.65,2.82,3.33,4.61,3.84,8.08,2.3,8.93,1.8,11.54-6.36.78-2.43.82-5.09,1.38-8.95,13.09,6.39,24.25,11.69,35.21,17.37,1.5.78,2.65,3.41,2.84,5.29.44,4.35-.01,8.79.33,13.16.15,1.96.82,4.37,2.15,5.66,7.01,6.78,8.22,6.6,14.52-.85,1.38-1.64,2.79-3.25,4.78-5.56,4.48,4.33,8.51,8.23,12.21,11.81-11.33,10.26-22,19.93-33.37,30.23-35.37-32.64-76.92-46.85-125.47-34.86-29.24,7.22-52.57,23.76-70.26,47.79-37.09,50.39-32.54,119.22,10.74,164.33,25.23,26.3,56.63,39.21,92.89,39.27,36.25.05,66.96-14.05,91.71-38.9Z"/>
    <path class="cls-3" d="M288.53,263.89c-6.68,13.07-12.7,24.85-18.67,36.53-11.63-24.57-31.67-39.53-59.43-42.93-20.15-2.47-38.84,2.32-54.89,15.37-31.94,25.97-40.37,75.6-6.78,110.88,18.02,18.92,40.87,25.29,66.29,21.1,25.25-4.16,43.25-18.9,55.5-42.77,2.69,11.31,5,21.05,7.31,30.79.5.16,1,.33,1.5.49,1.15-1.78,2.55-3.45,3.42-5.36,3.22-7.09,6.04-14.36,9.48-21.34,1.35-2.74,3.73-5.11,6.05-7.2,1.38-1.24,3.55-1.61,5.36-2.36-.48,2.1-.63,4.35-1.48,6.29-3.11,7.08-6.46,14.06-9.71,21.08-.08.18-.13.38-.15.58-1.83,20.05-17,29.87-31.55,39.29-23.13,14.97-48.87,20.7-76.17,15.65-35.57-6.59-62.23-25.25-79.89-57.78-25.19-46.39-12.25-104.05,26.57-135.02,52.74-42.07,120.15-30.36,157.29,16.89.23.3.32.71-.06-.18Z"/>
    <path class="cls-3" d="M277.37,327.64c-3.02-12.79-1.06-16.56,13.1-24.56,4.76-2.69,9.45-6.75,17.42-4.78-2.27,2.42-3.45,4.62-5.25,5.45-10.84,5-19.36,12.42-25.27,23.89Z"/>
    <path class="cls-3" d="M337.27,248.77c-2.78,1.01-4.43,1.92-6.18,2.19-7.23,1.12-14.52,1.91-21.74,3.08-5.08.82-5.05,1.01-8.24-4.08,7.58-5.67,28.49-7.01,36.16-1.19Z"/>
    <path class="cls-3" d="M321.58,428.5c1.16-5.47,2.21-10.96,3.59-16.38.24-.95,1.87-1.55,2.85-2.31.7,1.03,2.02,2.07,2,3.08-.09,6.16-.91,12.14-6.41,16.1-.68-.16-1.35-.33-2.03-.49Z"/>
  </g>
  <g>
    <path class="cls-1" d="M434.41,322.59c-3.46,6.7-5.01,14.22-4.47,21.75s1.09,16.61,2.4,19.73c3.67,8.75,2.68,16.81-2.89,23.98-4.94,6.35-10.87,11.92-16.27,17.92-1.04,1.15-2.14,2.59-2.41,4.05-1.2,6.47-4.73,11.2-9.98,14.95-11.1,7.95-22.32,15.76-33.12,24.09-8.39,6.47-17.58,6.32-27.13,4.7-14.15-2.41-28.25-1.66-42.28.57-10.56,1.68-19.35-1.57-27.61-9.93-6.48-6.55-14.15-11.75-22.31-16.03-8.27-4.34-14.04-9.95-15.6-18.69-.27-1.5-1.73-3.1-3.07-4.05-9.09-6.51-15.66-15.11-19.24-25.48-1.43-4.14-.43-9.39.41-13.97.8-4.33,2.3-15.39,3.7-23.56.92-5.41.38-10.96-1.61-16.07l-9.68-24.91-17.86-33.31c-3.24-6.72-4.01-14.98-1.42-21.97,3.26-8.79-1.26-20.33-1.89-28.54-1.22-15.93-8.95-43.08-9.48-48.55-2.16-22.36-2.24-44.59,6.03-66.02,11.82-30.6,33.49-52.07,62.54-66.27,22.85-11.17,46.84-18.85,72.44-20.72,20.98-1.53,41,2.89,60.77,9.32,22.89,7.44,44.21,17.78,61.76,34.55,27.75,26.51,38.68,59.46,35.71,97.27-.98,12.43-2.85,24.8-4.29,37.2-.19,1.59-.25,3.2-.44,5.82l-5.46,26.23c-1.2,5.77-1.57,11.69-1.08,17.57l.34,4.12c.46,5.6-.3,11.23-2.24,16.5l-24.27,57.75ZM481.55,202.7,361.97,443.93c1.89-1.32,3.84-2.56,5.65-3.97,7.49-5.82,14.54-12.32,22.5-17.38,9.93-6.31,15.87-14.89,18.64-26.04.52-2.1,1.05-4.21,1.7-6.27.28-.87.74-1.79,1.38-2.43,2.2-2.2,5.27-3.89,6.62-6.5,2.13-4.12,3.13-8.81,4.46-12.8,3.68,11.11-2.09,19.82-9.19,28.25,2.76-2.45,5.05-5.14,7.23-7.92,4.88-6.22,6.59-12.66,4.52-20.9-2.53-10.06-3.18-20.6-4.53-30.95-.68-5.22,1.25-9.72,4.11-14.03,2.93-4.42,5.6-9.04,8.14-13.7,1.94-3.57.82-6.8-2.76-8.32-3.57-1.52-7.52-2.14-11.3-3.16-.16.49-.32.99-.48,1.48,1.55,2.36,3.11,4.72,5.35,8.11-2.76-1.05-4.21-1.6-6.24-2.37.94,1.87,1.58,3.15,2.32,4.63-7.5-1.7-10.01.13-10.49,6.94,1.04-.97,2.29-2.13,4.05-3.76.99,22.38-2.69,49.07-16.26,60.14-.25-.76-.49-1.5-.81-2.49-1.83,3.48-3.43,6.54-5.12,9.75-3.48-2.97-3.07-5.04-.61-8.53,4.45-6.31,8.56-13.12,11.35-20.29,5.67-14.56,2.79-29.15-1.68-43.54-.76-2.45-.77-5.12-1.08-7.35-3.3,2.92-4.54,5.9-1.95,9.32,5.85,7.71,5.79,16.57,5.57,25.32-.3,11.79-2.38,23.14-11.12,32.26-2.56,2.67-3.96,6.45-5.76,9.51-.44-.71-1.51-2.4-3.17-5.05-2.06,5.18-3.75,9.44-5.42,13.67-.87-1.92-1.84-4.04-3.05-6.7-1.67,5.4-3.08,9.95-4.41,14.23-1.32-3.5-2.64-6.99-4.12-10.92-2.74,3.58-4.78,6.24-6.83,8.91.3.08.6.17.9.25-.68,1.54-1.35,3.07-2.18,4.95-1.86-3.69-3.46-6.86-5.1-10.09-2.67,3.44-5,6.45-7.21,9.3-.04-.02.66.26,1.11.44-1.55,1.77-2.92,3.32-4.19,4.76-1.5-3.48-3.03-7.04-4.17-9.69-3.79,1.92-7.39,5.29-9.96,4.64-2.85-.73-4.76-5.14-6.97-7.82-5.19,10.96-6.78,11.28-15.61,2.05-1.68,3.82-3.25,7.36-4.77,10.81-1.39-1.61-2.74-3.17-4.21-4.87.9-.23,1.67-.43,1.45-.37-2.31-2.73-4.89-5.79-7.63-9.04-1.68,3.39-3.28,6.61-4.73,9.51-2.41-4.35-4.85-8.77-8.07-14.58-1.8,4.77-3.11,8.24-4.51,11.94-1.27-4.74-2.49-9.31-4-14.94-1.43,3.01-2.38,5.02-3.32,6.99-1.77-4.31-3.48-8.48-5.51-13.43-1.69,2.68-2.75,4.35-3.08,4.88-2.02-3.29-3.74-6.93-6.2-9.97-12.1-15.01-14.55-39.76-5.32-56.22,2.49-4.45,1.31-8.44-2.07-10.39-.21,2.33.05,5.27-.79,7.83-7.74,23.57-6.56,45.55,10.52,65.15,1.14,1.31.46,4.2.62,6.36-.69.13-1.39.25-2.08.38-1.73-3.14-3.47-6.28-5.25-9.51-.33.86-.6,1.57-.88,2.31-11.22-10.16-20.5-45.24-15.47-59.6,1.27,1.13,2.35,2.1,3.43,3.06-.48-2.45-1.27-5.2-3.05-6.25-1.85-1.09-4.67-.55-7.15-.73.54-1.05,1.2-2.32,2.03-3.93-2.04.58-3.63,1.03-5.89,1.68,1.99-3.06,3.5-5.38,5.54-8.52-2.88.14-4.84.04-6.73.35-8.62,1.4-10.99,6.2-6.83,13.72.88,1.6,2.01,3.06,2.97,4.62,4.06,6.63,9.32,12.83,8,21.44-1.6,10.49-2.98,21.02-5,31.43-1.75,8.99,3.61,21.55,11.92,26.25-10.11-14.38-11.87-19.99-8.37-28.45.21,7.76,2.13,14.6,7.93,18.71,3.44,2.43,4.18,5.29,5.19,8.59,2.73,8.95,5.48,17.68,13.73,23.67,10.91,7.91,21.52,16.24,31.9,24.83,5.97,4.94,12.16,5.92,19.53,4.46,7.96-1.57,16.08-3.08,24.14-3.12,6.87-.04,13.76,2.02,20.64,3.16,6.52,1.08,12.97,1.9,17.71-4.32l-.17.19ZM452.19,222.33c7.16-20.91,9.41-42.52,11.72-65.36-2.36,2.31-3.84,3.76-5.31,5.21.39-2.07,1.64-3.69,2.47-5.49,1.43-3.08,3.49-6.22,3.73-9.45,2.16-28.59-7.85-52.9-26.86-73.83-5.57-6.13-5.69-6-13.4-2.74-.33.14-.84-.15-1.72-.33,2.28-1.92,4.26-3.59,6.24-5.26-54.44-53.88-164.31-51.17-214.54.14,1.95,1.59,3.9,3.18,5.84,4.77-1.44.52-2.45.35-3.15-.21-4.1-3.25-6.93-1.56-10.02,1.84-16.3,17.87-27.38,38.1-28.54,62.77-.41,8.71-1.87,17.82,5.73,24.84.77.71.58,2.47.9,4.04-1.61-2.01-2.86-3.56-4.73-5.9-.24,1.75-.47,2.36-.38,2.93,2.81,19.1,5.59,38.2,8.55,57.27.27,1.75,1.67,3.32,3.06,5.96,6.19-10.62,4.14-20.98,3.93-31.19,5.99,10.38,9.82,21.32,5.51,33.08-2.36,6.45-6.43,12.31-10.01,18.26-6.61,11-5.03,22.75,5.05,32.2,1.67-6.75-5.15-11.3-3.92-17.57,2.73,4.19,5.32,8.17,7.51,11.53-.57,3.25-2.59,7.32-1.35,9.03,3.96,5.44,8.65,10.88,16.42,10.78,4.65-.06,9.29-.74,13.94-.89,7.46-.23,14.98-.88,22.37-.2,11.07,1.02,18.69,13.33,14.83,25.06-.02-6.02-.73-10.42-6.81-12.17.81,4.76,1.47,8.63,2.13,12.51-1.64-1.14-2.06-2.53-2.58-3.89-.52-1.38-1.14-2.72-1.71-4.08,3.32,8.17.86,15.04-3.87,21.69-1.94,2.73-3.92,5.72-2.1,9.44,1.8-2.37,3.44-4.52,5.07-6.67.19.13.38.26.57.4-.78,3.4-1.55,6.81-2.33,10.21.72.23,1.44.45,2.16.68,2.19-4.87,4.39-9.74,7.13-15.82v18.76c2.08-.78,3.07-1.16,4.66-1.76-1.48-.77-2.35-1.22-3.51-1.83,1.8-1.47,3.23-2.64,4.64-3.79.78,3.24,1.49,6.13,2.19,9.03.3-.02.6-.03.89-.05.36-2.52.72-5.04,1.23-8.6,2.65,4.46,4.57,7.67,6.74,11.33,1.17-1.52,1.91-2.48,2.71-3.53-1.24-.58-2.08-.97-2.64-1.23,1.13-2.2,2.16-4.22,2.98-5.84,2.08,4.23,4.27,8.7,6.28,12.79,3.16-3.31,5.79-6.06,8.23-8.62-.59-.21-1.83-.66-3.37-1.22,2.43-1.56,4.36-2.8,5.98-3.83,1.15,4.02,2.34,8.18,3.7,12.96q8.53-8.57,17.37,3.97c8.22-12.34,8.54-12.43,17.38-4.08,1.31-4.72,2.47-8.89,3.56-12.81,1.72,1.04,3.77,2.28,6.32,3.82-1.79.68-3.04,1.15-3.93,1.49,1.6,1.15,3.42,2.03,4.65,3.44,1.24,1.42,1.88,3.36,3.39,6.22,2.55-5.47,4.69-10.06,6.62-14.18.95,1.76,2.05,3.8,3.17,5.86-.84.41-1.68.82-3.35,1.64,1.26,1.13,2.15,1.94,3.48,3.13,2.17-3.74,4.01-6.91,5.84-10.05,1.27,1.44,2.42,2.75,3.89,4.42.48-2.51.84-4.42.97-5.09,1.31.81,3.01,1.86,4.73,2.92-1.13.73-1.95,1.25-3.2,2.05,1.7.45,2.76.73,4.76,1.25v-17.99c2.54,5.47,4.79,10.3,7.03,15.14l2.02-.73c-.77-3.3-1.54-6.61-2.67-11.41,2.6,3.2,4.32,5.31,6.03,7.42l1.2-.58c-.97-2.69-1.49-5.66-2.98-8.01-3.79-5.97-7.36-11.84-5.29-19.45-.76,1.84-1.53,3.67-2.29,5.51l-.93-.29c.63-4,1.26-8,1.94-12.3-6.05.98-6.12,5.74-7.14,10.41-3.06-10.72,4.57-22.6,15.19-23.62,7.22-.69,14.58-.12,21.87.09,5.32.15,10.65,1.07,15.93.82,6.95-.33,11.47-5.39,15-10.51,1.28-1.85-.78-6.01-1.32-9.15,2.3-3.5,4.85-7.39,7.58-11.56.98,6.29-5.33,10.88-3.19,17.16,2.82-3.83,5.04-7.85,6.96-12.01,2.86-6.19,2.82-12.17-1.56-17.86-2.33-3.02-4.19-6.4-6.34-9.56-7.69-11.29-7.92-23.34-3.53-35.78.99-2.81,2.61-5.4,3.93-8.09-.18,10.54-1.63,20.72,4.65,30.2ZM163.39,202.56,338.01,360.59c-.53-2.12-1.33-6.37-2.74-10.39-.57-1.62-2.49-3.81-3.81-3.82-1.37,0-3.58,2.09-3.99,3.64-1.62,6.23-2.75,12.58-3.85,18.93-.14.79.77,2.29,1.55,2.62,5.78,2.42,12.93-2.57,12.84-10.98ZM320.3,367.19c-1.15-5.33-1.99-10.77-3.62-15.95-.63-2.01-3.07-3.45-4.68-5.15-1.4,1.7-3.29,3.21-4.09,5.16-1.11,2.71-1.53,5.74-2.01,8.67-1.32,8.14,1.45,11.26,9.72,11.83,3.66.25,4.99-.93,4.68-4.56ZM296.66,347.13c-4.22,4.1-6.26,14.27-3.25,18.84,1.06,1.61,3.61,2.45,5.66,3.1.72.23,2.48-.96,2.87-1.88,2.22-5.28-.76-16.12-5.28-20.06ZM346.42,346.82c-4.08,5.25-5.86,11.11-5.07,17.62.2,1.66,1.6,4.49,2.44,4.49,2.06-.01,4.8-.79,6.03-2.28,3.43-4.15,1.31-15.8-3.4-19.83ZM323.7,377.64c.99,4.34,1.72,8.54,3.04,12.54.29.88,3.18,1.94,4,1.45,4.76-2.85,7.49-11.09,5.89-16.78-3.85.83-7.71,1.67-12.92,2.79ZM306.98,374.85c-1.53,5.77,1.19,13.99,5.88,16.75.84.49,3.73-.53,3.99-1.38,1.28-4.11,1.99-8.4,2.89-12.57-5.09-1.12-8.93-1.96-12.76-2.8ZM292.68,371.72c-1.04,7.69,1.71,12.9,5.4,17.65.43.56,3.42.18,4.11-.67,3.95-4.81-1.81-8.81-1.75-13.5.01-1-4.49-2.07-7.76-3.48ZM342.33,391.39c6.7-4.34,9.89-12.55,8.14-18.35-9.33-2-7.92,6.21-9.84,10.81-.77,1.84.99,4.74,1.7,7.54ZM283.69,349.5c-3.6,3.98-5.23,12.94-2.49,15.85,1.66,1.77,4.74,2.21,7.67,3.46.6-8.1-.59-14.11-5.18-19.32ZM359.86,349.33c-4.31,5.71-6.23,11.54-4.88,19.62,2.89-1.41,6.06-2.01,7.63-3.92,2.59-3.16.91-11.48-2.75-15.71ZM363.15,370.98c-2.78.47-5.15.87-8.22,1.4,2.34,4.65-3.8,9.9,2.18,14.5,4.52-4.57,6.31-9.71,6.05-15.89ZM280.37,370.93c-.27,6.27,1.67,11.43,6.16,16.07,5.96-5.02-.36-10.13,1.77-14.7-3-.52-5.24-.91-7.93-1.37ZM276.07,348.6l-1.89-.07c-2.76,3.67-3.73,7.85-1.91,12.24.69,1.65,2.75,2.73,4.18,4.07.55-.35,1.11-.71,1.66-1.06-.68-5.06-1.37-10.11-2.05-15.17ZM365.61,363.98c.88.35,1.76.69,2.65,1.04,1.26-2.17,3.19-4.21,3.62-6.53.68-3.64.41-7.49-4.35-10.78-.71,6.01-1.32,11.14-1.92,16.26ZM366.96,369.06c.25,3.93.49,7.83.74,11.73.74.09,1.48.18,2.22.27,1.25-4.88,2.5-9.76,4.05-15.79-3.33,1.8-5.17,2.79-7.01,3.78ZM273.73,381.15c.76-.11,1.52-.21,2.28-.32.21-3.93.42-7.87.63-11.83-1.98-1.03-3.96-2.07-7.18-3.75,1.62,6.02,2.95,10.96,4.27,15.9ZM270,359.92c-.61-4.58-1.22-9.16-1.99-14.91-5.52,5.93-4.72,12.54,1.99,14.91ZM376.35,375.84c4.6-2.32,6.39-7.91,5.04-13.67-8.16,2.25-3.47,9.06-5.04,13.67ZM262.07,362.27c-1.19,5.76.88,11.72,4.79,13.84,1.82-6.69.15-11.52-4.79-13.84ZM375.26,346.34c-.46,4.61-.91,9.21-1.45,14.64,6.34-3.18,7.19-10.13,1.45-14.64ZM260.18,353.65c1.95-4.15,3.35-8.14-1.3-11.64-3.89,6.12-3.53,9.54,1.3,11.64ZM384.66,341.84c-4.48,4.04-3.36,7.97-1.07,12.13,4.65-2.88,4.89-5.49,1.07-12.13ZM389.58,358.04l-1.74-.59c-4.73,2.28-.71,6.55-2.6,9.48.67.16,1.35.33,2.02.49l2.32-9.38ZM256.03,367.11c.51-.1,1.01-.19,1.51-.29q.73-7.59-3.59-9.89c.81,3.98,1.44,7.08,2.07,10.18Z"/>
    <path class="cls-2" d="M452.19,222.33c-6.28-9.48-4.83-19.67-4.65-30.2-1.33,2.69-2.94,5.28-3.93,8.09-4.39,12.44-4.16,24.49,3.53,35.78,2.15,3.16,4.02,6.54,6.34,9.56,4.38,5.69,4.42,11.67,1.56,17.86-1.92,4.16-4.13,8.18-6.96,12.01-2.14-6.28,4.17-10.87,3.19-17.16-2.73,4.17-5.29,8.06-7.58,11.56.54,3.14,2.6,7.3,1.32,9.15-3.53,5.12-8.06,10.18-15,10.51-5.28.25-10.61-.68-15.93-.82-7.29-.2-14.65-.78-21.87-.09-10.62,1.02-18.25,12.9-15.19,23.62,1.02-4.67,1.09-9.42,7.14-10.41-.68,4.3-1.31,8.3-1.94,12.3l.93.29c.76-1.84,1.53-3.67,2.29-5.51-2.07,7.61,1.5,13.48,5.29,19.45,1.49,2.35,2.02,5.32,2.98,8.01l-1.2.58c-1.71-2.11-3.43-4.22-6.03-7.42,1.12,4.8,1.89,8.1,2.67,11.41l-2.02.73c-2.24-4.83-4.49-9.67-7.03-15.14v17.99c-2-.53-3.07-.81-4.76-1.25,1.25-.8,2.07-1.33,3.2-2.05-1.71-1.06-3.41-2.11-4.73-2.92-.13.67-.49,2.58-.97,5.09-1.47-1.67-2.62-2.98-3.89-4.42-1.83,3.15-3.67,6.31-5.84,10.05-1.32-1.19-2.22-2-3.48-3.13,1.68-.82,2.52-1.23,3.35-1.64-1.11-2.05-2.22-4.1-3.16-5.85-1.93,4.13-4.07,8.71-6.62,14.18-1.51-2.86-2.16-4.8-3.39-6.22-1.23-1.41-3.05-2.3-4.65-3.44.89-.34,2.14-.81,3.93-1.49-2.55-1.54-4.6-2.78-6.32-3.82-1.09,3.92-2.25,8.1-3.56,12.81-8.85-8.35-9.16-8.26-17.38,4.08q-8.83-12.54-17.37-3.97c-1.37-4.78-2.55-8.94-3.7-12.96-1.62,1.04-3.55,2.28-5.98,3.83,1.55.56,2.78,1.01,3.37,1.22-2.45,2.56-5.07,5.31-8.23,8.62-2.01-4.08-4.2-8.56-6.28-12.79-.83,1.62-1.86,3.63-2.98,5.84.56.26,1.4.65,2.64,1.23-.8,1.05-1.54,2.01-2.71,3.53-2.18-3.65-4.09-6.87-6.74-11.33-.51,3.55-.87,6.07-1.23,8.6-.3.02-.6.03-.89.05-.7-2.9-1.4-5.8-2.19-9.03-1.41,1.15-2.84,2.32-4.64,3.79,1.16.6,2.03,1.05,3.51,1.83-1.58.6-2.58.97-4.66,1.76v-18.76c-2.74,6.08-4.94,10.95-7.13,15.82-.72-.23-1.44-.45-2.16-.68.78-3.4,1.55-6.81,2.33-10.21-.19-.13-.38-.26-.57-.4-1.63,2.15-3.27,4.3-5.07,6.67-1.83-3.73.16-6.72,2.1-9.44,4.72-6.65,7.19-13.52,3.87-21.69.58,1.36,1.19,2.7,1.71,4.08.52,1.35.94,2.74,2.58,3.89-.66-3.88-1.32-7.75-2.13-12.51,6.08,1.75,6.8,6.14,6.81,12.17,3.86-11.73-3.76-24.04-14.83-25.06-7.39-.68-14.91-.03-22.37.2-4.65.14-9.29.83-13.94.89-7.77.1-12.46-5.34-16.42-10.78-1.24-1.7.78-5.77,1.35-9.03-2.19-3.36-4.78-7.34-7.51-11.53-1.24,6.28,5.59,10.82,3.92,17.57-10.09-9.46-11.67-21.2-5.05-32.2,3.58-5.96,7.64-11.82,10.01-18.26,4.31-11.76.49-22.7-5.51-33.08.21,10.21,2.25,20.57-3.93,31.19-1.4-2.64-2.79-4.21-3.06-5.96-2.96-19.07-5.75-38.17-8.55-57.27-.08-.57.14-1.18.38-2.93,1.88,2.34,3.12,3.9,4.73,5.9-.32-1.58-.13-3.33-.9-4.04-7.6-7.02-6.14-16.13-5.73-24.84,1.16-24.67,12.24-44.9,28.54-62.77,3.1-3.4,5.93-5.09,10.02-1.84.7.55,1.7.73,3.15.21-1.94-1.59-3.89-3.17-5.84-4.77,50.23-51.31,160.1-54.01,214.54-.14-1.99,1.68-3.96,3.34-6.24,5.26.88.18,1.39.47,1.72.33,7.71-3.26,7.84-3.39,13.4,2.74,19.01,20.93,29.02,45.24,26.86,73.83-.24,3.23-2.31,6.36-3.73,9.45-.83,1.8-2.08,3.42-2.47,5.49,1.48-1.45,2.96-2.9,5.31-5.21-2.31,22.84-4.56,44.45-11.72,65.36ZM259.13,173.02c-2.41-1.68-4.75-4.7-7.2-4.79-11.76-.41-22.62,3.08-32.54,9.42-5.02,3.2-8.32,7.68-9.35,13.56-2.83,16.19-2.36,32.48-1,48.75.36,4.28,1.76,7.87,7.41,6.56.97-.22,2.12.37,3.19.59-1.3.69-2.56.52-3.75.74-1.2.22-2.32.81-3.68,1.32,9.81,10.47,21.55,13.99,35.15,11.9-5.76-1.15-12.2-.09-17.36-5.09,20-.95,39.7-1.26,53.39-18.86l.83.96c-2.88,3.79-5.77,7.58-8.65,11.37.24.27.48.54.72.81,4.83-4.29,9.66-8.58,14.73-13.08-.37,2.26-.69,4.23-1.01,6.2,8.49-9.44,13.98-20.11,16.26-32.44-.3,4.25-.6,8.51-.9,12.76,5.82-14.44,6.52-28.68-2.66-42.22,2.95-.89,4.8-1.44,7.17-2.15-9.02-3.53-17.21-7.75-25.92-9.86-8.62-2.08-17.75-2.03-26.84-2.93.62,1.99,1.35,4.38,2,6.47ZM339.84,181.12c-2.13,7.07-5.48,13.94-5.97,21.01-.49,7.02,1.88,14.24,3,21.38.44-.06.87-.11,1.31-.17-.28-4.14-.56-8.29-.85-12.43,2.27,12.87,8.24,23.78,16.78,33.55-.57-2.51-1.13-5.03-1.7-7.55,5.04,4.53,9.95,8.95,14.86,13.36.26-.29.52-.59.79-.88-2.72-3.52-5.44-7.03-8.16-10.55.32-.31.64-.61.96-.92,13.67,16.86,33.07,17.14,52.24,18.07l.22,1.74c-5.76,1.21-11.52,2.43-16.75,3.53,13.03,2.4,25.85-2.07,34.59-12.62-2.52-.35-4.81-.67-7.09-.99.94-.89,1.94-1.33,2.78-1.13,5.81,1.38,7.15-2.28,7.84-6.76.18-1.15.54-2.3.52-3.45-.26-13.81-.41-27.63-.95-41.44-.25-6.4-2.95-12.06-8.22-15.9-7.79-5.67-16.59-9.05-26.16-10.4-6.17-.87-12.31-1.83-15.39,5.67-.01.03-.52-.14-.7-.19,1.25-3.21,2.49-6.43,3.38-8.73-2.78.82-5.35,2.27-7.88,2.19-11.71-.35-22.86,1.55-33.43,6.7-3.77,1.84-7.6,3.55-11.56,5.39,1.73.47,3.59.98,5.56,1.51ZM335.04,294.03c.24-.16.48-.31.72-.47-1.72-.68-3.44-1.37-5.16-2.05,2.76,4.98,7.46,5.1,12.15,5.31-7.24,2.18-12.94-.92-18.42-5.31,1.23,2.17,2.56,4.09,4.31,5.49,4.46,3.6,14.35,4.03,18.91.7,4.92-3.59,4.34-8.79,2.75-13.64-5.8-17.66-11.79-35.27-17.89-52.83-1.73-4.99-6.39-5.52-10.77-5.5-4.4.02-8.76.79-10.61,5.77-1.79,4.83-3.68,9.63-5.27,14.52-4.41,13.57-9.02,27.09-12.77,40.84-.83,3.04.46,8.15,2.7,10.25,6.73,6.32,19.18,2.94,23.41-5.62-11.34,6.95-13.09,7.41-19.23,4.45,5.82,1.21,10.04.17,13.01-4.3-1.48.5-2.97,1.01-3.38,1.15,3.89-3.96,8.35-8.5,12-12.22,4.42,4.39,8.99,8.93,13.55,13.46ZM427.24,274.05c-.36-.27-.72-.54-1.08-.81-.88,1.72-1.76,3.45-2.64,5.17-.36-.32-.72-.65-1.08-.97-.12-.72-.25-1.45-.14-.85-6.98,0-13.66.46-20.26-.1-10.45-.89-16.22,6.44-23.19,11.92,13.52-5.38,27.27-5.21,41.1-2.34,8.98,1.87,15.82-1.4,21.84-7.74,2.67-2.82,2.26-4.72-.64-6.6-4.8,2.71-9.41,5.32-14.69,8.3.37-2.84.58-4.41.79-5.98ZM264.88,288.45c-7.49-6.15-14.14-13.37-25.43-11.96-5.4.67-11.03-.68-16.57-.93-.74-.03-1.52,1.02-2.55,1.76-1.03-.95-2.33-2.15-4.29-3.97.53,2.6.85,4.16,1.43,7.01-5.62-3.26-10.27-5.95-15.97-9.25-.33,2.2-1.49,4.69-.73,5.66,5.16,6.56,11.64,11.25,20.54,9.58,14.71-2.76,29.23-3.59,43.58,2.1ZM268.27,291.58c1.14,9.46,2.21,18.44,3.33,27.76,9.45-12.52,8.32-22.06-3.33-27.76ZM375.38,291.52c-11.81,5.95-13.02,17-3.35,27.29,1.11-9.08,2.21-18.02,3.35-27.29ZM327,212.93c-1.56,1.25-3.59,4.12-5.44,4-1.89-.12-3.6-3.16-5.1-4.62-.97,2.16-1.91,4.85-3.31,7.26-1.66,2.85-3.72,5.47-5.6,8.19l1.22,1.26c3.23-5.25,7.29-7.36,13.66-7.72,7.25-.41,9.36,4.95,14.03,7.7-3.27-5.55-6.53-11.09-9.46-16.07ZM397.64,266.32c-14.1-3.04-27.25-4.66-36.84-15.24-.23.46-.45.92-.68,1.38,2.83,2.52,5.67,5.05,8.51,7.58-.69.4-1.33.77-2.45,1.42,9.87,4.27,19.32,7.9,31.45,4.86ZM282.39,253.45c-.32-.54-.64-1.08-.96-1.62-8.95,10.83-22.11,11.02-34.9,14.58,11.57,3,20.97-.71,30.98-4.94-1.3-.7-1.92-1.03-2.62-1.4,2.55-2.25,5.03-4.43,7.5-6.61ZM356.69,304.9v-19.77c-.58-.08-1.16-.16-1.75-.24,1.21,7.59.11,14.17-8.08,17.71,4.13.97,7.43,1.74,9.83,2.3ZM288.39,285.51c-.5.09-1.01.18-1.51.27v19c2.71-.56,6.07-1.26,10.14-2.1-8.07-3.38-9.49-9.7-8.62-17.17ZM315.25,336.23c.09,3.32-.45,7.89,4.07,10,1.67.78,5.47.3,6.24-.91,1.77-2.79,2.28-6.38,3.43-10.09-2.85,3.15-4.93,5.45-7,7.76-2.27-2.28-4.54-4.56-6.73-6.77ZM426.88,156.26c-6.12-10.6-15.09-16.37-27.55-16.1,10.74,2.76,20.38,7.35,27.55,16.1ZM217.5,155.29c6.98-8.19,16.39-12.24,26.45-15.2-11.74,0-20.55,5.11-26.45,15.2ZM384.25,150.51v-19.3c-.55.03-1.09.05-1.64.08,3.17,6.27-3.23,13.15,1.64,19.22ZM259.13,150.82c4.9-6.57-1.07-13.18,1.7-19.53-.57-.01-1.13-.03-1.7-.04v19.57Z"/>
    <path class="cls-2" d="M362.14,443.75c-4.74,6.22-11.19,5.4-17.71,4.32-6.88-1.14-13.77-3.2-20.64-3.16-8.06.05-16.19,1.55-24.14,3.12-7.37,1.46-13.56.48-19.53-4.46-10.38-8.58-21-16.92-31.9-24.83-8.26-5.98-11-14.72-13.73-23.67-1.01-3.31-1.75-6.16-5.19-8.59-5.81-4.1-7.73-10.95-7.93-18.71-3.49,8.46-1.74,14.07,8.37,28.45-8.32-4.71-13.67-17.26-11.92-26.25,2.02-10.41,3.39-20.94,5-31.43,1.32-8.61-3.94-14.82-8-21.44-.96-1.56-2.08-3.02-2.97-4.62-4.16-7.52-1.79-12.32,6.83-13.72,1.89-.31,3.85-.21,6.73-.35-2.04,3.14-3.55,5.46-5.54,8.52,2.27-.65,3.86-1.1,5.89-1.68-.83,1.61-1.49,2.88-2.03,3.93,2.47.18,5.29-.36,7.15.73,1.78,1.05,2.57,3.8,3.05,6.25-1.08-.97-2.16-1.93-3.43-3.06-5.03,14.36,4.26,49.44,15.47,59.6.28-.74.55-1.44.88-2.31,1.78,3.23,3.52,6.37,5.25,9.51.69-.13,1.39-.25,2.08-.38-.17-2.16.52-5.05-.62-6.36-17.08-19.6-18.26-41.58-10.52-65.15.84-2.57.58-5.5.79-7.83,3.38,1.95,4.56,5.94,2.07,10.39-9.22,16.46-6.78,41.21,5.32,56.22,2.46,3.05,4.18,6.68,6.2,9.97.33-.53,1.39-2.2,3.08-4.88,2.03,4.96,3.74,9.12,5.51,13.43.94-1.98,1.89-3.98,3.32-6.99,1.51,5.63,2.73,10.19,4,14.94,1.4-3.7,2.71-7.17,4.51-11.94,3.21,5.81,5.66,10.23,8.07,14.58,1.45-2.91,3.05-6.13,4.73-9.51,2.74,3.25,5.32,6.31,7.63,9.04.22-.06-.55.14-1.45.37,1.47,1.69,2.81,3.26,4.21,4.87,1.52-3.46,3.09-7,4.77-10.81,8.83,9.23,10.42,8.91,15.61-2.05,2.22,2.68,4.12,7.09,6.97,7.82,2.57.66,6.17-2.71,9.96-4.64,1.14,2.66,2.67,6.22,4.17,9.69,1.27-1.44,2.64-3,4.19-4.76-.45-.18-1.15-.46-1.11-.44,2.21-2.85,4.55-5.86,7.21-9.3,1.63,3.23,3.23,6.4,5.1,10.09.83-1.88,1.51-3.42,2.18-4.95-.3-.08-.6-.17-.9-.25,2.04-2.66,4.08-5.33,6.83-8.91,1.48,3.93,2.8,7.42,4.12,10.92,1.33-4.28,2.74-8.83,4.41-14.23,1.21,2.66,2.17,4.78,3.05,6.7,1.68-4.22,3.37-8.49,5.42-13.67,1.67,2.65,2.73,4.34,3.17,5.05,1.81-3.06,3.2-6.84,5.76-9.51,8.74-9.13,10.82-20.48,11.12-32.26.22-8.75.28-17.61-5.57-25.32-2.59-3.42-1.35-6.39,1.95-9.32.31,2.23.32,4.91,1.08,7.35,4.47,14.39,7.34,28.98,1.68,43.54-2.79,7.17-6.9,13.98-11.35,20.29-2.47,3.5-2.87,5.56.61,8.53,1.69-3.22,3.29-6.27,5.12-9.75.32.99.56,1.73.81,2.49,13.57-11.07,17.25-37.76,16.26-60.14-1.76,1.64-3.01,2.8-4.05,3.76.48-6.81,2.99-8.64,10.49-6.94-.74-1.48-1.39-2.76-2.32-4.63,2.03.77,3.48,1.32,6.24,2.37-2.24-3.4-3.79-5.76-5.35-8.11.16-.49.32-.99.48-1.48,3.78,1.02,7.73,1.64,11.3,3.16,3.58,1.52,4.71,4.75,2.76,8.32-2.54,4.66-5.21,9.28-8.14,13.7-2.86,4.31-4.79,8.81-4.11,14.03,1.34,10.35,2,20.89,4.53,30.95,2.08,8.24.36,14.68-4.52,20.9-2.18,2.78-4.47,5.48-7.23,7.92,7.1-8.43,12.87-17.14,9.19-28.25-1.33,3.99-2.33,8.69-4.46,12.8-1.35,2.61-4.42,4.3-6.62,6.5-.64.64-1.1,1.55-1.38,2.43-.65,2.06-1.18,4.17-1.7,6.27-2.76,11.15-8.7,19.72-18.64,26.04-7.97,5.06-15.01,11.56-22.5,17.38-1.82,1.41-3.76,2.65-5.65,3.97,3.13-2.57,6.25-5.14,9.38-7.7-.48-.55-.96-1.11-1.43-1.66-1.2.47-2.41.94-3.61,1.42-.18-.33-.37-.66-.55-.99,9.5-5.92,19-11.83,28.5-17.75l-.38-.68c-3.53,1.59-7.05,3.19-10.58,4.78,2.8-2.39,6.11-3.92,8.93-6.09,2.81-2.17,5.12-4.99,7.65-7.53-5.71,2.41-10.5,5.63-15.64,8.13-5.97,2.9-12.39,4.86-18.32,7.83-3.47,1.73-7.34,4-9.29,7.12-3.82,6.1-9.11,9.39-15.36,12.32,3.9-1.15,7.79-2.3,11.69-3.45.12.18.24.35.36.53-1,.53-2,1.06-2.99,1.6.23.32.46.64.69.96,1.78-.49,3.56-.98,5.33-1.47.19.28.38.56.57.84-1.46.95-2.93,1.89-4.39,2.84.27.43.54.86.81,1.29,2.94-.83,5.88-1.66,8.82-2.5ZM248.59,416l-.33.67c9.5,5.86,19.01,11.71,28.51,17.57-.22.37-.44.75-.65,1.12-1.18-.58-2.37-1.15-3.55-1.73,5.1,5.33,9.02,12.43,18.98,12.2-2.05-1.89-3.26-3.01-5.07-4.69,2.64.64,4.39,1.06,6.14,1.48.4-.55.8-1.1,1.21-1.65-1.03-.55-2.06-1.1-3.09-1.65,0,.14-.01.28-.02.43,4,1.09,8,2.18,11.57,3.16-4.12-2.68-9.78-4.52-12.29-8.4-4.54-7.02-10.81-10.39-18.01-13.36-10.04-4.15-20.81-7.13-28.47-15.86.36,1.47.69,3.08,1.68,3.9,5.49,4.56,11.15,8.92,15.87,12.65-3.41-1.6-7.94-3.72-12.46-5.84ZM333.26,441.99c-8.3-6.38-16.32-6.22-23.63,0h23.63ZM315.15,404.27c2.36-1.14,4.67-3.18,6.83-3.04,2.35.15,4.57,2.32,6.7,3.53-.11-4.79-2.06-6.38-7.96-5.82-3.32.32-6.76.82-5.58,5.33Z"/>
    <path class="cls-2" d="M338.01,360.59c.09,8.41-7.06,13.39-12.84,10.98-.78-.33-1.68-1.83-1.55-2.62,1.1-6.35,2.23-12.7,3.85-18.93.4-1.55,2.62-3.65,3.99-3.64,1.32,0,3.24,2.2,3.81,3.82,1.41,4.03,2.21,8.27,2.74,10.39Z"/>
    <path class="cls-2" d="M320.3,367.19c.31,3.63-1.02,4.81-4.68,4.56-8.27-.56-11.04-3.68-9.72-11.83.47-2.93.9-5.96,2.01-8.67.8-1.95,2.69-3.46,4.09-5.16,1.61,1.7,4.05,3.14,4.68,5.15,1.63,5.18,2.47,10.62,3.62,15.95Z"/>
    <path class="cls-2" d="M296.66,347.13c4.52,3.94,7.5,14.78,5.28,20.06-.39.92-2.15,2.11-2.87,1.88-2.04-.65-4.59-1.49-5.66-3.1-3.02-4.57-.98-14.74,3.25-18.84Z"/>
    <path class="cls-2" d="M346.42,346.82c4.71,4.03,6.82,15.69,3.4,19.83-1.23,1.49-3.97,2.27-6.03,2.28-.84,0-2.24-2.83-2.44-4.49-.79-6.51.99-12.38,5.07-17.62Z"/>
    <path class="cls-2" d="M323.7,377.64c5.21-1.13,9.07-1.96,12.92-2.79,1.6,5.69-1.12,13.94-5.89,16.78-.82.49-3.71-.56-4-1.45-1.32-4-2.05-8.2-3.04-12.54Z"/>
    <path class="cls-2" d="M306.98,374.85c3.83.84,7.67,1.68,12.76,2.8-.9,4.17-1.61,8.46-2.89,12.57-.26.85-3.15,1.87-3.99,1.38-4.69-2.76-7.41-10.97-5.88-16.75Z"/>
    <path class="cls-2" d="M292.68,371.72c3.28,1.41,7.78,2.48,7.76,3.48-.07,4.69,5.69,8.69,1.75,13.5-.7.85-3.68,1.23-4.11.67-3.68-4.75-6.43-9.96-5.4-17.65Z"/>
    <path class="cls-2" d="M342.33,391.39c-.7-2.79-2.47-5.69-1.7-7.54,1.92-4.6.51-12.81,9.84-10.81,1.75,5.8-1.44,14.01-8.14,18.35Z"/>
    <path class="cls-2" d="M283.69,349.5c4.59,5.21,5.78,11.22,5.18,19.32-2.93-1.25-6.01-1.69-7.67-3.46-2.74-2.92-1.11-11.87,2.49-15.85Z"/>
    <path class="cls-2" d="M359.86,349.33c3.65,4.22,5.34,12.55,2.75,15.71-1.57,1.91-4.73,2.51-7.63,3.92-1.35-8.08.57-13.92,4.88-19.62Z"/>
    <path class="cls-2" d="M363.15,370.98c.27,6.18-1.52,11.33-6.05,15.89-5.97-4.6.17-9.84-2.18-14.5,3.08-.52,5.45-.92,8.22-1.4Z"/>
    <path class="cls-2" d="M280.37,370.93c2.69.47,4.92.85,7.93,1.37-2.13,4.57,4.19,9.68-1.77,14.7-4.49-4.65-6.43-9.81-6.16-16.07Z"/>
    <path class="cls-2" d="M276.07,348.6c.68,5.06,1.37,10.11,2.05,15.17-.55.35-1.11.71-1.66,1.06-1.43-1.34-3.49-2.42-4.18-4.07-1.83-4.39-.86-8.57,1.91-12.24l1.89.07Z"/>
    <path class="cls-2" d="M365.61,363.98c.61-5.13,1.21-10.25,1.92-16.26,4.75,3.29,5.02,7.14,4.35,10.78-.43,2.32-2.36,4.36-3.62,6.53-.88-.35-1.76-.69-2.65-1.04Z"/>
    <path class="cls-2" d="M366.96,369.06c1.84-.99,3.68-1.99,7.01-3.78-1.55,6.03-2.8,10.91-4.05,15.79-.74-.09-1.48-.18-2.22-.27-.25-3.9-.49-7.81-.74-11.73Z"/>
    <path class="cls-2" d="M273.73,381.15c-1.33-4.94-2.66-9.88-4.27-15.9,3.22,1.68,5.2,2.71,7.18,3.75-.21,3.96-.42,7.9-.63,11.83-.76.11-1.52.21-2.28.32Z"/>
    <path class="cls-2" d="M270,359.92c-6.71-2.38-7.51-8.99-1.99-14.91.77,5.76,1.38,10.34,1.99,14.91Z"/>
    <path class="cls-2" d="M376.35,375.84c1.57-4.61-3.12-11.42,5.04-13.67,1.35,5.76-.43,11.35-5.04,13.67Z"/>
    <path class="cls-2" d="M262.07,362.27c4.93,2.32,6.61,7.15,4.79,13.84-3.91-2.11-5.98-8.08-4.79-13.84Z"/>
    <path class="cls-2" d="M375.26,346.34c5.74,4.51,4.89,11.46-1.45,14.64.54-5.42,1-10.03,1.45-14.64Z"/>
    <path class="cls-2" d="M260.18,353.65c-4.83-2.1-5.19-5.51-1.3-11.64,4.65,3.5,3.25,7.49,1.3,11.64Z"/>
    <path class="cls-2" d="M384.66,341.84c3.82,6.64,3.58,9.25-1.07,12.13-2.29-4.16-3.41-8.09,1.07-12.13Z"/>
    <path class="cls-2" d="M389.58,358.04l-2.32,9.38c-.67-.16-1.35-.33-2.02-.49,1.89-2.93-2.13-7.2,2.6-9.48l1.74.59Z"/>
    <path class="cls-2" d="M256.03,367.11c-.63-3.1-1.26-6.2-2.07-10.18q4.32,2.3,3.59,9.89c-.51.1-1.01.19-1.51.29Z"/>
    <path class="cls-1" d="M259.13,173.02c-.64-2.09-1.38-4.48-2-6.47,9.08.9,18.22.85,26.84,2.93,8.71,2.1,16.9,6.33,25.92,9.86-2.37.71-4.22,1.27-7.17,2.15,9.18,13.55,8.48,27.79,2.66,42.22.3-4.25.6-8.51.9-12.76-2.28,12.33-7.77,23-16.26,32.44.32-1.97.64-3.94,1.01-6.2-5.07,4.5-9.9,8.79-14.73,13.08-.24-.27-.48-.54-.72-.81,2.88-3.79,5.77-7.58,8.65-11.37l-.83-.96c-13.7,17.6-33.39,17.91-53.39,18.86,5.16,5,11.6,3.94,17.36,5.09-13.61,2.09-25.34-1.44-35.15-11.9,1.36-.5,2.49-1.1,3.68-1.32,1.19-.21,2.44-.05,3.75-.74-1.07-.22-2.22-.81-3.19-.59-5.65,1.3-7.05-2.29-7.41-6.56-1.36-16.28-1.83-32.56,1-48.75,1.03-5.89,4.33-10.36,9.35-13.56,9.92-6.33,20.79-9.83,32.54-9.42,2.45.09,4.79,3.11,7.2,4.79Z"/>
    <path class="cls-1" d="M339.84,181.12c-1.97-.53-3.83-1.04-5.56-1.51,3.96-1.84,7.79-3.56,11.56-5.39,10.57-5.15,21.73-7.05,33.43-6.7,2.52.08,5.09-1.38,7.88-2.19-.89,2.3-2.14,5.52-3.38,8.73.18.05.69.23.7.19,3.08-7.5,9.22-6.54,15.39-5.67,9.57,1.35,18.37,4.72,26.16,10.4,5.28,3.84,7.97,9.5,8.22,15.9.55,13.8.69,27.62.95,41.44.02,1.14-.34,2.3-.52,3.45-.68,4.48-2.03,8.13-7.84,6.76-.84-.2-1.84.25-2.78,1.13,2.28.32,4.56.64,7.09.99-8.74,10.55-21.56,15.03-34.59,12.62,5.23-1.1,10.99-2.32,16.75-3.53l-.22-1.74c-19.18-.94-38.58-1.21-52.24-18.07-.32.31-.64.61-.96.92,2.72,3.52,5.44,7.03,8.16,10.55-.26.29-.52.59-.79.88-4.91-4.42-9.82-8.83-14.86-13.36.57,2.52,1.13,5.04,1.7,7.55-8.54-9.77-14.51-20.68-16.78-33.55.28,4.14.56,8.29.85,12.43-.44.06-.87.11-1.31.17-1.12-7.13-3.49-14.36-3-21.38.5-7.07,3.84-13.93,5.97-21.01Z"/>
    <path class="cls-1" d="M335.04,294.03c-4.56-4.53-9.13-9.07-13.55-13.46-3.65,3.72-8.11,8.26-12,12.22.41-.14,1.9-.64,3.38-1.15-2.97,4.48-7.19,5.51-13.01,4.3,6.14,2.96,7.89,2.49,19.23-4.45-4.22,8.56-16.67,11.94-23.41,5.62-2.24-2.1-3.53-7.21-2.7-10.25,3.75-13.75,8.36-27.27,12.77-40.84,1.59-4.89,3.48-9.69,5.27-14.52,1.85-4.98,6.21-5.75,10.61-5.77,4.38-.02,9.04.51,10.77,5.5,6.09,17.56,12.08,35.17,17.89,52.83,1.59,4.85,2.17,10.04-2.75,13.64-4.56,3.33-14.45,2.9-18.91-.7-1.74-1.41-3.07-3.32-4.31-5.49,5.48,4.39,11.19,7.49,18.42,5.31-4.68-.22-9.39-.33-12.15-5.31,1.72.68,3.44,1.37,5.16,2.05-.24.16-.48.31-.72.47Z"/>
    <path class="cls-1" d="M427.24,274.05c-.21,1.57-.41,3.14-.79,5.98,5.28-2.98,9.89-5.59,14.69-8.3,2.9,1.88,3.32,3.78.64,6.6-6.02,6.34-12.86,9.61-21.84,7.74-13.83-2.88-27.58-3.05-41.1,2.34,6.97-5.49,12.74-12.81,23.19-11.92,6.59.56,13.27.1,20.26.1-.1-.6.02.13.14.85.36.32.72.65,1.08.97.88-1.72,1.76-3.45,2.64-5.17.36.27.72.54,1.08.81Z"/>
    <path class="cls-1" d="M264.88,288.45c-14.35-5.69-28.87-4.86-43.58-2.1-8.89,1.67-15.38-3.02-20.54-9.58-.76-.97.4-3.46.73-5.66,5.69,3.3,10.34,5.99,15.97,9.25-.58-2.85-.9-4.41-1.43-7.01,1.96,1.81,3.26,3.02,4.29,3.97,1.03-.74,1.82-1.79,2.55-1.76,5.54.25,11.17,1.6,16.57.93,11.3-1.41,17.95,5.81,25.43,11.96Z"/>
    <path class="cls-1" d="M268.27,291.58c11.66,5.69,12.78,15.23,3.33,27.76-1.12-9.32-2.2-18.3-3.33-27.76Z"/>
    <path class="cls-1" d="M375.38,291.52c-1.14,9.28-2.23,18.22-3.35,27.29-9.67-10.29-8.46-21.34,3.35-27.29Z"/>
    <path class="cls-1" d="M327,212.93c2.93,4.97,6.19,10.52,9.46,16.07-4.67-2.75-6.79-8.11-14.03-7.7-6.37.36-10.44,2.47-13.66,7.72l-1.22-1.26c1.89-2.72,3.95-5.34,5.6-8.19,1.4-2.41,2.34-5.1,3.31-7.26,1.49,1.47,3.21,4.51,5.1,4.62,1.85.11,3.88-2.76,5.44-4Z"/>
    <path class="cls-1" d="M397.64,266.32c-12.13,3.04-21.58-.59-31.45-4.86,1.11-.65,1.76-1.02,2.45-1.42-2.85-2.54-5.68-5.06-8.51-7.58.23-.46.45-.92.68-1.38,9.59,10.58,22.74,12.2,36.84,15.24Z"/>
    <path class="cls-1" d="M282.39,253.45c-2.47,2.18-4.94,4.36-7.5,6.61.7.37,1.32.7,2.62,1.4-10.01,4.23-19.41,7.94-30.98,4.94,12.79-3.56,25.95-3.75,34.9-14.58.32.54.64,1.08.96,1.62Z"/>
    <path class="cls-1" d="M356.69,304.9c-2.4-.56-5.7-1.33-9.83-2.3,8.19-3.54,9.29-10.12,8.08-17.71.58.08,1.16.16,1.75.24v19.77Z"/>
    <path class="cls-1" d="M288.39,285.51c-.87,7.47.55,13.79,8.62,17.17-4.07.84-7.43,1.54-10.14,2.1v-19c.5-.09,1.01-.18,1.51-.27Z"/>
    <path class="cls-1" d="M315.25,336.23c2.19,2.2,4.46,4.48,6.73,6.77,2.08-2.3,4.16-4.6,7-7.76-1.16,3.71-1.66,7.3-3.43,10.09-.77,1.21-4.56,1.69-6.24.91-4.52-2.12-3.98-6.68-4.07-10Z"/>
    <path class="cls-1" d="M426.88,156.26c-7.17-8.76-16.81-13.34-27.55-16.1,12.47-.27,21.43,5.51,27.55,16.1Z"/>
    <path class="cls-1" d="M217.5,155.29c5.9-10.09,14.71-15.2,26.45-15.2-10.06,2.96-19.47,7.02-26.45,15.2Z"/>
    <path class="cls-1" d="M384.25,150.51c-4.87-6.07,1.53-12.95-1.64-19.22.55-.03,1.09-.05,1.64-.08v19.3Z"/>
    <path class="cls-1" d="M259.13,150.82v-19.57c.57.01,1.13.03,1.7.04-2.77,6.35,3.2,12.96-1.7,19.53Z"/>
    <path class="cls-1" d="M248.59,416c4.53,2.12,9.05,4.24,12.46,5.84-4.72-3.73-10.37-8.1-15.87-12.65-.99-.82-1.32-2.43-1.68-3.9,7.66,8.73,18.43,11.71,28.47,15.86,7.19,2.97,13.46,6.34,18.01,13.36,2.51,3.88,8.17,5.72,12.29,8.4-3.57-.97-7.57-2.07-11.57-3.16,0-.14.01-.28.02-.43,1.03.55,2.06,1.1,3.09,1.65-.4.55-.8,1.1-1.21,1.65-1.75-.42-3.5-.84-6.14-1.48,1.81,1.68,3.03,2.8,5.07,4.69-9.96.23-13.88-6.86-18.98-12.2,1.18.58,2.37,1.15,3.55,1.73.22-.37.44-.75.65-1.12-9.5-5.86-19.01-11.71-28.51-17.57l.33-.67Z"/>
    <path class="cls-1" d="M362.14,443.75c-2.94.83-5.88,1.66-8.82,2.5-.27-.43-.54-.86-.81-1.29,1.46-.95,2.93-1.89,4.39-2.84-.19-.28-.38-.56-.57-.84-1.78.49-3.56.98-5.33,1.47-.23-.32-.46-.64-.69-.96,1-.53,2-1.06,2.99-1.6-.12-.18-.24-.35-.36-.53-3.9,1.15-7.79,2.3-11.69,3.45,6.25-2.93,11.54-6.22,15.36-12.32,1.95-3.12,5.83-5.39,9.29-7.12,5.93-2.96,12.36-4.93,18.32-7.83,5.14-2.5,9.93-5.72,15.64-8.13-2.53,2.54-4.84,5.36-7.65,7.53-2.81,2.17-6.13,3.7-8.93,6.09,3.53-1.59,7.05-3.19,10.58-4.78l.38.68c-9.5,5.92-19,11.83-28.5,17.75.18.33.37.66.55.99,1.2-.47,2.41-.94,3.61-1.42.48.55.96,1.11,1.43,1.66-3.12,2.57-6.25,5.13-9.38,7.7,0,0,.17-.18.17-.18Z"/>
    <path class="cls-1" d="M333.26,441.99h-23.63c7.31-6.22,15.33-6.38,23.63,0Z"/>
    <path class="cls-1" d="M315.15,404.27c-1.18-4.51,2.25-5.01,5.58-5.33,5.9-.56,7.85,1.03,7.96,5.82-2.13-1.21-4.35-3.38-6.7-3.53-2.17-.14-4.47,1.9-6.83,3.04Z"/>
  </g>
</svg>