<?xml version="1.0" encoding="UTF-8"?>
<svg id="_Слой_1" data-name="Слой 1" xmlns="http://www.w3.org/2000/svg" viewBox="0 0 1401.08 1238.17">
  <defs>
    <style>
      .cls-1 {
        fill: #1d1d1b;
      }

      .cls-1, .cls-2 {
        stroke-width: 0px;
      }

      .cls-2 {
        fill: #fff;
      }
    </style>
  </defs>
  <g>
    <g>
      <path class="cls-2" d="M746.91,401.66l-2.32-.32-.27-.78c-3.08-4.18-5.98-6.3-8.62-6.3-3.18,0-6.3,3.08-9.28,9.17l-.22.44-.44-.21c-.16-.07-.35-.13-.53-.19-.51-.17-1.08-.35-1.33-.83-3-5.81-5.45-8.29-8.18-8.29-2.43,0-5.31,1.97-9.33,6.38-.52.56-1.36.69-2.19.82-.07.01-.14.02-.22.03l1.23,2.39-3.07-2.98.36-.1c-1.92-3.69-3-5.24-4.4-5.24s-3.4,1.51-6.11,3.65c-.19.15-.44.23-.73.23-.54,0-1.21-.25-1.91-.52-.39-.15-.79-.3-1.13-.38l-.11-.03-6.49-5.49-3.28,2.93-8.48-1.61.2-.21-12.89-2.03v-.43c0-1.5-.08-3.09-.17-4.78-.2-3.87-.43-8.26.36-12.4,1.11-5.83.6-10-1.58-12.75-2.29-2.9-6.38-4.33-13.25-4.63-1.39-.06-2.84-.09-4.43-.09-3.02,0-6.11.11-9.09.22-2.99.11-6.08.22-9.11.22-2.69,0-5.07-.09-7.28-.27-15.31-1.25-26.51-9.64-33.28-24.94-4.17-9.42-7.96-19.14-11.48-28.28-2.1-5.46.91-15.14,5.86-18.84.35-.26.74-.51,1.25-.78,4.33-2.32,7.68-5.06,10.08-8.31l-1.65.72-.23-.33c-.8-1.13-1.85-2.3-2.86-3.43-2.28-2.54-4.63-5.17-4.61-7.85.15-14.37-3.22-28.29-6.49-41.74-1.51-6.22-3.07-12.66-4.27-19.06-6.05-32.42-2.12-63.92,11.69-93.63,7.39-15.89,20.66-26.56,33.49-36.87l2.9-2.33c35.5-28.68,72.16-42.62,112.07-42.62,2.6,0,5.25.06,7.87.18,38.34,1.78,73.01,16.62,112.4,48.11,42.48,33.97,44.78,80.42,42.04,117.09-.54,7.22-2.53,14.42-4.45,21.39-1.32,4.78-2.69,9.72-3.57,14.63-1.66,9.19-2.78,19.27-3.53,31.73-.43,7.16-3.51,11.3-10.27,13.77,2.06,2.69,4.88,5.15,8.51,7.46,9.87,6.29,11.9,14.62,6.2,25.46-1.46,2.77-2.4,5.91-3.31,8.94-.28.93-.56,1.85-.85,2.77-8.39,26.29-22.92,38.01-47.1,38.01-3.59,0-7.49-.26-11.59-.78l-.86-.11c-2.25-.29-4.57-.59-6.82-.59-.94,0-1.8.05-2.62.15-6.49.82-10.26,2.34-12.23,4.91-1.84,2.4-2.27,5.92-1.46,11.74.59,4.23.44,8.55.29,12.73-.07,1.88-.13,3.66-.13,5.43v.44l-15.06,2.04-2.09.77c-1.01,1.08-1.84,1.58-2.61,1.58-1.19,0-1.82-1.16-2.38-2.19-.3-.56-.61-1.13-.97-1.44l-.16.02c-.38.04-.78.05-1.2.05h-1.17c-.92,0-1.94.03-2.47.49-1.34,1.17-2.33,2.72-3.39,4.37-.45.7-.9,1.41-1.38,2.09l-.38.54-.42-.52c-2.95-3.66-4.76-5.15-6.24-5.15s-3.03,1.63-5.24,5.77l.3.04-.61.73-2.48,2.44,1.25-2.42ZM718.73,295.86c-.15,0-.26.03-.34.08-1.87,1.25-3.11,3.63-4.32,5.92-.36.69-.73,1.38-1.1,2.04-.16.27-.08.79-.02,1.29.06.41.11.84.08,1.25-.08,1.01-.16,2.02-.24,3.03-.97,12.22-1.96,24.85-9.22,35.95-1.36,2.09-1.82,4.31-1.32,6.45.58,2.49,2.46,4.78,5.29,6.44,2.18,1.28,4.23,1.93,6.08,1.93,2.61,0,4.92-1.3,6.85-3.86,1.08-1.43,1.94-3.01,2.95-4.83.49-.9,1.02-1.85,1.61-2.86l.43-.74.43.74c.58.98,1.09,1.9,1.56,2.75.95,1.69,1.76,3.16,2.73,4.49,2.07,2.85,4.54,4.3,7.34,4.3,1.89,0,3.91-.67,5.99-1.99,2.87-1.82,4.67-4.09,5.21-6.57.46-2.11-.02-4.26-1.41-6.38-6.71-10.23-7.86-21.82-8.97-33.04-.19-1.97-.39-3.94-.61-5.9-.38-3.38-2.24-7.31-4.85-10.27,0,0,0,0,0,0-.02,0-.06,0-.13,0-.86,0-2.91.93-4.55,1.69-.96.44-1.86.85-2.56,1.1l-.18.07-.18-.08c-.81-.34-1.73-.84-2.62-1.32-1.5-.81-3.05-1.65-3.92-1.65ZM666.9,225.6c-7,0-13.61,2.47-19.66,7.34-2.66,2.15-6.15,3.27-9.52,4.37-1.69.55-3.43,1.11-5.04,1.79-1.01.43-2.06.83-3.11,1.23-2.81,1.07-5.71,2.17-7.97,3.95-10.95,8.61-13.08,19.05-7.34,36.04,5.58,16.5,10.48,20.44,26.22,21.05,2.22.09,4.44.2,6.66.31l2.41.12c1.43-.07,2.9-.14,4.37-.21,3.12-.15,6.35-.31,9.53-.41,16.24-.55,28.97-8.68,38.92-24.86,1.94-3.15,3.37-8.32,2.35-12.08-2.3-8.49-5.42-15.96-9.27-22.19-5.06-8.19-15.85-16.46-28.56-16.46ZM800.32,301.32c1.68.06,3.28.09,4.76.09,21.95,0,28.92-6.03,33.93-29.34.36-1.69.54-3.4.69-5.46.91-12.38-8.27-24.5-20.91-27.57-6.06-1.48-11.76-3.9-16.47-7.01-6.3-4.16-12.68-6.26-18.96-6.26-7.05,0-13.87,2.65-20.28,7.88-9.29,7.58-13.45,18.13-16.29,27.46-1.88,6.18-1.1,11.5,2.47,16.74,10.7,15.74,23.98,23.42,40.59,23.48,1.3,0,2.6,0,3.9,0h6.56s.02,0,.02,0ZM858.67,203.66c-2.27,3.93-4.62,7.99-5.63,12.25-1,4.23-.14,10.04,2.2,14.79,3.66,7.46,7.68,17.43,6.31,28.45-.7,5.66.13,10.46,2.67,14.68-.07-.4-.15-.8-.22-1.2-.38-2.05-.74-3.98-.63-5.92.97-16.74-1.48-29.12-7.94-40.13-2.22-3.79-.82-10.28-.11-12.9.61-2.26,1.52-4.48,2.39-6.62.68-1.67,1.38-3.37,1.95-5.12-.33.57-.66,1.14-.98,1.71ZM590.07,200.85c.33.65.65,1.3.98,1.94,1.72,3.38,3.49,6.88,4.45,10.56.9,3.44,2.07,9.77-.12,13.54-6.37,10.98-8.77,23.15-7.78,39.46.12,2.02-.21,4.07-.52,6.06-.04.22-.07.45-.11.67,2.31-4.44,3.16-9.71,2.65-15.95-.62-7.47,1.08-15.79,4.42-21.7,6.23-11.01,5.85-20.44-1.23-30.57-.35-.5-.68-1.02-1.01-1.54-.53-.83-1.07-1.69-1.72-2.48Z"/>
      <path class="cls-1" d="M725.12,29.45c2.59,0,5.21.06,7.84.18,43.28,2.01,78.9,21.46,112.11,48,38.39,30.69,45.21,71.82,41.85,116.67-.91,12.11-5.84,23.87-8.02,35.96-1.89,10.47-2.9,21.15-3.54,31.78-.4,6.7-3.03,10.93-10.37,13.48-.44-3.17-1.29-6.01-1.13-8.78.82-14.18-.55-27.7-8.01-40.41-1.85-3.16-1.13-8.56-.06-12.52,1.41-5.22,4.34-10.03,5.34-15.63-2.99,5.84-7.12,11.4-8.58,17.6-1.1,4.66.06,10.7,2.23,15.13,4.43,9.04,7.5,18.22,6.26,28.17-1.43,11.46,3.51,18.74,12.77,24.64,9.95,6.34,11.42,14.54,6.03,24.8-1.92,3.66-2.93,7.82-4.2,11.79-8.29,25.98-22.47,37.66-46.63,37.66-3.62,0-7.45-.26-11.53-.78-2.55-.32-5.17-.7-7.74-.7-.9,0-1.8.05-2.69.16-13.12,1.66-15.66,6.19-14.12,17.22.85,6.04.15,12.29.15,18.09-5.44.74-10.06,1.36-14.68,1.98-.75.28-1.5.55-2.25.83-1,1.09-1.74,1.51-2.33,1.51-1.75,0-2.08-3.73-3.79-3.85l.24.24c-.36.04-.75.05-1.15.05s-.79,0-1.17,0c-1.11,0-2.16.07-2.8.62-1.98,1.72-3.24,4.27-4.85,6.56-2.85-3.54-4.84-5.33-6.63-5.33-1.97,0-3.69,2.19-6.02,6.67-.91-.13-1.81-.25-2.72-.38,0,0-.19-.56-.19-.56-3.2-4.37-6.21-6.56-9.07-6.56-3.42,0-6.64,3.14-9.73,9.45-.56-.26-1.41-.37-1.63-.8-2.97-5.74-5.57-8.56-8.62-8.56-2.7,0-5.74,2.2-9.7,6.54-.56.61-1.81.59-2.78.82-2.14-4.16-3.36-6.06-5.13-6.06-1.47,0-3.33,1.32-6.42,3.76-.11.08-.25.12-.42.12-.74,0-1.99-.65-2.91-.89-2.24-1.9-4.49-3.8-6.73-5.7-1.47,1.31-2.94,2.62-3.42,3.06-2.77-.53-5.05-.96-7.33-1.39l.23-.24c-3.91-.62-7.82-1.23-13.4-2.11,0-5.03-.93-11.26.19-17.09,2.66-13.92-4.11-17.49-15.3-17.98-1.48-.07-2.96-.09-4.45-.09-6.06,0-12.15.44-18.2.44-2.42,0-4.84-.07-7.24-.27-15.79-1.29-26.55-10.38-32.86-24.64-4.11-9.29-7.82-18.77-11.47-28.26-2.08-5.4,1.05-14.8,5.69-18.26.37-.28.78-.52,1.19-.74,11.13-5.95,15.97-14.65,14.88-27.76-.58-7.05.91-15.32,4.36-21.41,6.36-11.23,5.83-20.97-1.26-31.1-1.43-2.04-2.49-4.33-4.79-6.01,2.27,4.95,5.24,9.71,6.59,14.9,1.09,4.18,1.87,9.83-.07,13.17-7.27,12.53-8.69,25.79-7.85,39.74.17,2.87-.58,5.8-.91,8.7-.86.37-1.72.75-2.58,1.12-2.58-3.66-7.41-7.35-7.37-10.99.23-21.08-6.98-40.65-10.77-60.9-6-32.14-2.24-63.44,11.65-93.33,7.88-16.97,22.36-27.81,36.26-39.03,32.81-26.5,69.56-42.5,111.76-42.5M649.53,302.31c4.65-.21,9.29-.46,13.94-.62,18.06-.61,30.37-10.53,39.33-25.09,2.12-3.44,3.42-8.75,2.41-12.47-2.1-7.74-5.12-15.52-9.33-22.32-5.56-9-16.67-16.7-28.99-16.7-6.53,0-13.41,2.17-19.97,7.45-3.91,3.15-9.62,4.04-14.44,6.09-3.8,1.61-8.03,2.76-11.19,5.24-11.28,8.86-13.26,19.56-7.5,36.6,5.63,16.66,10.76,20.77,26.67,21.39,3.02.12,6.04.28,9.06.43M793.69,301.83c2.2,0,4.41,0,6.61,0,1.67.06,3.26.09,4.78.09,22.44,0,29.45-6.59,34.42-29.74.39-1.81.56-3.68.7-5.53.95-12.91-8.67-25.02-21.29-28.09-5.68-1.38-11.45-3.73-16.31-6.94-6.37-4.2-12.85-6.35-19.23-6.35-7.06,0-14.01,2.62-20.6,7.99-8.87,7.23-13.21,17.05-16.46,27.7-1.94,6.35-1.11,11.82,2.53,17.17,9.86,14.51,22.8,23.63,41,23.7,1.28,0,2.57,0,3.85,0M713.62,360.72c2.65,0,5.11-1.23,7.25-4.06,1.64-2.17,2.8-4.69,4.59-7.74,1.73,2.95,2.84,5.25,4.32,7.29,2.19,3.01,4.83,4.5,7.75,4.5,1.98,0,4.08-.69,6.26-2.06,5.41-3.42,7.28-8.58,3.95-13.65-7.8-11.88-7.99-25.38-9.51-38.73-.43-3.74-2.48-7.72-4.98-10.55-.1-.11-.28-.17-.51-.17-1.48,0-5.3,2.1-7.28,2.82-2.19-.92-5.17-3.01-6.73-3.01-.24,0-.45.05-.62.16-2.54,1.71-3.92,5.23-5.58,8.12-.4.69.08,1.83,0,2.75-1.1,13.4-1.61,26.86-9.38,38.74-3.28,5.02-1.33,10.38,4.14,13.59,2.17,1.28,4.31,2,6.33,2M703.23,401.21c.05.09.1.19.15.28l-.26-.26s.08-.02.12-.03M747.68,401.27s.08.01.12.02c0,0-.26.25-.26.25.05-.09.09-.18.14-.27M725.12,28.45c-20.48,0-40.59,3.83-59.77,11.39-17.9,7.05-35.6,17.6-52.62,31.34-.97.78-1.93,1.56-2.9,2.34-12.88,10.35-26.2,21.05-33.63,37.05-13.85,29.81-17.8,61.41-11.72,93.93,1.2,6.42,2.76,12.86,4.27,19.09,3.26,13.43,6.63,27.32,6.48,41.62-.03,2.88,2.39,5.58,4.73,8.19,1,1.12,2.04,2.28,2.82,3.39l.47.67.13-.06c-2.22,2.52-5.09,4.7-8.63,6.59-.53.28-.94.54-1.31.82-5.1,3.81-8.19,13.79-6.03,19.42,3.52,9.15,7.31,18.87,11.49,28.3,6.85,15.48,18.19,23.97,33.7,25.23,2.22.18,4.62.27,7.32.27,3.04,0,6.14-.11,9.13-.22,2.98-.11,6.06-.22,9.07-.22,1.58,0,3.02.03,4.41.09,6.71.3,10.68,1.67,12.88,4.44,2.08,2.63,2.57,6.67,1.48,12.35-.8,4.2-.57,8.62-.37,12.52.09,1.68.17,3.27.17,4.76v.85l.84.13,10.25,1.61,1.28.2-.18.19,1.8.34,3.35.64,3.98.76.48.09.37-.33,1-.89,1.78-1.59,4.95,4.19,1.12.95.18.15.22.06c.31.08.7.23,1.07.37.75.28,1.45.55,2.08.55.41,0,.76-.11,1.04-.33,2.55-2.01,4.59-3.54,5.81-3.54,1.06,0,2.08,1.43,3.66,4.42l-.61.17,1.26,1.22.15.14.14.27.11-.03,4.23,4.11-2.3-4.49c.73-.13,1.49-.33,2.01-.9,3.87-4.24,6.71-6.21,8.96-6.21,2.48,0,4.87,2.47,7.74,8.02.34.66,1.05.89,1.62,1.08.18.06.36.12.48.17l.89.41.43-.88c2.89-5.9,5.86-8.89,8.83-8.89,2.47,0,5.22,2.03,8.18,6.03.23.65.4,1.05,1,1.09l.59.08.68.09-2.36,4.57,4.36-4.29h.09s.11-.2.11-.2l.14-.14-.05-.05.12-.22c2.24-4.3,3.77-6.13,5.13-6.13,1.3,0,3.05,1.48,5.85,4.96l.83,1.03.76-1.08c.49-.7.95-1.42,1.4-2.11,1.03-1.62,2.01-3.15,3.29-4.27.43-.38,1.59-.38,2.14-.38.19,0,.38,0,.58,0,.2,0,.4,0,.6,0,.47,0,.84-.01,1.17-.04.25.3.52.81.71,1.16.59,1.09,1.33,2.45,2.82,2.45.9,0,1.82-.53,2.9-1.65l.45-.17,1.48-.55,12.24-1.65,2.34-.32.87-.12v-.87c0-1.76.06-3.54.13-5.42.15-4.2.31-8.55-.29-12.82-.8-5.68-.39-9.08,1.36-11.37,1.88-2.46,5.55-3.91,11.89-4.72.8-.1,1.64-.15,2.56-.15,2.22,0,4.53.3,6.77.58l.85.11c4.12.52,8.04.78,11.65.78,24.44,0,39.11-11.83,47.58-38.36.29-.92.57-1.85.85-2.78.91-3.01,1.84-6.12,3.28-8.85,5.84-11.11,3.75-19.65-6.37-26.11-3.33-2.13-5.97-4.38-7.95-6.82,6.53-2.57,9.52-6.81,9.95-13.96.75-12.44,1.87-22.5,3.52-31.67.88-4.88,2.24-9.81,3.56-14.58,1.93-6.99,3.93-14.21,4.47-21.48,1.92-25.69.23-46.02-5.31-64.01-6.61-21.44-18.69-38.94-36.91-53.51-18.38-14.7-35.55-25.6-52.48-33.33-19.84-9.06-39.53-13.93-60.2-14.89-2.63-.12-5.28-.18-7.89-.18h0ZM588.02,269.19c.09-.95.13-1.91.07-2.86-.98-16.2,1.4-28.29,7.71-39.18,2.28-3.93,1.09-10.41.17-13.92-.52-2-1.28-3.95-2.14-5.85,5.53,9.13,5.43,17.8-.24,27.82-3.39,5.99-5.11,14.42-4.49,21.99.37,4.5.02,8.48-1.09,12.01h0ZM863.08,270.31c-1.23-3.31-1.55-6.97-1.04-11.1,1.39-11.16-2.67-21.22-6.36-28.74-2.25-4.59-3.12-10.4-2.16-14.46.65-2.72,1.85-5.38,3.24-7.97-.72,1.79-1.43,3.63-1.94,5.51-.73,2.68-2.16,9.33.16,13.28,6.41,10.92,8.84,23.21,7.87,39.85-.07,1.21.04,2.41.22,3.62h0ZM649.53,301.31l-2.31-.12c-2.2-.11-4.48-.23-6.72-.32-15.46-.61-20.28-4.48-25.76-20.71-5.66-16.76-3.58-27.04,7.17-35.49,2.2-1.73,5.06-2.82,7.84-3.87,1.03-.39,2.1-.8,3.13-1.24,1.59-.67,3.32-1.24,5-1.78,3.42-1.11,6.95-2.25,9.68-4.45,5.96-4.8,12.47-7.23,19.34-7.23,12.52,0,23.15,8.15,28.14,16.22,3.82,6.19,6.92,13.61,9.21,22.06.85,3.15-.13,8.17-2.3,11.68-9.85,16.02-22.45,24.07-38.51,24.62-3.19.11-6.43.26-9.57.42-1.45.07-2.89.14-4.34.2h0ZM793.69,300.83c-1.28,0-2.57,0-3.85,0-16.43-.06-29.57-7.66-40.17-23.26-3.48-5.11-4.24-10.3-2.41-16.32,2.82-9.25,6.94-19.72,16.13-27.22,6.32-5.15,13.04-7.77,19.97-7.77,6.18,0,12.46,2.08,18.68,6.18,4.76,3.14,10.51,5.58,16.63,7.07,12.4,3.02,21.42,14.9,20.53,27.05-.15,2.04-.32,3.73-.68,5.39-4.94,23-11.82,28.95-33.44,28.95-1.47,0-3.07-.03-4.74-.09h-3.34s-3.3,0-3.3,0h0ZM718.67,296.36s.03,0,.06,0c.75,0,2.38.88,3.68,1.59.9.49,1.82.99,2.66,1.34l.36.15.37-.13c.72-.26,1.63-.68,2.59-1.12,1.46-.67,3.43-1.57,4.25-1.64,2.47,2.86,4.22,6.6,4.58,9.82.22,1.96.42,3.96.61,5.9,1.12,11.28,2.27,22.94,9.05,33.26,1.31,2,1.77,4.02,1.34,6-.51,2.35-2.23,4.51-4.99,6.25-2,1.27-3.93,1.91-5.72,1.91-2.63,0-4.97-1.38-6.94-4.09-.95-1.31-1.76-2.76-2.7-4.45-.48-.87-.99-1.77-1.57-2.76l-.86-1.47-.86,1.47c-.59,1.02-1.11,1.96-1.61,2.87-.99,1.81-1.85,3.38-2.91,4.77-1.86,2.47-3.97,3.66-6.46,3.66-1.76,0-3.72-.63-5.83-1.86-2.71-1.59-4.51-3.76-5.06-6.12-.47-1.99-.03-4.09,1.25-6.06,7.33-11.2,8.33-23.9,9.3-36.18.08-1.01.16-2.02.24-3.03.04-.47-.03-.94-.08-1.36-.04-.31-.11-.84-.05-.98.38-.67.75-1.37,1.11-2.05,1.18-2.23,2.39-4.54,4.15-5.73,0,0,0,0,0,0h0Z"/>
    </g>
    <g>
      <path class="cls-2" d="M725.84,499.45c-14.25,0-28.41-2.96-42.1-8.8-8.3-3.54-17.07-11.52-23.45-21.33-6.24-9.6-11.23-20.21-16.06-30.47-2.08-4.42-4.23-8.99-6.46-13.41-.62-1.23-1.21-2.49-1.8-3.76-1.45-3.11-2.96-6.34-4.95-9.1-7.07-9.81-9.39-19.84-7.09-30.65.96-4.5,1.62-9.13,2.27-13.6.29-2.04.59-4.07.91-6.09l.07-.45,25.99,1.69-.21.62c-3.68,10.83.19,19.74,4.3,29.17,2.1,4.83,4.28,9.83,5.44,15.2l.05.23-2.72,3.47-2.78,9.21c.12.12.26.24.39.35.51.45,1.03.92,1.24,1.56,1.14,3.45,2.78,5.13,5.01,5.13,1.65,0,3.71-.92,6.14-2.74l.59-.44.19.71c1.01,3.74,2.57,5.56,4.78,5.56,1.4,0,3.07-.7,5.11-2.15l.47-.33,5.17,10.07,5.93-3.74,3.61-2.75,3.32,4.54-.02.02c1.62,1.84,3,2.74,4.24,2.74,2.05,0,4.16-2.42,6.84-7.85l.41-.84.47.81c2.88,5.02,5.08,8.13,7.15,8.13,1.89,0,4.07-2.6,6.75-6.51l.42-.6.41.61c3.11,4.59,5.07,6.46,6.77,6.46,1.88,0,3.88-2.26,7.12-8.07l.46-.83.42.85c2.69,5.42,4.81,7.84,6.87,7.84,1.23,0,2.62-.89,4.22-2.71l-.02-.02,3.16-4.39,3.02,2.11,6.67,4.23,5.2-9.91.44.21c.35.17.72.36,1.1.56,1.46.76,3.11,1.61,4.53,1.61.76,0,3.07,0,3.89-6.16l.13-1,.72.71c2.31,2.31,4.24,3.43,5.89,3.43,2.21,0,3.73-2.03,5.35-4.19.88-1.17,1.79-2.38,2.84-3.26l-3.54-9.58-3.8-4.18.25-.33c.31-.4.69-.79,1.09-1.21.83-.85,1.68-1.73,1.79-2.61.6-4.75,2.57-9.24,4.48-13.59,3.57-8.12,6.94-15.79,2.46-25.36l-.31-.66,27.21-1.84.05.48c.32,2.81.65,5.65.99,8.49.89,7.47,1.81,15.2,2.36,22.88.24,3.27-1.19,6.83-2.45,9.57-5.77,12.5-12.11,25.84-19.38,40.79-1.5,3.09-3.2,6.15-4.83,9.1-1.24,2.25-2.53,4.57-3.72,6.89-11.35,22.09-29.89,34.66-56.68,38.43-4.91.69-9.88,1.04-14.77,1.04Z"/>
      <path class="cls-1" d="M823.82,362.29c1.15,10.27,2.59,20.79,3.35,31.35.22,3.05-1.07,6.43-2.41,9.33-6.31,13.66-12.79,27.25-19.38,40.78-2.64,5.43-5.79,10.61-8.55,15.99-11.82,23-30.86,34.58-56.31,38.17-4.96.7-9.86,1.04-14.7,1.04-14.59,0-28.61-3.09-41.9-8.76-9.18-3.91-17.64-12.55-23.22-21.14-8.9-13.7-15.12-29.14-22.49-43.83-2.19-4.35-3.97-9.02-6.79-12.92-6.63-9.2-9.4-18.99-7.01-30.26,1.39-6.54,2.15-13.21,3.18-19.72,8.25.54,15.82,1.03,24.88,1.62-5.68,16.68,6.34,28.99,9.72,44.64-.24.31-1.44,1.84-2.63,3.36-.96,3.19-1.93,6.39-2.9,9.58.59.64,1.47,1.18,1.72,1.93,1.26,3.82,3.13,5.47,5.48,5.47,1.86,0,4.02-1.03,6.44-2.84,1.17,4.33,3.05,5.93,5.26,5.93,1.66,0,3.52-.91,5.4-2.24,1.76,3.43,3.46,6.74,5.16,10.05,1.99-1.25,3.97-2.5,5.96-3.76l-.25.25c1.23-.94,2.47-1.88,3.93-3,1,1.36,2.01,2.75,3.02,4.13l-.25-.24c1.79,2.12,3.36,3.21,4.87,3.21,2.35,0,4.57-2.63,7.29-8.13,3.23,5.63,5.36,8.38,7.58,8.38,2.02,0,4.1-2.28,7.16-6.73,3,4.42,5.13,6.68,7.19,6.68,2.27,0,4.43-2.74,7.55-8.33,2.73,5.49,4.96,8.12,7.32,8.12,1.52,0,3.08-1.08,4.86-3.19l-.25.25c.89-1.24,1.78-2.48,2.87-3.99,1.33.93,2.71,1.89,4.08,2.85l-.25-.25c1.97,1.25,3.95,2.51,5.92,3.76,1.64-3.12,3.27-6.24,5.23-9.96,1.76.85,3.93,2.22,5.84,2.22s3.7-1.49,4.38-6.6c2.6,2.6,4.61,3.58,6.24,3.58,3.88,0,5.73-5.47,8.78-7.78-1.23-3.34-2.46-6.67-3.69-10.01-1.22-1.35-2.45-2.69-3.59-3.94.94-1.23,2.79-2.54,2.98-4.06,1.66-13.19,13.99-24.09,6.91-39.22,9.14-.62,16.89-1.14,26-1.76M824.71,361.23l-.95.06-16.14,1.09-9.86.67-1.46.1.62,1.32c4.38,9.36,1.05,16.93-2.47,24.94-1.93,4.38-3.92,8.91-4.52,13.73-.09.72-.92,1.57-1.65,2.32-.4.41-.8.83-1.13,1.25l-.51.66.56.62,1.68,1.84,1.78,1.95,1.71,4.63,1.67,4.53c-.98.89-1.82,2.02-2.65,3.11-1.54,2.05-2.99,3.99-4.95,3.99-1.49,0-3.36-1.1-5.54-3.28l-1.43-1.43-.27,2.01c-.76,5.73-2.74,5.73-3.39,5.73-1.29,0-2.89-.83-4.3-1.56-.38-.2-.75-.39-1.11-.56l-.87-.42-.45.86-2.87,5.47-1.85,3.52-2.3-1.46-2.71-1.72-1.2-.76-2.01-1.4-.59-.41-.81-.56-.11.15-2.8-1.77,2.36,2.38-.03.05-2.42,3.36-.45.63.02.02c-1.49,1.69-2.74,2.51-3.81,2.51-1.82,0-3.86-2.4-6.42-7.56l-.84-1.7-.93,1.66c-3.1,5.55-5.03,7.81-6.68,7.81-1.5,0-3.4-1.87-6.36-6.24l-.82-1.21-.83,1.21c-2.24,3.27-4.57,6.29-6.34,6.29s-4-3.15-6.71-7.88l-.93-1.63-.83,1.68c-2.55,5.17-4.58,7.57-6.39,7.57-1.08,0-2.33-.83-3.83-2.54l.02-.02-.99-1.35-1.92-2.63,2.44-2.44-2.9,1.83-.27-.36-.81.62-3.18,2.43-.41.26-3.58,2.26-1.45.92-1.87-3.64-2.79-5.44-.53-1.03-.94.67c-1.92,1.36-3.54,2.05-4.82,2.05-.72,0-2.89,0-4.3-5.19l-.38-1.42-1.18.88c-2.34,1.75-4.3,2.64-5.84,2.64-.73,0-2.96,0-4.53-4.79-.25-.77-.86-1.3-1.39-1.78-.05-.05-.1-.09-.15-.13l.21-.68,2.46-8.13,1.03-1.31,1.49-1.9.29-.37-.1-.46c-1.17-5.42-3.35-10.44-5.47-15.29-4.07-9.34-7.91-18.17-4.28-28.81l.42-1.24-1.3-.08-10.16-.66-14.73-.96-.91-.06-.14.9c-.32,2.02-.62,4.09-.91,6.09-.65,4.47-1.31,9.09-2.27,13.57-2.33,10.96.02,21.12,7.18,31.05,1.97,2.73,3.46,5.92,4.9,9.02.58,1.24,1.18,2.53,1.8,3.77,2.22,4.42,4.37,8.99,6.45,13.41,4.84,10.27,9.84,20.9,16.1,30.52,6.43,9.89,15.28,17.94,23.67,21.52,13.75,5.86,27.98,8.84,42.29,8.84,4.91,0,9.9-.35,14.84-1.05,26.96-3.8,45.63-16.46,57.06-38.7,1.19-2.31,2.47-4.63,3.72-6.88,1.64-2.96,3.33-6.02,4.84-9.13,7.28-14.97,13.62-28.32,19.38-40.8,1.29-2.79,2.74-6.44,2.49-9.82-.56-7.69-1.48-15.42-2.37-22.9-.34-2.85-.68-5.68-.99-8.5l-.11-.95h0Z"/>
    </g>
    <g>
      <path class="cls-2" d="M737.92,421.33c-.54,0-1.1-.01-1.64-.03-.53-.01-1.07-.03-1.59-.03-.21,0-.43,0-.64,0-.24,0-.47,0-.7,0-3.14,0-5.14-.65-6.29-2.04-1.07-1.28-1.36-3.12-.89-5.62.15-.81.17-1.65.2-2.53.02-.76.04-1.54.15-2.32,1.33-9.23,3.78-13.17,8.19-13.17,2.56,0,5.84,1.37,10.34,4.3l.14.09.27.8v.08c.03,1.37.06,2.74.1,4.11.08,2.99.16,6.08.12,9.12-.07,6.34-3.77,7.22-7.76,7.22Z"/>
      <path class="cls-1" d="M734.7,396.1c2.54,0,5.82,1.45,10.07,4.22l.19.56h0c.08,4.41.27,8.81.22,13.22-.06,6.05-3.51,6.72-7.26,6.72-1.08,0-2.18-.06-3.23-.06-.22,0-.43,0-.65,0-.23,0-.46,0-.69,0-4.3,0-7.79-1.2-6.7-7.07.3-1.59.12-3.26.35-4.87,1.25-8.68,3.44-12.75,7.69-12.75M734.7,395.1h0c-5.93,0-7.72,6.88-8.68,13.6-.12.8-.14,1.6-.16,2.37-.02.86-.04,1.68-.19,2.45-.49,2.65-.17,4.63,1,6.03,1.66,1.99,4.6,2.22,6.68,2.22.24,0,.48,0,.72,0,.21,0,.41,0,.62,0,.52,0,1.04.01,1.58.03.55.01,1.11.03,1.66.03,4.04,0,8.19-.92,8.26-7.71.03-3.05-.05-6.15-.12-9.15-.04-1.37-.07-2.73-.1-4.1v-.16s-.05-.15-.05-.15l-.19-.56-.11-.33-.29-.19c-4.58-2.99-7.96-4.39-10.62-4.39h0Z"/>
    </g>
    <g>
      <path class="cls-2" d="M715.37,420.99c-2.3,0-4.58-.33-6.6-.95-1.68-.52-2.54-2.93-3.45-5.48-.37-1.04-.76-2.11-1.18-2.97l-.07-.13.02-.15c1.26-10.08,4.89-15.69,10.49-16.2.24-.02.48-.03.71-.03,5.12,0,8.36,5.14,9.14,14.47.15,1.85.29,9.52-1.99,10.32-2.1.74-4.54,1.13-7.06,1.13Z"/>
      <path class="cls-1" d="M715.28,395.57c4.69,0,7.87,4.73,8.64,14.01.28,3.36-.1,9.26-1.66,9.81-2.1.74-4.5,1.1-6.9,1.1-2.23,0-4.46-.31-6.45-.93-2.09-.65-2.93-5.33-4.33-8.19,1.19-9.53,4.56-15.26,10.04-15.76.22-.02.45-.03.66-.03M715.28,394.57h0c-.25,0-.5.01-.75.03-4.09.37-9.3,3.56-10.94,16.63l-.04.3.13.27c.41.84.79,1.9,1.16,2.92.96,2.67,1.86,5.19,3.78,5.79,2.06.64,4.4.97,6.75.97,2.57,0,5.07-.4,7.23-1.16,3-1.05,2.33-10.73,2.32-10.83-1.08-12.98-6.5-14.92-9.64-14.92h0Z"/>
    </g>
    <g>
      <path class="cls-2" d="M697.51,417.3c-2.97,0-6.44-.59-6.97-5.19-.39-3.4,1.01-7,2.36-10.48.59-1.51,1.2-3.07,1.64-4.58l.17-.58,7.91,4.07v-.48l1.11,1.07,2.45,2.36-2.55-1.31v14.71l-.46.03c-.57.04-1.15.09-1.73.14-1.31.11-2.66.23-3.92.23Z"/>
      <path class="cls-1" d="M695.02,397.19c2.7,1.39,5.4,2.78,8.1,4.17v15.07c-1.88.13-3.83.37-5.61.37-3.32,0-6.02-.84-6.47-4.75-.54-4.74,2.52-9.89,3.99-14.86M703.12,401.24s.25.25.26.25c-.09-.04-.17-.09-.26-.13v-.12M703.38,401.49s0,0,0,0h0M694.4,395.74l-.34,1.16c-.44,1.49-1.04,3.04-1.63,4.54-1.38,3.53-2.8,7.19-2.39,10.72.58,5.05,4.54,5.64,7.47,5.64,1.28,0,2.64-.12,3.96-.23.58-.05,1.15-.1,1.72-.14l.93-.07v-14.36l5.36,2.76-5.36-4.95v-.07l-.15-.08-.15-.15-1.7-1.65v.84l-6.09-3.14-.54-.28-1.08-.55h0Z"/>
    </g>
    <g>
      <path class="cls-2" d="M747.3,401.3l-.11-.12.25-.25.9-1.24v.35c.04-.05.09-.1.14-.16,1.02-1.08,2.08-2.19,3.41-2.79.4-.18.95-.27,1.63-.27.81,0,3.19.22,3.48,1.2.25.87.52,1.74.79,2.62,1.27,4.11,2.57,8.35,2.08,12.38-.2,1.65-2.82,2.69-6.45,4.12-1.68.66-3.59,1.42-5.38,2.3l-.72.36s0-13.42,0-18.49Z"/>
      <path class="cls-1" d="M753.52,397.31c1.32,0,2.87.39,3,.84,1.4,4.87,3.44,10.03,2.85,14.8-.26,2.06-6.25,3.41-11.56,6.04,0-7.54,0-12.62,0-17.7,1.39-1.34,2.64-2.99,4.3-3.75.35-.16.87-.23,1.42-.23M747.8,401.28h0c-.09.1-.17.18-.26.26,0,0,.26-.25.26-.26M753.52,396.31c-.75,0-1.37.11-1.83.32-1.11.51-2.03,1.33-2.88,2.19v-.47l-1.75,2.25-.21.21h0s-.04.04-.04.04v.42c0,5.07,0,10.15,0,17.7v1.61l1.44-.71c1.77-.88,3.67-1.63,5.35-2.29,3.79-1.5,6.52-2.58,6.76-4.52.51-4.13-.81-8.43-2.09-12.58-.27-.88-.54-1.75-.79-2.62-.44-1.54-3.81-1.56-3.96-1.56h0Z"/>
    </g>
    <g>
      <path class="cls-2" d="M758.72,436.67c-.31-.31-.42-.42-.4-.63-.19-.29-.38-.58-.58-.87-.73-1.07-1.48-2.17-1.72-3.42-.14-.71-.31-1.45-.49-2.2-.73-3.13-1.48-6.37-.27-8.6.98-1.8,3.49-2.58,6.39-3.49,1.31-.41,2.66-.83,3.96-1.38l.69-.29v22.85l-6.33-1.74,1.41,2.46-2.67-2.69Z"/>
      <path class="cls-1" d="M765.81,416.55v21.44c-2.8-.77-4.84-1.33-6.87-1.89-.88-1.47-2.12-2.86-2.43-4.44-.69-3.51-2.22-7.87-.81-10.47,1.3-2.39,6.01-2.92,10.1-4.64M758.82,436.06l.12.03c.04.07.09.15.13.22,0,0-.25-.25-.25-.25M766.81,415.04l-1.39.58c-1.27.53-2.61.95-3.91,1.36-3.01.94-5.6,1.75-6.68,3.72-1.31,2.4-.53,5.73.22,8.95.18.77.35,1.49.48,2.19.26,1.34,1.04,2.49,1.8,3.6.17.26.34.5.5.75.04.3.23.52.46.75h0s0,.01,0,.01c.02.02.04.04.06.06l5.35,5.39-2.69-4.71,3.54.97.99.27,1.27.35v-24.26h0Z"/>
    </g>
    <g>
      <path class="cls-2" d="M683.03,415.26c-.83,0-1.87-1-2.28-1.42-.81-.85-1.67-2.1-1.62-3.02.22-4.55.81-9.15,1.39-13.59.21-1.61.42-3.23.61-4.84l.11-.92,7.62,6.45v.24c-.02,1.23,0,2.46.02,3.69.05,3.1.1,6.3-.41,9.38-.31,1.84-3.35,3.69-5.25,4.04h-.04s-.14.02-.14.02Z"/>
      <path class="cls-1" d="M681.62,392.44c2.24,1.9,4.49,3.8,6.73,5.7-.05,4.34.33,8.75-.38,12.99-.26,1.53-2.99,3.29-4.84,3.63-.03,0-.06,0-.09,0-1.02,0-3.47-2.63-3.4-3.92.29-6.15,1.26-12.27,1.99-18.4M680.85,390.47l-.22,1.85c-.19,1.62-.4,3.23-.61,4.85-.58,4.45-1.17,9.06-1.39,13.63-.06,1.33,1.21,2.81,1.76,3.39.69.72,1.7,1.58,2.64,1.58.1,0,.19,0,.27-.02,2.06-.38,5.29-2.3,5.65-4.45.52-3.12.47-6.35.42-9.47-.02-1.21-.04-2.46-.02-3.67v-.47s-.35-.3-.35-.3l-6.73-5.7-1.42-1.2h0Z"/>
    </g>
    <g>
      <path class="cls-2" d="M684.93,438.15v-22.22l.69.29c1.18.49,2.46.89,3.69,1.27,2.76.85,5.36,1.65,6.35,3.46,1.23,2.25.48,5.5-.25,8.65-.17.74-.34,1.47-.47,2.16-.24,1.24-1.01,2.35-1.75,3.41,0,0-.01.02-.02.03l.72-.23-1.44,1.44c-.35.35-.4.4-.6.4,0,0-.47,0-.47,0l-6.44,2.02-.03-.67Z"/>
      <path class="cls-1" d="M685.43,416.68c3.79,1.59,8.5,2.12,9.8,4.5,1.42,2.6-.09,6.96-.77,10.47-.31,1.58-1.58,2.97-2.47,4.43-1.85.58-3.72,1.16-6.56,2.05v-21.46M692.11,436.05s-.25.25-.26.25h0c.04-.07.08-.14.13-.21l.13-.04M684.43,415.18v24.33l1.3-.41,3.41-1.07,2.32-.73h.4c.42,0,.59-.17.96-.55l2.88-2.88-1.31.41c.47-.76.88-1.56,1.05-2.44.13-.68.3-1.39.47-2.14.75-3.24,1.52-6.59.2-9-1.09-1.99-3.79-2.82-6.65-3.7-1.22-.38-2.49-.77-3.65-1.25l-1.39-.58h0Z"/>
    </g>
    <g>
      <path class="cls-2" d="M698.36,437.71h-.04s0-.04,0-.04c-.24-.24-.33-.38-.22-.65l.12-.29h.04s-1.24-18.46-1.24-18.46l.73.27c1.76.66,3.65,1.21,5.32,1.7,3.81,1.12,6.33,1.85,6.52,3.29.45,3.59-.55,7.94-3.05,13.29-.37.79-1.57.95-3.26.95-.61,0-1.27-.02-1.92-.05-.65-.02-1.29-.05-1.89-.05-.05,0-.09,0-.14,0l.07,1.02s-1-.96-1.03-.99Z"/>
      <path class="cls-1" d="M697.57,419c5.21,1.96,11.31,2.9,11.52,4.59.53,4.21-1.12,8.99-3.01,13.02-.25.54-1.4.67-2.81.67-1.21,0-2.6-.09-3.81-.09-.23,0-.46,0-.67.01-.36-5.34-.72-10.72-1.22-18.19M698.79,437.19c0,.08.01.17.02.25,0,0-.25-.24-.25-.24h0c.07,0,.15,0,.23-.01M696.46,417.52l.1,1.55,1.18,17.53-.08.16c-.24.48-.07.83.17,1.11l.02.32h.29s1.83,1.77,1.83,1.77l-.12-1.78c.47,0,.97.02,1.47.04.65.02,1.32.05,1.94.05,1.52,0,3.18-.1,3.72-1.24,2.54-5.45,3.55-9.88,3.09-13.57-.22-1.76-2.87-2.54-6.87-3.71-1.66-.49-3.55-1.04-5.29-1.69l-1.45-.55h0Z"/>
    </g>
    <g>
      <path class="cls-2" d="M751.6,437.69c-.07,0-.14,0-.2,0-.58,0-1.19.02-1.81.04-.63.02-1.26.04-1.84.04-1.72,0-2.94-.16-3.32-.96-2.5-5.35-3.5-9.7-3.06-13.29.18-1.43,2.7-2.17,6.52-3.28,1.67-.49,3.57-1.04,5.32-1.7l.73-.27s-.91,13.28-1.26,18.46l.87.05-.93.91v.03s-.03,0-.03,0l-1.04,1.04.07-1.07Z"/>
      <path class="cls-1" d="M753.37,419c-.51,7.47-.88,12.85-1.24,18.19-.23,0-.48-.01-.74-.01-1.16,0-2.5.08-3.66.08-1.43,0-2.61-.12-2.86-.67-1.89-4.03-3.54-8.8-3.02-13.01.21-1.68,6.31-2.63,11.51-4.57M752.13,437.2c.08,0,.16,0,.24.01,0,0-.25.25-.26.25,0-.09.01-.18.02-.26M754.48,417.52l-1.45.54c-1.74.65-3.62,1.2-5.28,1.69-4.01,1.17-6.65,1.94-6.87,3.7-.46,3.69.56,8.12,3.1,13.56.54,1.15,2.23,1.25,3.77,1.25.59,0,1.23-.02,1.86-.04.5-.02.99-.03,1.46-.04l-.14,2.1,1.85-2.06h.29s.02-.31.02-.31l1.6-1.56-1.49-.09c.34-5.02.69-10.19,1.17-17.19l.11-1.55h0Z"/>
    </g>
    <g>
      <path class="cls-2" d="M766.85,415.27c-1.61,0-4.37-.79-4.74-6.09-.72-10.33,1.03-14.32,7.44-16.72l-.13-1.35s1,1.02,1.01,1.03l.09-.03v.14c.2.19.21.2.24.29l.19.49-.33.11c.14,1.32.29,2.64.45,3.96.46,3.87.94,7.87.88,11.81-.03,2.25-2.3,6.02-4.22,6.31-.31.05-.6.07-.88.07Z"/>
      <path class="cls-1" d="M770.05,392.47s.24.24.24.25c-.07.02-.14.05-.21.07-.01-.11-.02-.21-.03-.32M770.09,392.79c.54,5.37,1.45,10.74,1.37,16.1-.03,2.06-2.21,5.58-3.8,5.82-.28.04-.55.06-.81.06-2.57,0-3.99-2.03-4.24-5.63-.69-9.89.77-13.96,7.48-16.35M768.78,389.75l.23,2.38c-7.05,2.82-8.04,8.03-7.41,17.09.4,5.71,3.45,6.56,5.24,6.56.31,0,.63-.02.96-.07,2.16-.32,4.61-4.32,4.65-6.79.06-3.98-.42-7.99-.88-11.88-.14-1.17-.28-2.37-.41-3.55l.5-.17-.46-1c-.05-.11-.08-.16-.19-.28l-.06-.6-.39.14-1.78-1.81h0Z"/>
    </g>
    <g>
      <path class="cls-2" d="M718.56,439.46c-1.48,0-2.93-1.07-4.08-3.01-1.29-2.16-1.94-4.72-2.57-7.19-.12-.47-.24-.93-.36-1.39-.52-1.95-.38-3.47.42-4.5.77-1,2.1-1.51,3.96-1.51.28,0,.58.01.89.04,1.53.12,3.06.29,4.84.49.89.1,1.84.21,2.9.32l.54.06-.1.53c-.26,1.42-.47,2.81-.67,4.16-.44,2.99-.85,5.81-1.85,8.42-.87,2.27-2.3,3.57-3.92,3.57Z"/>
      <path class="cls-1" d="M715.94,422.36c.27,0,.55.01.85.03,2.27.17,4.54.47,7.72.81-.85,4.55-1.06,8.75-2.49,12.5-.82,2.16-2.1,3.25-3.45,3.25-1.24,0-2.55-.91-3.66-2.76-1.49-2.5-2.11-5.57-2.88-8.45-.98-3.7.6-5.38,3.9-5.38M715.94,421.36h0c-2.03,0-3.49.57-4.36,1.7-.9,1.17-1.07,2.83-.51,4.93.12.46.24.92.36,1.38.64,2.51,1.3,5.1,2.63,7.32,1.25,2.1,2.85,3.25,4.51,3.25,1.85,0,3.45-1.42,4.39-3.89,1.02-2.67,1.43-5.52,1.87-8.53.2-1.34.4-2.73.66-4.14l.2-1.06-1.07-.11c-1.06-.11-2.01-.22-2.9-.32-1.78-.2-3.32-.38-4.86-.49-.32-.02-.63-.04-.92-.04h0Z"/>
    </g>
    <g>
      <path class="cls-2" d="M730.93,438.79l-.18-.31c-1.75-4.16-3.28-8.3-5.39-14.04l-1.05-2.86,14.88,1.76-.12.54c-.26,1.15-.5,2.3-.74,3.45-.67,3.16-1.35,6.43-2.39,9.55-.44,1.33-4.43,1.92-4.68,1.92h-.33Z"/>
      <path class="cls-1" d="M725.06,422.16c6.16.73,9.84,1.16,13.52,1.6-.98,4.34-1.72,8.75-3.12,12.95-.29.88-3.74,1.58-4.21,1.58-.03,0-.05,0-.05,0-1.96-4.64-3.67-9.39-6.15-16.12M723.56,420.97l.56,1.53.78,2.13c2.11,5.73,3.63,9.87,5.38,14.03.13.3.45.62.97.62.04,0,4.57-.49,5.16-2.26,1.04-3.14,1.73-6.42,2.4-9.6.24-1.15.48-2.3.74-3.45l.24-1.08-1.1-.13-6.24-.74-7.29-.86-1.62-.19h0Z"/>
    </g>
    <g>
      <path class="cls-2" d="M662.01,427.6c-.31,0-.63,0-.95-.03l-.72-.04.28-.66c.53-1.23,1.01-2.47,1.47-3.67,1.24-3.2,2.41-6.21,4.29-8.76.21-.28.56-.42,1.07-.42,1.04,0,2.8.59,4.65,1.21.94.32,1.92.64,2.74.87l.05-.05.09.08s.1.03.14.04l-.02.08.51.48c-.94,1.02-1.69,2.24-2.49,3.54-2.11,3.43-4.49,7.32-11.12,7.32Z"/>
      <path class="cls-1" d="M667.45,414.53c1.55,0,5.19,1.54,7.55,2.13l.25-.26c-3.59,3.88-4.53,10.7-13.24,10.7-.3,0-.61,0-.93-.02,1.91-4.48,3.16-8.88,5.7-12.33.11-.15.35-.22.67-.22M667.45,413.53c-.67,0-1.17.21-1.47.63-1.92,2.6-3.1,5.65-4.35,8.88-.46,1.19-.94,2.43-1.47,3.65l-.56,1.32,1.43.07c.34.02.66.03.98.03,6.9,0,9.37-4.02,11.54-7.56.78-1.28,1.52-2.48,2.43-3.46l-.88-.83.14-.56c-.86-.22-1.94-.58-2.99-.93-1.89-.63-3.68-1.23-4.81-1.23h0Z"/>
    </g>
    <g>
      <path class="cls-2" d="M788.54,427.53c-6.33,0-8.72-3.91-10.83-7.35-.79-1.29-1.54-2.52-2.46-3.54l.52-.49-.02-.08s.09-.02.14-.03l.09-.08.05.05c.83-.21,1.8-.52,2.75-.82,1.78-.57,3.47-1.11,4.57-1.11.58,0,.99.15,1.24.46,1.93,2.39,3.11,5.35,4.36,8.48.49,1.22.99,2.48,1.55,3.74l.29.64-.7.06c-.53.05-1.05.07-1.55.07Z"/>
      <path class="cls-1" d="M783.34,414.58c.4,0,.69.08.85.28,2.63,3.27,3.86,7.66,5.85,12.11-.53.05-1.03.07-1.5.07-8.27,0-9.38-6.79-12.92-10.73l.24.25c2.33-.53,5.8-1.97,7.48-1.97M783.34,413.58c-1.18,0-2.9.55-4.72,1.13-1.04.33-2.11.67-2.98.87l.13.56-.89.83c.89.99,1.63,2.2,2.41,3.47,2.18,3.56,4.65,7.59,11.26,7.59.51,0,1.04-.02,1.59-.07l1.4-.12-.57-1.28c-.56-1.25-1.06-2.5-1.55-3.72-1.26-3.16-2.46-6.15-4.44-8.61-.35-.43-.89-.65-1.63-.65h0Z"/>
    </g>
    <g>
      <path class="cls-2" d="M777.75,430.75c-3.65,0-6.2-.85-7.8-2.6-2.15-2.34-2.11-5.94-1.89-8.45.24-2.79,1.47-4.09,3.86-4.09.75,0,1.54.12,2.31.24.28.04.56.08.83.12l-.2-1.21s1.41,1.5,1.42,1.5l.61.86-.63-.04,2.25,13.66h-.75Z"/>
      <path class="cls-1" d="M771.92,416.11c1.19,0,2.52.32,3.74.42.74,4.51,1.49,9.02,2.26,13.71-.06,0-.11,0-.17,0-8.47,0-9.69-4.76-9.2-10.5.26-2.96,1.65-3.63,3.36-3.63M775.62,416.3s.24.25.25.26c-.07,0-.14,0-.21-.02-.01-.08-.03-.16-.04-.24M774.11,413.29l.34,2.09c-.05,0-.1-.02-.15-.02-.79-.12-1.6-.24-2.38-.24-2.63,0-4.1,1.53-4.36,4.54-.22,2.6-.26,6.34,2.02,8.83,1.7,1.86,4.38,2.76,8.17,2.76h.17s1.17,0,1.17,0l-.19-1.15-2.06-12.47.97.06-1.12-1.68c-.04-.05-.05-.07-.14-.17l-.04-.22-.19-.02-2.22-2.3h0Z"/>
    </g>
    <g>
      <path class="cls-2" d="M672.46,430.76l2.15-13.56-.91.09.93-.97c.36-.38.4-.42.61-.42h.59l-.02.15c.23-.04.46-.07.69-.11.83-.14,1.69-.28,2.5-.28,2.33,0,3.6,1.32,3.86,4.05.24,2.49.31,6.08-1.83,8.44-1.61,1.77-4.18,2.63-7.87,2.63h-.69Z"/>
      <path class="cls-1" d="M679,416.15c1.7,0,3.08.69,3.36,3.59.55,5.7-.65,10.52-9.2,10.52-.04,0-.07,0-.11,0,.74-4.67,1.45-9.15,2.16-13.63,1.24-.14,2.59-.48,3.79-.48M675.25,416.4h0c-.01.08-.03.16-.04.24-.07,0-.14.02-.21.02,0,0,.25-.26.25-.26M679,415.15c-.85,0-1.73.15-2.58.29,0,0,0,0,0,0v-.05s-1.16,0-1.16,0c-.32,0-.5.1-.72.31l-.19.02-.03.2s-.02.02-.03.04l-1.86,1.95,1.6-.16-1.54,9.69-.42,2.66-.18,1.15h1.17s.11,0,.11,0c3.84,0,6.53-.91,8.24-2.79,2.27-2.5,2.21-6.23,1.96-8.82-.29-2.98-1.75-4.5-4.35-4.5h0Z"/>
    </g>
    <g>
      <path class="cls-2" d="M773.31,411.03l2.4-16.58,2.94-1.09.21.38c3.6,6.75,1.25,12.63-1.53,17.49l-.17.29-3.86-.49Z"/>
      <path class="cls-1" d="M778.42,393.98c3.36,6.3,1.48,11.74-1.52,17-1.01-.13-2.01-.26-3.02-.39.76-5.26,1.53-10.52,2.29-15.79.75-.28,1.5-.55,2.25-.83M778.89,392.74l-.82.3-1.75.65-.51.19-.56.21-.09.59-1.19,8.21-1.1,7.58-.15,1.01,1.01.13,1.45.19,1.57.2.66.08.33-.58c2.84-4.98,5.25-11.01,1.54-17.97l-.41-.77h0Z"/>
    </g>
    <g>
      <path class="cls-2" d="M676.23,412.68c-6.19-5.13-5.95-10.64-5.73-15.98.03-.73.06-1.45.08-2.17l-.62-.21s.6-.63.63-.66v-.19s.14.05.14.05c.13-.13.21-.16.36-.16h.5v.46c6.53,2.48,6.08,7.16,5.61,12.11-.19,2.05-.4,4.17-.15,6.3l.14,1.23-.96-.79Z"/>
      <path class="cls-1" d="M671.09,393.86h0c0,.1,0,.21,0,.31-.07-.03-.15-.05-.22-.08,0,0,.22-.24.23-.24M671.09,394.18c9.16,3.26,4.6,10.58,5.46,18.12-6.99-5.79-5.52-12.16-5.46-18.12M670.1,392.76v.69s-1.04,1.09-1.04,1.09l1.01.34c-.02.59-.04,1.18-.07,1.79-.22,5.2-.48,11.1,5.91,16.39l1.91,1.58-.28-2.47c-.24-2.08-.04-4.17.15-6.19.46-4.84.94-9.85-5.61-12.5v-.62s-1,0-1,0c-.18,0-.31.03-.44.1l-.55-.2h0Z"/>
    </g>
    <g>
      <path class="cls-2" d="M795.09,421.77c-.51-.13-1.1-.21-1.68-.29-1.38-.19-2.8-.39-3.63-1.27-1.49-1.58-2.64-3.46-4.11-5.85-.68-1.11-1.44-2.34-2.33-3.7l-.58-.89,9.12,1.04,4.13,11.19-.92-.23Z"/>
      <path class="cls-1" d="M783.77,410.38c3.27.37,5.51.63,7.76.89,1.23,3.34,2.46,6.67,3.69,10.01-1.73-.43-4.04-.32-5.07-1.42-2.13-2.27-3.58-5.18-6.39-9.48M781.76,409.15l1.16,1.78c.89,1.36,1.65,2.6,2.32,3.69,1.48,2.41,2.65,4.31,4.17,5.93.95,1.01,2.46,1.22,3.93,1.42.58.08,1.14.16,1.62.28l1.84.46-.66-1.78-3.69-10.01-.21-.58-.61-.07-3.76-.43-4-.46-2.11-.24h0Z"/>
    </g>
    <g>
      <polygon class="cls-2" points="659.19 411.54 665.89 409.3 667.85 412.38 655.71 423.04 659.19 411.54"/>
      <path class="cls-1" d="M665.67,409.89l1.52,2.39c-3.5,3.08-7,6.15-10.51,9.23.97-3.19,1.93-6.39,2.9-9.58,2.03-.68,4.06-1.36,6.09-2.04M666.1,408.7l-.74.25-6.09,2.04-.49.16-.15.49-2.52,8.34-.37,1.24-1.01,3.35,2.63-2.31,9.75-8.57.75-.66.64-.57-.46-.72-1.52-2.39-.42-.66h0Z"/>
    </g>
  </g>
  <g>
    <polygon class="cls-2" points="515.89 1161.66 515.89 1100.32 535.68 1095.83 535.68 861.81 712.54 861.81 705.27 1095.66 742.4 1095.66 735.19 862.31 912.07 862.31 912.07 1096.31 931.87 1099.03 931.87 1161.66 515.89 1161.66"/>
    <path class="cls-1" d="M712.02,862.31c-2.42,77.74-4.81,154.9-7.27,233.85h38.16c-2.39-77.35-4.78-154.57-7.21-233.35h175.87v233.94c4.62.63,10.64,1.46,19.8,2.72v61.7h-414.97v-60.44c8.1-1.84,14.65-3.33,19.79-4.49v-233.92h175.84M713.05,861.31h-177.87v234.12l-9.21,2.09-9.8,2.22-.78.18v62.24h416.97v-63.57l-.86-.12-18.93-2.6v-234.07h-177.9l.03,1.03,7.18,232.32h-36.1l7.23-232.82.03-1.03h0Z"/>
  </g>
  <g>
    <path class="cls-2" d="M594.7,801.75c-14.46,0-17.84-5.99-19.59-18.56-4.93-35.26-10.63-70.97-16.15-105.5-2.08-13.02-4.16-26.03-6.2-39.03-.66-.11-1.29-.25-1.87-.37-.77-.17-1.44-.31-1.83-.31-.13,0-.17.02-.18.02-9.02,12.6-19.89,18.5-34.14,18.5-8.91,0-18.31-2.21-29.69-5.53-36.03-10.51-71.88-19.62-109.83-29.27-15.42-3.92-31.36-7.97-47.35-12.13l-.77-.2,207.31-241.57.28.84c33.07,99.43,96.02,149.85,187.1,149.85,5.6,0,11.39-.19,17.21-.58,86.18-5.7,144.57-56.08,173.54-149.74l.27-.86,207.74,241.92-35.62,9.36c-32.98,8.66-64.97,17.06-96.96,25.45-3.8,1-7.68,1.96-11.43,2.89-4.39,1.09-8.92,2.21-13.36,3.4-14.25,3.81-22.81,6.09-29.97,6.09-11.34,0-18.57-5.62-37.47-20.6-1.49,9.08-2.96,18.02-4.42,26.88-3.55,21.5-6.9,41.81-10.18,62.48-.63,3.95-1.27,7.89-1.91,11.84-2.62,16.14-5.33,32.83-6.95,49.34-1.25,12.79-7.65,15.29-18.28,15.29h-.27c-53.18-.2-93.78-.29-131.67-.29-46.19,0-87.71.14-126.94.43h-.4Z"/>
    <path class="cls-1" d="M913.01,368.29c69,80.36,136.92,159.44,206.63,240.63-45.55,11.96-88.67,23.3-131.81,34.6-8.25,2.16-16.56,4.09-24.8,6.29-14.09,3.76-22.73,6.08-29.84,6.08-11.29,0-18.68-5.85-37.82-21.02-5.09,31.08-10.04,60.62-14.74,90.2-3.23,20.36-6.86,40.71-8.86,61.2-1.19,12.21-6.86,14.84-17.79,14.84-.09,0-.18,0-.27,0-43.88-.17-87.77-.29-131.65-.29-42.32,0-84.64.12-126.96.43-.13,0-.27,0-.4,0-13.81,0-17.31-5.36-19.1-18.13-6.77-48.46-14.85-96.74-22.41-144.9-1.67-.24-3.31-.75-4.14-.75-.25,0-.43.05-.51.16-9.92,13.81-21.28,18.35-33.81,18.35-9.24,0-19.12-2.47-29.55-5.51-51.08-14.9-102.89-27.27-157.19-41.4,69.31-80.77,137.1-159.76,206.21-240.29,31.51,94.74,92.07,150.19,187.58,150.19,5.63,0,11.37-.19,17.24-.58,90.87-6.01,146.51-61.28,173.98-150.1M912.58,366.27l-.53,1.73c-28.9,93.45-87.14,143.71-173.09,149.39-5.8.38-11.58.58-17.18.58-90.84,0-153.63-50.3-186.63-149.5l-.56-1.68-1.15,1.34-206.21,240.29-1.04,1.22,1.55.4c15.99,4.16,31.94,8.22,47.37,12.14,37.94,9.64,73.77,18.75,109.79,29.26,11.41,3.33,20.85,5.55,29.83,5.55,14.33,0,25.28-5.88,34.44-18.51.37.03.97.16,1.61.3.48.1,1,.22,1.54.32,2.02,12.89,4.12,25.99,6.14,38.66,5.52,34.54,11.23,70.25,16.15,105.5,1.76,12.6,5.35,19,20.09,19h.41c39.24-.29,80.76-.43,126.95-.43,37.88,0,78.48.09,131.65.29h.27c10.92,0,17.5-2.57,18.78-15.74,1.61-16.49,4.32-33.17,6.94-49.3.64-3.95,1.28-7.9,1.91-11.84,3.28-20.65,6.62-40.94,10.17-62.43,1.42-8.6,2.85-17.28,4.29-26.09,18.51,14.66,25.73,20.18,37.11,20.18,7.22,0,15.8-2.29,30.02-6.09l.08-.02c4.43-1.18,8.97-2.31,13.35-3.4,3.75-.93,7.63-1.9,11.44-2.89,31.94-8.37,63.87-16.75,96.77-25.4l35.04-9.2,1.55-.41-1.04-1.21-129.39-150.67-77.24-89.95-1.18-1.37h0Z"/>
  </g>
  <g>
    <path class="cls-2" d="M339.85,982.23c-39.48-23.5-52.41-78.87-28.82-123.42,5.77-10.9,8.89-24.72,8.34-36.98-1.61-36.04-4.22-71.64-6.98-109.32-1.02-13.88-2.07-28.22-3.07-42.67l-.05-.69,175.64,45.28-.09.47c-1.92,9.46-3.92,18.98-5.85,28.18-5.33,25.37-10.36,49.33-14.36,74.01-1.46,9.01,1.29,20.93,6.4,27.74,17.54,23.37,23.72,48.24,19.46,78.26l-.07.51-59.1-10.33-.06-.34c-3.5-19.36-8.72-38.26-30.34-38.26h-.51c-11.14.15-27.98,7.57-32.19,16.56-3.73,7.97-2.49,18.53-1.28,28.74.51,4.29,1.03,8.73,1.18,12.94l7.82.82-35.67,48.75-.39-.23Z"/>
    <path class="cls-1" d="M309.82,669.8c58.86,15.17,115.34,29.73,174.51,44.98-7.03,34.59-14.71,68.23-20.21,102.21-1.45,8.94,1.13,20.97,6.49,28.12,17.27,23.02,23.65,47.67,19.36,77.89-19.98-3.49-38.61-6.75-58.24-10.18-3.39-18.73-8.43-38.67-30.83-38.67-.17,0-.35,0-.52,0-11.43.16-28.4,7.8-32.64,16.84-5.43,11.59-.56,28.01-.13,42.34,2.46.26,4.93.51,7.39.77-11.65,15.93-23.3,31.85-34.89,47.68-39.78-23.68-51.6-79.36-28.63-122.76,5.79-10.93,8.95-24.89,8.39-37.24-2.22-49.61-6.38-99.14-10.04-152M308.72,668.49l.1,1.38c1,14.45,2.05,28.79,3.07,42.67,2.76,37.68,5.36,73.27,6.98,109.31.55,12.18-2.55,25.91-8.28,36.73-11.31,21.37-14.62,46.04-9.31,69.46,5.38,23.72,18.98,43.12,38.31,54.62l.78.47.54-.73,23.71-32.41,11.17-15.27,1.03-1.4-1.73-.18-6.52-.68c-.17-4.1-.68-8.39-1.17-12.54-1.2-10.14-2.44-20.63,1.23-28.47,4.14-8.83,20.75-16.11,31.75-16.26.17,0,.34,0,.51,0,21.23,0,26.38,18.7,29.85,37.85l.12.69.69.12,58.24,10.18,1.02.18.15-1.02c4.28-30.16-1.93-55.15-19.55-78.63-5.03-6.71-7.74-18.47-6.3-27.36,4-24.67,9.03-48.62,14.35-73.98,1.93-9.21,3.93-18.73,5.86-28.19l.19-.93-.92-.24-152.66-39.35-21.85-5.63-1.34-.35h0Z"/>
  </g>
  <g>
    <path class="cls-2" d="M1072.02,934.69l.25-.3c9.95-12.29,21.4-30.49,5.99-46.51-6.87-7.14-20.52-12.52-31.75-12.52-1.03,0-2.03.05-2.99.14-21.86,2.07-25.32,23.93-25.44,36.79v.41s-60.01,10.98-60.01,10.98l-.09-.49c-5.81-30.04-.29-54.39,16.88-74.44,9.75-11.39,12-22.08,8-38.11-5.43-21.77-9.75-43.52-14.33-66.54-1.88-9.44-3.82-19.2-5.85-29.02l-.1-.47,175.98-45.73-1.82,25.77c-1.27,18.05-2.49,35.39-3.73,52.72-.55,7.69-1.18,15.5-1.8,23.06-1.48,18.25-3.01,37.11-3.5,55.69-.28,10.45,2.25,21.35,6.76,29.16,25.94,44.98,15.73,96.3-25.41,127.69l-.4.31-36.63-48.58Z"/>
    <path class="cls-1" d="M1138,669.54c-1.94,27.4-3.7,52.6-5.5,77.8-1.88,26.25-4.6,52.48-5.29,78.77-.26,9.82,1.98,21.02,6.82,29.43,25.39,44.02,16.36,95.27-25.28,127.04-11.75-15.58-23.52-31.19-36.09-47.87,11.74-14.5,20.72-31.83,5.96-47.17-7.22-7.51-21.02-12.68-32.11-12.68-1.04,0-2.05.05-3.04.14-18.77,1.78-25.72,17.99-25.89,37.28-19.86,3.63-39.1,7.15-59.11,10.81-5.57-28.8-.78-53.52,16.77-74.02,10.52-12.29,11.86-23.48,8.11-38.56-7.7-30.89-13.29-62.3-20.18-95.54,58.06-15.09,114.8-29.83,174.84-45.43M1139.1,668.22l-1.35.35-174.84,45.43-.92.24.19.93c2.03,9.82,3.97,19.57,5.85,29.01,4.58,23.03,8.91,44.78,14.34,66.57,3.95,15.85,1.74,26.41-7.9,37.66-17.27,20.17-22.82,44.66-16.99,74.86l.19.97.97-.18,26.41-4.83,32.71-5.98.81-.15v-.83c.12-12.68,3.52-34.26,24.99-36.29.94-.09,1.93-.13,2.94-.13,11.11,0,24.61,5.32,31.39,12.37,15.14,15.73,3.82,33.7-6.02,45.85l-.49.61.47.62,22.19,29.43,13.9,18.44.61.8.8-.61c41.35-31.55,51.62-83.12,25.54-128.33-4.46-7.74-6.96-18.54-6.69-28.9.49-18.56,2.02-37.41,3.49-55.65.61-7.56,1.25-15.38,1.8-23.07,1.24-17.37,2.47-34.74,3.74-52.84.57-8.15,1.16-16.45,1.76-24.97l.1-1.39h0Z"/>
  </g>
</svg>