<?xml version="1.0" encoding="UTF-8"?>
<svg id="_Слой_1" data-name="Слой 1" xmlns="http://www.w3.org/2000/svg" viewBox="0 0 1401.08 1238.17">
  <defs>
    <style>
      .cls-1 {
        fill: #1d1d1b;
      }

      .cls-1, .cls-2 {
        stroke-width: 3px;
      }

      .cls-1, .cls-2, .cls-3 {
        stroke: #1d1d1b;
        stroke-miterlimit: 10;
      }

      .cls-2, .cls-3 {
        fill: #fff;
      }

      .cls-3 {
        stroke-width: 5px;
      }
    </style>
  </defs>
  <g>
    <path class="cls-3" d="M664.71,669.66c4.7-9.02,8.1-19.09,14.33-26.89,25.66-32.09,58.05-50.11,100.72-46.29,6.2.56,13.12-3.42,19.19-6.37,3.68-1.79,6.29-5.73,9.5-8.57,25.97-22.99,26.05-26.58-6.24-41.11-15.78-7.1-33.6-9.68-49.89-14.14,9.89-16.88,55.8-33.53,82.92-27.45,16.5,3.7,32.39,10.74,48.01,17.55,10.8,4.71,50.98.33,57.58-8.99,2.23-3.15,1.23-10.19-.67-14.37-10.36-22.87-26.35-40.63-50.37-50.45.26-1.63.51-3.26.77-4.9,17.34.49,35.06-1.14,51.92,1.94,29.5,5.38,53.29,21.49,67.58,48.42,6.59,12.43,14.96,19.02,28.73,19.81,4.71.27,9.35,1.96,13.98,3.15,19.59,5.02,23.48,1.97,22.52-18.98-1.03-22.54-5.76-44.05-22.03-62.74,36.4,5.47,76.14,42.97,82.95,76.66.38,1.87,1.28,3.76,1.17,5.6-1.59,27.08,11.6,44.89,33.28,59.92,11.15,7.73,15.53,5.21,20.75-4.14,12.26-21.97,17.5-45.3,12.36-74.29,6.33,6.62,11.19,10.48,14.53,15.39,22.07,32.41,37.69,66.98,19.37,105.88-10.1,21.45-5.8,39.38,4.02,58.18,2.4,4.6,4.69,9.26,7.67,15.15,28.28-12.79,46.66-33.16,58.28-65.32,3.06,9.19,5.16,13.79,6.1,18.61,8.48,43.66-4.19,80.2-37.49,109.57-12.55,11.07-23.08,45.17-16.88,59.78,1.37,3.23,9.17,5.86,13.57,5.31,24.12-2.99,45.43-13.1,65.72-29.18.03,3.89.64,6.96-.02,9.72-11.54,48.55-41.87,78.16-96.96,88.1-3.43.62-8.02,1.88-9.62,4.4-7.7,12.07-15.13,24.41-21.2,37.34-1.16,2.46,3.29,10.23,6.81,11.78,23.85,10.51,48.54,13.84,75.56,6.42-4.92,5.88-9.02,12.79-14.9,17.47-31.88,25.41-66.42,42.73-108.21,26.72-12.78-4.9-22.84-3.32-33.35,3.85-9.04,6.17-18.27,12.05-29.21,19.24,13.97,27.74,38.79,40.2,66.19,49.41-12.93,11.47-44.24,18.11-67.12,13.64-24.45-4.78-46.06-14.78-63.49-33.6-4.5-4.86-12.98-7.39-19.97-8.26-8.86-1.09-18.06.8-27.12,1.06-14.84.43-16.73,3.11-13.23,18.14,5.47,23.44,17.75,42.8,38.93,61.36-40.23-3.35-72.38-13.59-92.93-45.71-7.36-11.5-11.21-25.19-17.34-37.55-2.41-4.86-6.03-9.63-10.26-12.96-4.8-3.77-10.86-5.97-16.44-8.71-27.78-13.62-32.67-11.69-34.59,19.83-1.1,18.01,3.08,36.35,5.36,59.37-14.45-14.19-28.9-25.12-39.12-39.13-18.49-25.34-24.58-54.45-18.08-85.79,2.64-12.7-15.47-45.3-27.86-48.79-4.05-1.14-10.85,2.3-14.47,5.7-14.57,13.71-25.18,38.82-28.49,64.29-29.64-36.24-30.2-91.5-.99-128.96,10.97-14.07,13.84-46.87,3.35-60.91-2.51-3.36-12.26-4.21-17.22-2.34-22.65,8.57-41.49,22.67-54.8,44.9-8.54-43.44,11.59-92.08,49.22-107.16,32.97-13.22,36.27-40.88,45.26-69-30.75-10.18-58.49-3.64-85.23,12.04-.8-.89-1.61-1.79-2.41-2.68ZM895.32,821.76c28.23,55.84,101.89,80.46,157.36,50.39,55.65-30.17,80.85-95.66,50.49-157.59-29.33-59.84-103.36-79.86-156.56-51.62-58.64,31.12-81.47,99.13-51.29,158.82Z"/>
    <path class="cls-3" d="M687.02,976.01c20.94,24.4,40.27,47.06,59.82,69.52,2.38,2.73,5.97,4.41,12.14,8.81-.23-12.85-.41-22.83-.6-32.87,20.19,10.39,21.5,14.78,5.72,30.32-14.9,14.68-31.05,28.12-46.95,41.75-10.71,9.18-22.47,4.05-32.42-.73-18.07-8.68-34.01-7.72-50.53,6.94,5.43,10.74,11.33,22.42,18.66,36.91-29.91,10.46-57.53,20.5-85.49,29.47-3.87,1.24-10.19-1.76-14.06-4.59-8.06-5.9-15.41-12.82-22.73-19.67-10.26-9.6-22.33-7.12-33.88-4.6-2.28.5-4.44,7.51-4.43,11.51.06,29.63.24,29.67-29.53,29.69-6.21,0-12.47-1-18.61-.42-31.99,3.04-54.24-8.24-63.15-40.96-3.97-14.6-18.25-13.59-29.18-16.87-1.55-.47-6.05,4.96-7.4,8.36-11.86,29.83-11.85,30.13-41.32,16.52-15.62-7.22-30.61-15.81-46.18-23.15-9.07-4.28-12.58-10.74-12.15-20.46.34-7.62-1.07-15.35-.34-22.9,1.59-16.47-11.23-22.04-21.67-28.91-1.81-1.19-8.36,2.46-11.09,5.4-20.61,22.22-16.94,25.23-40.33.32-13.36-14.23-26.07-29.13-38.2-44.42-2.78-3.5-3.6-10.21-2.5-14.76,2.34-9.71,5.99-19.22,10.11-28.35,5.41-11.99.24-21.65-6.32-30.51-1.8-2.44-8.57-3.32-11.97-2.04-8.89,3.35-17.17,8.3-29.52,14.53-10.15-29.77-21.29-57.96-28.56-87.12-1.73-6.94,8.54-17.86,14.93-25.59,8-9.69,16.54-18.14,15.16-32.41-1.11-11.56-6.16-15.63-17.63-15.09-26.21,1.24-26.67.86-25.84-25.31.63-20.06,1.89-40.15,4.35-60.05.64-5.13,6.17-10.47,10.74-14.07,4.35-3.43,10.22-5.27,15.7-6.87,18.89-5.51,25.55-19.69,28.06-38.59-12.05-4.39-23.98-8.74-39.51-14.4,13.7-27.68,26.39-54.26,40.21-80.22,2.05-3.85,9.25-6.07,14.42-6.92,11.28-1.85,23.31-.64,34-3.98,7.22-2.26,14.88-9.12,18.09-15.93,1.88-3.99-3.68-12.56-7.53-17.89-4.05-5.62-10.03-9.84-17.67-17.02,24.21-21.08,47.26-41.4,70.76-61.18,2.02-1.7,7.27-.66,10.57.45,10.88,3.68,21.42,8.4,32.37,11.83,4.08,1.28,9.52,1.46,13.33-.19,19.45-8.39,20.42-11.78,10.85-30.74-2.56-5.07-5.12-10.14-9.51-18.82,29.65-9.95,57.51-20.8,86.29-27.85,6.99-1.71,18.06,7.91,25.43,14.4,9.82,8.64,17.93,17.86,33.22,15.7,10.95-1.55,14.69-6.13,14.47-16.71-.57-27.3-.3-27.57,27.64-26.59,18.15.64,36.25,2.52,54.4,3.2,9.47.36,14.71,4.85,18.19,13.21,4.05,9.72,8.35,19.41,13.6,28.5,2.28,3.95,6.76,7.98,11.03,9.2,19.35,5.52,21.38,4.3,27.62-15.22,1.86-5.81,1.95-12.19,3.32-21.44,31.33,15.3,58.05,27.98,84.29,41.58,3.59,1.86,6.33,8.16,6.79,12.67,1.06,10.42-.03,21.05.79,31.51.37,4.69,1.97,10.47,5.15,13.55,16.79,16.23,19.68,15.81,34.75-2.03,3.31-3.92,6.69-7.79,11.44-13.31,10.72,10.37,20.38,19.71,29.23,28.27-27.12,24.56-52.67,47.71-79.9,72.37-84.68-78.14-184.14-112.16-300.4-83.45-70,17.29-125.86,56.89-168.21,114.42-88.8,120.64-77.91,285.43,25.71,393.42,60.41,62.96,135.59,93.88,222.39,94.01,86.78.12,160.3-33.64,219.57-93.14Z"/>
    <path class="cls-3" d="M673.06,601.52c-15.98,31.28-30.4,59.49-44.69,87.46-27.84-58.82-75.81-94.65-142.29-102.79-48.23-5.91-92.99,5.56-131.42,36.8-76.48,62.17-96.66,181-16.23,265.45,43.13,45.28,97.86,60.54,158.71,50.52,60.45-9.95,103.55-45.25,132.87-102.4,6.43,27.07,11.97,50.4,17.51,73.72,1.2.39,2.4.78,3.59,1.17,2.76-4.26,6.11-8.26,8.19-12.84,7.71-16.97,14.46-34.39,22.7-51.08,3.24-6.57,8.94-12.24,14.49-17.24,3.3-2.97,8.5-3.84,12.84-5.66-1.14,5.04-1.51,10.41-3.55,15.05-7.45,16.96-15.46,33.67-23.25,50.48-.2.43-.31.92-.35,1.39-4.39,47.99-40.7,71.52-75.54,94.07-55.36,35.83-116.99,49.56-182.35,37.46-85.17-15.77-148.98-60.46-191.26-138.33-60.3-111.06-29.33-249.11,63.62-323.24,126.27-100.71,287.66-72.69,376.56,40.43.56.71.76,1.71-.15-.43Z"/>
    <path class="cls-3" d="M646.34,754.13c-7.23-30.63-2.54-39.64,31.37-58.81,11.4-6.45,22.61-16.16,41.7-11.43-5.44,5.8-8.25,11.05-12.57,13.04-25.95,11.98-46.35,29.73-60.5,57.2Z"/>
    <path class="cls-3" d="M789.74,565.31c-6.65,2.41-10.61,4.59-14.8,5.24-17.32,2.67-34.76,4.57-52.06,7.36-12.16,1.97-12.09,2.41-19.72-9.76,18.14-13.58,68.2-16.78,86.57-2.84Z"/>
    <path class="cls-3" d="M752.18,995.59c2.78-13.09,5.3-26.25,8.6-39.21.58-2.28,4.47-3.71,6.82-5.53,1.68,2.46,4.83,4.95,4.79,7.38-.22,14.75-2.19,29.06-15.36,38.54-1.62-.39-3.24-.79-4.86-1.18Z"/>
  </g>
  <g>
    <g>
      <rect class="cls-1" x="866.75" y="698.6" width="84.69" height="84.69"/>
      <g>
        <rect class="cls-1" x="476.92" y="384.33" width="535.75" height="265.22"/>
        <rect class="cls-1" x="668.24" y="613.92" width="169.37" height="169.37"/>
        <rect class="cls-1" x="601.15" y="705.78" width="302.67" height="229.88"/>
        <rect class="cls-1" x="539.62" y="705.78" width="119.33" height="124.83"/>
      </g>
    </g>
    <g>
      <path class="cls-2" d="M793.89,846.31c-2-.28-4-.56-6-.84,0,0-.41-1.19-.41-1.19-14.86-20.28-27.77-18.42-39.77,6.11-1.18-.55-2.98-.78-3.45-1.7-11.82-22.87-20.92-23.85-38.77-4.28-1.23,1.35-4.05,1.24-6.13,1.8l.56.54c-8.57-16.72-10.16-16.97-24.75-5.48-1.19.94-4.65-1.02-7.05-1.63-4.75-4.02-9.49-8.04-14.24-12.06-3.11,2.77-6.21,5.55-7.24,6.46-5.86-1.11-10.69-2.03-15.52-2.95l.48-.51c-8.27-1.3-16.53-2.61-28.36-4.47,0-10.65-1.96-23.81.39-36.16,5.62-29.44-8.7-36.99-32.36-38.04-21.04-.93-42.31,1.88-63.24.17-33.4-2.72-56.18-21.97-69.53-52.13-8.7-19.66-16.54-39.71-24.27-59.78-4.4-11.42,2.23-31.31,12.04-38.63.79-.59,1.64-1.09,2.51-1.56,23.55-12.59,33.78-31,31.48-58.74-1.23-14.91,1.93-32.42,9.22-45.3,13.46-23.77,12.32-44.37-2.66-65.8-3.02-4.31-5.27-9.17-10.13-12.71,4.8,10.47,11.08,20.55,13.94,31.52,2.3,8.85,3.95,20.79-.15,27.85-15.38,26.51-18.39,54.56-16.6,84.08.37,6.07-1.24,12.26-1.93,18.4-1.82.79-3.64,1.58-5.46,2.38-5.46-7.75-15.68-15.55-15.6-23.24.48-44.6-14.78-85.99-22.78-128.85-12.69-67.99-4.74-134.21,24.64-197.45,16.68-35.9,47.31-58.83,76.7-82.57,73.68-59.51,156.75-94.01,253.03-89.54,91.56,4.25,166.93,45.39,237.18,101.56,81.21,64.94,95.64,151.94,88.54,246.82-1.92,25.63-12.35,50.51-16.97,76.08-4,22.16-6.13,44.75-7.49,67.24-.86,14.18-6.41,23.13-21.94,28.52-.92-6.71-2.73-12.71-2.39-18.58,1.74-30.01-1.17-58.61-16.95-85.49-3.92-6.68-2.38-18.11-.12-26.48,2.99-11.04,9.18-21.21,11.3-33.06-6.32,12.35-15.05,24.12-18.16,37.23-2.34,9.87.12,22.63,4.72,32.01,9.38,19.12,15.87,38.54,13.25,59.6-3.02,24.24,7.44,39.64,27.02,52.13,21.05,13.42,24.17,30.75,12.75,52.48-4.07,7.74-6.19,16.53-8.88,24.95-20.18,63.2-56.79,86.4-123.04,78.04-7.3-.92-14.87-2.05-22.06-1.14-27.77,3.52-33.14,13.1-29.86,36.43,1.79,12.77.32,26,.32,38.28-11.51,1.56-21.29,2.88-31.07,4.2-1.59.59-3.18,1.17-4.77,1.76-8.5,9.28-8.12-4.61-12.93-4.96l.5.51c-3.69.37-8.55-.59-10.83,1.4-4.18,3.65-6.84,9.03-10.26,13.87-12.82-15.91-17.45-15.2-27.04,3.4,0,0,.54-.54.54-.54ZM904.97,635.88c55.56,1.91,71.69-10.43,82.93-62.73.82-3.83,1.19-7.78,1.48-11.7,2.01-27.31-18.33-52.93-45.04-59.44-12.03-2.93-24.22-7.89-34.52-14.68-28.37-18.71-57.74-18.16-84.27,3.48-18.76,15.3-27.95,36.07-34.82,58.6-4.1,13.43-2.34,25,5.36,36.33,20.87,30.7,48.24,50,86.74,50.13,7.38.03,14.76,0,22.14,0ZM585.99,636.92c9.83-.44,19.66-.98,29.5-1.32,38.2-1.3,64.26-22.28,83.21-53.09,4.48-7.28,7.23-18.51,5.1-26.38-4.43-16.37-10.84-32.84-19.73-47.23-18-29.15-63.52-51.83-103.58-19.56-8.27,6.66-20.35,8.55-30.56,12.88-8.04,3.41-16.99,5.85-23.67,11.09-23.86,18.74-28.05,41.39-15.87,77.42,11.91,35.25,22.76,43.94,56.43,45.26,6.39.25,12.78.6,19.18.92ZM746.64,735.51c3.66,6.23,6.01,11.11,9.14,15.41,7.76,10.68,18.26,12.36,29.63,5.16,11.44-7.24,15.39-18.15,8.36-28.87-16.5-25.12-16.9-53.69-20.11-81.93-.9-7.92-5.26-16.34-10.54-22.32-1.59-1.8-11.64,3.86-16.47,5.61-5.36-2.25-12.91-7.8-15.55-6.03-5.38,3.62-8.3,11.07-11.81,17.18-.84,1.45.16,3.87,0,5.82-2.34,28.34-3.41,56.83-19.85,81.96-6.95,10.62-2.82,21.96,8.75,28.75,10.6,6.22,20.75,6.21,28.74-4.37,3.46-4.59,5.93-9.92,9.71-16.38Z"/>
      <path class="cls-2" d="M601.15,889.1c1.25,1.35,3.12,2.49,3.64,4.08,4.76,14.44,13.63,14.26,25.23,5.57,4.33,16.04,13.29,14.37,22.55,7.8,3.73,7.26,7.32,14.26,10.92,21.26,4.2-2.65,8.4-5.3,12.6-7.95l-.54.54c2.61-1.99,5.22-3.98,8.31-6.34,2.11,2.88,4.25,5.81,6.39,8.74l-.53-.51c9.65,11.43,16.27,8.75,25.72-10.41,13.07,22.75,17.61,23.26,31.19,3.5,13.32,19.66,18.6,19.07,31.19-3.49,9.48,19.09,16.15,21.79,25.76,10.43l-.53.52c1.88-2.62,3.77-5.24,6.07-8.44,2.81,1.96,5.72,4,8.64,6.03l-.53-.53c4.18,2.65,8.36,5.3,12.53,7.95,3.46-6.6,6.93-13.19,11.06-21.07,7.63,3.69,18.82,11.9,21.62-9.26,18.56,18.53,22.62-1.93,31.78-8.9-2.61-7.06-5.21-14.12-7.82-21.17-2.59-2.85-5.18-5.69-7.59-8.34,2-2.6,5.9-5.38,6.31-8.59,3.51-27.91,29.6-50.97,14.61-82.98,19.34-1.31,35.73-2.42,55.01-3.72,2.44,21.74,5.48,43.98,7.09,66.34.47,6.45-2.26,13.61-5.09,19.73-13.34,28.91-27.06,57.65-40.99,86.28-5.59,11.49-12.24,22.45-18.09,33.82-25.02,48.67-65.3,73.16-119.13,80.75-42.09,5.93-82.29-.36-119.74-16.33-19.41-8.28-37.32-26.56-49.13-44.73-18.83-28.98-31.98-61.65-47.59-92.74-4.62-9.21-8.4-19.07-14.36-27.34-14.04-19.47-19.89-40.18-14.83-64.01,2.94-13.83,4.55-27.94,6.73-41.71,17.45,1.13,33.47,2.17,52.65,3.42-12.01,35.3,13.42,61.33,20.57,94.44-.52.66-3.04,3.89-5.56,7.11-2.04,6.75-4.08,13.51-6.13,20.26Z"/>
      <path class="cls-2" d="M787.49,844.28s.41,1.19.41,1.19c.17,9.32.56,18.65.46,27.96-.18,17.22-13.31,13.85-23.57,14.12-9.74.26-18.06-1.85-15.62-14.94.63-3.36.26-6.9.75-10.3,4.22-29.32,13.5-33.75,37.58-18.03Z"/>
      <path class="cls-2" d="M702.47,867.64c2.52-20.17,9.65-32.29,21.23-33.34,10.68-.97,17.98,9.03,19.68,29.57.59,7.11-.22,19.59-3.51,20.74-8.58,3.01-19.48,3.07-28.24.36-4.42-1.37-6.2-11.28-9.17-17.33Z"/>
      <path class="cls-2" d="M699.37,846.21v32.13c-11.38.81-24.1,3.46-25.56-9.26-1.15-10.03,5.34-20.93,8.43-31.44,5.89,3.03,11.78,6.07,17.68,9.11,0,0-.55-.53-.55-.53Z"/>
      <path class="cls-2" d="M793.35,846.84c3.17-2.92,5.92-6.76,9.64-8.45,2.54-1.16,8.96-.05,9.34,1.28,2.97,10.31,7.28,21.22,6.03,31.31-.54,4.36-13.23,7.22-24.46,12.77,0-15.97,0-26.72,0-37.46,0,.01-.55.55-.55.55Z"/>
      <path class="cls-2" d="M817.75,920.43c-1.87-3.27-4.73-6.35-5.42-9.86-1.45-7.42-4.7-16.66-1.7-22.15,2.75-5.05,12.72-6.18,21.38-9.82v45.36c-6.04-1.66-10.41-2.87-14.78-4.07,0,0,.53.54.53.54Z"/>
      <path class="cls-2" d="M653.89,827.59c4.75,4.02,9.49,8.04,14.24,12.06-.11,9.19.69,18.52-.81,27.47-.54,3.23-6.34,6.96-10.24,7.68-2.02.37-7.53-5.45-7.4-8.28.62-13.01,2.67-25.96,4.21-38.93Z"/>
      <path class="cls-2" d="M676.08,919.87c-4,1.25-7.99,2.5-14.15,4.43v-45.41c8.02,3.37,17.98,4.48,20.74,9.53,3.01,5.49-.18,14.73-1.63,22.15-.68,3.5-3.6,6.57-5.5,9.84,0,0,.54-.54.54-.54Z"/>
      <path class="cls-2" d="M690.24,922.8c-.77-11.48-1.54-22.96-2.63-39.02,11.02,4.14,23.92,6.14,24.37,9.7,1.11,8.91-2.38,19.01-6.36,27.55-1.11,2.38-10.37.95-15.91,1.26-.01-.01.52.5.52.5Z"/>
      <path class="cls-2" d="M803.57,922.32c-5.51-.33-14.74,1.08-15.86-1.31-3.99-8.53-7.48-18.62-6.38-27.53.44-3.55,13.35-5.56,24.36-9.68-1.1,16.06-1.89,27.56-2.66,39.05.01-.01.54-.53.54-.53Z"/>
      <path class="cls-2" d="M840.98,827.67c1.14,11.58,3.13,23.18,2.96,34.74-.06,4.37-4.67,11.81-8.03,12.31-6.51.96-10.11-3.41-10.69-11.78-1.47-21.15,1.69-29.71,16.27-34.75,0-.01-.51-.52-.51-.52Z"/>
      <path class="cls-2" d="M744.62,892.7c-1.8,9.62-2.24,18.52-5.26,26.44-3.33,8.72-10.15,9.24-15.04,1.03-3.16-5.3-4.47-11.79-6.09-17.88-2.25-8.48,1.85-11.94,10.05-11.31,4.81.37,9.6,1,16.34,1.72Z"/>
      <path class="cls-2" d="M745.79,890.47c13.02,1.54,20.82,2.46,28.61,3.39-2.07,9.18-3.64,18.52-6.59,27.4-.66,1.99-8.92,3.54-9.01,3.32-4.15-9.82-7.77-19.87-13.01-34.1Z"/>
      <path class="cls-2" d="M640.4,878.29c-7.87,8.5-9.72,23.65-29.98,22.59,4.05-9.47,6.69-18.79,12.06-26.09,1.4-1.89,11.36,2.53,17.39,4.05l.53-.55Z"/>
      <path class="cls-2" d="M853.27,878.61c6.1-1.38,15.89-5.74,17.62-3.59,5.57,6.91,8.17,16.21,12.37,25.61-20.43,1.82-22.59-13.73-30.51-22.56l.52.54Z"/>
      <path class="cls-2" d="M852.75,878.07c1.6,9.7,3.2,19.41,4.87,29.52-18.23.13-20.86-10-19.81-22.22.94-10.86,9.13-7.15,15.46-6.75,0,0-.52-.54-.52-.54Z"/>
      <path class="cls-2" d="M639.88,878.84c6.39-.62,14.53-4.21,15.56,6.53,1.16,12.12-1.39,22.34-19.69,22.25,1.6-10.05,3.13-19.69,4.66-29.34,0,0-.53.55-.53.55Z"/>
      <path class="cls-2" d="M853.91,832.63c1.59-.59,3.18-1.17,4.77-1.76,7.11,13.33,3.13,24.85-3.22,35.98-2.13-.27-4.26-.55-6.39-.82,1.61-11.13,3.23-22.26,4.84-33.4Z"/>
      <path class="cls-2" d="M631.13,831.11c20.02,6.81,10.2,22.43,12.03,38.5-15.04-12.45-11.57-26.2-11.55-38.99,0-.01-.48.5-.48.5Z"/>
      <path class="cls-2" d="M886.4,867.44c2.61,7.06,5.21,14.12,7.82,21.17-3.66-.92-8.55-.68-10.72-3-4.51-4.8-7.57-10.96-13.51-20.06,6.92.79,11.66,1.34,16.41,1.88Z"/>
      <path class="cls-2" d="M601.15,889.1c2.04-6.76,4.08-13.51,6.13-20.26,4.29-1.44,8.58-2.87,12.88-4.31,1.07,1.68,2.15,3.37,3.22,5.05-7.41,6.51-14.82,13.01-22.23,19.52Z"/>
    </g>
  </g>
</svg>