<?xml version="1.0" encoding="UTF-8"?>
<svg id="_Слой_1" data-name="Слой 1" xmlns="http://www.w3.org/2000/svg" viewBox="0 0 1401.08 1238.17">
  <defs>
    <style>
      .cls-1 {
        fill: #1d1d1b;
      }

      .cls-1, .cls-2 {
        stroke-width: 0px;
      }

      .cls-2 {
        fill: #fff;
      }
    </style>
  </defs>
  <g>
    <path class="cls-2" d="M682.32,1095.78c-53.86,0-106.93-13.43-161.09-28.38-15.89-4.39-24.84-9.83-29-17.64-4.16-7.8-3.73-18.13,1.4-33.49,15.15-45.41,28.88-92.45,42.16-137.93,5.52-18.9,11.22-38.45,17.01-57.8l.14-.47.47.13c50.47,14.17,99.78,21.06,150.76,21.06,38.18,0,77.7-4.08,117.47-12.12l.56-8.42h-56.43l-1.75-10.75,49.14-15.84-.34-5.75h-48.33l-1.72-10.53,47.05-18.56-1-4.54c-8.14,0-16.28.02-24.42.03-8.27.02-16.55.03-24.82.03-12.13,0-22.13-.04-31.48-.11-6.5-.05-13-.09-19.51-.12-22.83-.11-46.44-.22-69.62-1.39-64.04-3.21-83.3-22.77-85.88-87.18-.29-7.13-.66-14.21-1.14-23.17-.23-4.35-.49-9.12-.76-14.53l-13.81,19.04-.41-.33c-30.39-24.7-35.07-28.5-84.84-28.5-9.15,0-19.94.13-32.43.28h-.63s17.47-78.37,17.47-78.37l34.07-6.81-32.68-4.89.07-.49c3.15-22.88,16.64-47.23,37-66.83,20.46-19.7,44.5-31.27,65.94-31.75h.27c9.26,0,23.48,9.93,26.23,18.33,5.45,16.58,8.4,33.68,11.52,51.78,1.05,6.06,2.12,12.29,3.3,18.53l5.26-39.94.64.36c47.48,26.64,86.25,39.05,121.99,39.05,31.96,0,61.23-9.88,89.47-30.22l-1.67-10.13c-3.81,1.22-7.69,2.4-11.45,3.54-8.54,2.59-17.38,5.26-25.76,8.63-18.82,7.56-37.9,11.4-56.71,11.4-32.98,0-66.27-11.46-101.78-35.04-7.84-5.2-11.53-8.49-10.97-9.77,7.14-16.47.23-29.25-7.09-42.79-5.47-10.11-11.12-20.57-10.15-32.56,4.1-50.69,6.71-96.69,7.95-140.63.95-33.57,12.42-64.23,33.15-88.67,20.85-24.58,50.23-41.8,84.95-49.81,6.31-1.45,12.94-2.19,19.7-2.19,22.38,0,46.23,8.06,67.15,22.71,21.88,15.31,38.91,36.31,49.24,60.72,5.59,13.21,5.72,28.91,5.85,44.1.07,7.6.13,15.46.88,22.92,3.65,36.41,7.42,72.22,11.07,106.86,1.38,13.15,2.73,25.95,4.02,38.26,17.96-3.54,35.51-7.78,52.49-11.88,37.98-9.18,73.86-17.85,109.77-17.85.88,0,1.76,0,2.64.02,39.7.48,79.67,17.98,118.33,34.9,3.57,1.56,7.12,3.12,10.66,4.65,13.67,5.93,23.5,31.12,25.35,47.02,15.35,132.4,8.64,251.8-20.53,365.01-5.69,22.1-19.83,42.44-33.5,62.1-3.06,4.4-6.22,8.95-9.2,13.4-19.92,29.74-39.14,55.16-58.77,77.71-9.53,10.94-23.53,21.21-41.63,30.52-10.13,5.21-18.42,7.75-25.32,7.75-13.56,0-22.8-9.16-31.89-31.61-6.12-15.11-14.59-29.58-22.79-43.58-3.59-6.13-7.3-12.47-10.77-18.79l-9.7,3.98c2.5,9.63,4.89,19.46,7.21,28.97,5.39,22.16,10.97,45.07,18.28,66.99,5.63,16.87,5.9,28.62.88,36.97-4.59,7.63-13.71,12.48-27.88,14.85-14.13,2.36-28.29,6.76-41.98,11.02-20.34,6.33-41.38,12.87-62.84,12.87-13.33,0-25.69-2.47-37.76-7.55-27.6,8.88-55.96,13.19-86.71,13.2ZM935.92,571.42c7.71,38.13,40.33,41.92,64.23,44.69l2.7.31c2.87.34,5.79.51,8.66.51,27.99,0,51.44-15.55,62.75-41.59,2.69-6.19,4.07-13.11,5.4-19.79.58-2.92,1.18-5.93,1.88-8.86l-8.33-1.83c-14.46,36.05-39.4,55.89-70.25,55.89-22.52,0-46.27-10.4-67.02-29.33ZM732.51,296.62l88.09-12.63-2.71-17.97-87.91,14.14,2.53,16.46Z"/>
    <path class="cls-1" d="M719.78,100.04c45.11,0,94.55,32.61,115.93,83.13,8.34,19.7,4.45,44.47,6.7,66.87,5.09,50.67,10.51,101.3,15.14,145.67,57.95-11.37,110.48-29.83,162.7-29.83.88,0,1.76,0,2.63.02,43.31.52,87.54,21.61,128.79,39.51,12.94,5.61,23.1,29.82,25.05,46.62,14.22,122.62,10.37,244.95-20.51,364.83-6.96,27.03-26.55,51.34-42.63,75.35-18.04,26.95-37.46,53.23-58.74,77.66-11.02,12.65-26.35,22.62-41.48,30.4-9.97,5.13-18.15,7.69-25.1,7.69-14.02,0-22.98-10.44-31.43-31.3-8.87-21.91-22.37-41.94-33.8-62.81-3.51,1.44-7.01,2.88-10.52,4.31,8.37,32.19,15.11,64.93,25.61,96.41,9.42,28.24,5.22,45.86-26.61,51.17-35.15,5.86-68.91,23.88-104.73,23.88-12.29,0-24.82-2.12-37.74-7.58-29.24,9.43-58.11,13.23-86.73,13.23-54.16,0-107.47-13.59-160.95-28.36-29.74-8.21-37.25-20.54-27.26-50.48,21.4-64.15,39.36-129.44,59.17-195.75,51.33,14.41,101.39,21.07,150.89,21.07,39.55,0,78.73-4.25,117.94-12.2.21-3.11.41-6.22.62-9.33h-56.53c-.54-3.3-1.07-6.6-1.61-9.9,16.37-5.28,32.73-10.55,49.1-15.83-.13-2.2-.26-4.4-.39-6.61h-48.38c-.53-3.24-1.06-6.47-1.58-9.71,15.69-6.19,31.38-12.38,47.07-18.57-.39-1.78-.78-3.57-1.18-5.35-16.54,0-33.09.07-49.64.07-10.49,0-20.99-.03-31.48-.11-29.7-.25-59.45-.01-89.1-1.5-64.12-3.22-82.85-22.7-85.41-86.7-.44-10.92-1.09-21.82-1.97-39.12-7.16,9.88-10.72,14.79-14.33,19.75-30.48-24.77-35.21-28.61-85.15-28.61-9.15,0-19.82.13-32.45.28,5.52-24.75,10.97-49.2,17.27-77.44,8.63-1.72,20.14-4.02,36.56-7.3-14.78-2.21-24.91-3.73-35.02-5.24,6.56-47.58,57.57-97.15,102.46-98.15.09,0,.18,0,.26,0,8.89,0,23.07,9.81,25.76,17.99,7.61,23.17,10.43,47.92,15.39,73.29,1.64-12.43,3.22-24.48,5.57-42.27,40.88,22.94,81.64,39.12,122.24,39.12,30.09,0,60.1-8.89,90.01-30.5-.61-3.67-1.21-7.34-1.82-11.01-12.61,4.08-25.52,7.43-37.79,12.36-19.46,7.82-38.26,11.36-56.52,11.36-35.6,0-69.14-13.46-101.5-34.96-4.07-2.7-11.34-7.88-10.79-9.16,12.79-29.51-19.42-48.24-17.21-75.51,3.79-46.8,6.62-93.73,7.95-140.66,1.93-67.95,46.92-121.68,117.71-138.01,6.36-1.47,12.93-2.18,19.59-2.18M732.09,297.19c29.69-4.26,59.39-8.52,89.08-12.77-.95-6.32-1.91-12.65-2.86-18.97-29.63,4.77-59.27,9.53-88.9,14.3.89,5.82,1.79,11.63,2.68,17.45M1002.94,600.25c-23.23,0-47.56-11.38-67.8-30.23,7.49,41.35,42.63,43.94,67.64,46.89,2.9.34,5.81.52,8.71.52,25.92,0,50.99-13.74,63.2-41.89,3.95-9.1,5.03-19.45,7.43-29.23-3.08-.68-6.16-1.35-9.24-2.03-15.74,39.56-42.05,55.97-69.95,55.97M719.78,99.04c-6.81,0-13.47.74-19.82,2.2-34.82,8.03-64.29,25.31-85.21,49.97-20.81,24.52-32.31,55.29-33.27,88.98-1.25,43.93-3.85,89.92-7.95,140.61-.98,12.14,4.71,22.66,10.21,32.84,7.26,13.43,14.12,26.11,7.08,42.35-.33.75-1.01,2.32,11.15,10.39,35.59,23.63,68.97,35.12,102.06,35.12,18.87,0,38.01-3.85,56.89-11.44,8.36-3.36,17.18-6.03,25.72-8.62,3.58-1.08,7.27-2.2,10.91-3.36l.6,3.6.93,5.65c-28.07,20.15-57.17,29.95-88.92,29.95-35.65,0-74.34-12.39-121.75-38.99l-1.29-.72-.19,1.46-2.86,21.71-1.89,14.38c-.96-5.2-1.85-10.38-2.72-15.44-3.13-18.12-6.08-35.23-11.54-51.85-2.81-8.55-17.29-18.67-26.71-18.67-.1,0-.19,0-.29,0-21.57.48-45.72,12.1-66.28,31.89-20.44,19.68-33.98,44.14-37.15,67.13l-.13.98.98.15,17.68,2.65,11.68,1.75-13.53,2.7-17.41,3.48-.64.13-.14.64-6.49,29.09-10.78,48.35-.28,1.23,1.26-.02c12.52-.15,23.3-.28,32.43-.28,49.59,0,54.25,3.78,84.52,28.39l.82.67.62-.86,8.02-11.06,4.64-6.4c.25,4.82.48,9.13.69,13.09.48,8.97.85,16.06,1.14,23.2,2.6,64.77,21.97,84.43,86.36,87.66,23.19,1.16,46.81,1.28,69.65,1.39,6.39.03,13,.06,19.49.12,9.36.08,19.37.11,31.49.11,8.27,0,16.55-.02,24.82-.03,8-.02,16.01-.03,24.01-.03l.82,3.73-22.74,8.97-23.54,9.28-.75.3.13.8,1.09,6.68.49,3.03.14.84h48.29l.14,2.36.15,2.53-20.5,6.61-27.85,8.98-.82.26.14.85.28,1.7,1.33,8.2.14.84h56.32l-.11,1.74-.38,5.76c-39.61,7.98-78.97,12.03-117,12.03-50.93,0-100.2-6.88-150.62-21.04l-.95-.27-.28.94c-5.78,19.36-11.49,38.9-17.01,57.81-13.28,45.48-27,92.51-42.15,137.91-5.17,15.5-5.59,25.95-1.37,33.88,4.23,7.94,13.27,13.45,29.31,17.88,54.19,14.97,107.29,28.4,161.22,28.4,30.73,0,59.09-4.31,86.69-13.16,12.08,5.06,24.45,7.52,37.79,7.52,21.54,0,42.61-6.56,62.99-12.9,13.67-4.25,27.81-8.65,41.91-11,14.32-2.39,23.55-7.32,28.23-15.08,5.11-8.49,4.85-20.37-.83-37.39-7.3-21.9-12.88-44.8-18.27-66.95-2.28-9.37-4.64-19.05-7.1-28.55l2.66-1.09,6.23-2.55c3.41,6.19,7.05,12.4,10.56,18.41,8.19,13.98,16.65,28.44,22.76,43.51,4.51,11.14,8.91,18.7,13.83,23.79,5.3,5.47,11.35,8.13,18.52,8.13s15.35-2.55,25.55-7.8c18.15-9.34,32.21-19.64,41.77-30.63,19.65-22.57,38.89-48.01,58.81-77.76,2.98-4.45,6.14-9,9.2-13.4,13.69-19.7,27.86-40.07,33.57-62.26,14.92-57.91,24.07-119.01,27.2-181.59,2.93-58.49.68-120.26-6.66-183.61-1.86-16.02-11.8-41.42-25.65-47.43-3.53-1.53-7.08-3.09-10.66-4.65-38.7-16.94-78.71-34.47-118.52-34.94-.88-.01-1.76-.02-2.65-.02-35.97,0-71.87,8.68-109.88,17.86-16.8,4.06-34.17,8.26-51.93,11.77-1.27-12.14-2.59-24.75-3.96-37.69-3.65-34.64-7.42-70.47-11.07-106.89-.75-7.44-.81-15.29-.88-22.87-.13-15.23-.27-30.98-5.89-44.29-10.37-24.5-27.45-45.57-49.42-60.94-21.01-14.7-44.96-22.8-67.44-22.8h0ZM730.55,280.57l10.34-1.66,76.59-12.32.31,2.06,2.25,14.91-13.19,1.89-73.91,10.6-2.38-15.49h0ZM1002.94,601.25c14.85,0,28.35-4.49,40.13-13.35,12.64-9.5,22.87-23.79,30.43-42.46l4.37.96,3.05.67c-.66,2.78-1.22,5.62-1.77,8.38-1.33,6.66-2.7,13.55-5.37,19.69-11.22,25.86-34.51,41.29-62.29,41.29-2.85,0-5.74-.17-8.6-.51-.89-.1-1.79-.21-2.7-.32-24.73-2.87-55.35-6.42-63.47-42.79,20.58,18.36,43.99,28.43,66.22,28.43h0Z"/>
  </g>
  <g>
    <path class="cls-2" d="M477.71,794.8v-.39c0-1.58-.11-3.22-.22-4.81-.24-3.48-.49-7.08.41-10.36,6.97-25.57,5.12-45.57-5.49-59.46-11.36-14.87-32.46-22.42-62.7-22.42-2.89,0-5.91.07-8.96.21-32.42,1.49-65.32,4.22-97.15,6.87-19.98,1.66-40.65,3.38-60.99,4.77-1.46.1-3.01.15-4.6.15-5.59,0-11.29-.62-16.81-1.22-3.23-.35-6.57-.71-9.84-.95l-.39-.03-2.52-15.17,72.71-13.93c-1.44-15.76-2.86-31.75-4.23-47.23-3.06-34.5-6.22-70.18-9.82-105.18-2.53-24.58-5.95-49.54-9.27-73.68-10.08-73.41-20.5-149.31-7.03-225.12,3.63-20.42,9.36-40.13,16-62.96,3.27-11.23,6.65-22.85,10.06-35.54l.39-1.46.56,1.4c48.14,121.27,51.8,244.32,55.34,363.32,1.77,59.58,3.6,121.19,11.04,181.51,4.44-.49,8.93-.85,13.28-1.19,23.71-1.88,46.1-3.65,67.96-26.03,7.05-7.22,20.8-8.74,31.1-8.74,15.03,0,33.38,3.21,47.89,8.37,11.17,3.97,19.6,37.83,16.67,56.92-3.53,22.96-11.87,45.54-19.94,67.38-3.37,9.13-6.86,18.58-9.95,27.92l-.15.44-13.36-3.43Z"/>
    <path class="cls-1" d="M277.36,128.49c72.35,182.27,44.04,364.64,66.41,545.2,28.04-3.17,55.73-.49,82.03-27.42,6.03-6.18,17.62-8.58,30.74-8.58,16.06,0,34.42,3.61,47.72,8.34,11.25,4,19.18,37.91,16.34,56.38-4.99,32.5-19.4,63.56-29.87,95.22-4.18-1.07-8.35-2.14-12.53-3.21,0-5.03-1.11-10.36.17-15.04,14.7-53.95-10.07-82.51-68.66-82.51-2.91,0-5.9.07-8.98.21-52.78,2.42-105.41,8.03-158.15,11.63-1.52.1-3.04.15-4.56.15-8.83,0-17.75-1.53-26.62-2.16-.79-4.77-1.58-9.53-2.37-14.3,24.79-4.75,49.57-9.5,72.68-13.92-4.67-51.08-8.87-102.02-14.09-152.87-10.21-99.33-34.19-198.02-16.31-298.65,5.41-30.47,15.73-60.06,26.06-98.46M277.18,125.32l-.78,2.91c-3.41,12.69-6.79,24.3-10.06,35.54-6.64,22.84-12.38,42.57-16.02,63.01-13.48,75.88-3.05,151.83,7.03,225.27,3.31,24.13,6.74,49.09,9.26,73.66,3.6,35,6.76,70.67,9.82,105.17,1.36,15.33,2.76,31.17,4.19,46.78l-28.29,5.42-43.5,8.33-.96.18.16.96,2.37,14.3.13.78.79.06c3.26.23,6.6.59,9.83.94,5.53.6,11.25,1.22,16.87,1.22,1.6,0,3.16-.05,4.63-.15,20.34-1.39,41.01-3.11,60.99-4.77,31.82-2.64,64.72-5.38,97.13-6.86,3.05-.14,6.05-.21,8.94-.21,30.08,0,51.04,7.48,62.3,22.22,10.51,13.76,12.32,33.61,5.4,59.02-.91,3.36-.67,7-.42,10.52.11,1.58.22,3.22.22,4.78v.78l.75.19,9.12,2.34,3.41.88.9.23.29-.89c3.08-9.33,6.57-18.77,9.94-27.9,8.08-21.86,16.43-44.47,19.96-67.48,1.4-9.1.28-22.14-2.91-34.03-3.48-12.96-8.62-21.5-14.08-23.44-14.56-5.18-32.98-8.4-48.06-8.4-10.39,0-24.28,1.54-31.45,8.89-21.73,22.25-44.03,24.01-67.64,25.88-4.19.33-8.51.67-12.8,1.14-7.39-60.15-9.21-121.57-10.98-180.98-1.77-59.44-3.59-120.9-10.96-181.49-8.27-68.03-22.8-127.56-44.41-182l-1.11-2.8h0Z"/>
  </g>
  <g>
    <path class="cls-2" d="M335.68,1049.12c-15.03-22.54-23.04-40.82-22.36-72.85.13-6.25.36-12.7.58-18.92,1.68-47.58,3.42-96.78-31.1-140.29-13.53-17.06-15.96-58.42-4.48-76.31,8.45-13.16,31.8-17.03,54.38-20.77,6.1-1.01,11.87-1.97,17.26-3.1,4.24-.89,8.88-1.3,14.61-1.3,3.81,0,7.73.18,11.51.36,3.79.18,7.71.36,11.53.36s7.47-.2,10.63-.62c6.1-.81,11.82-1.22,17.01-1.22,28.06,0,43.17,11.62,46.21,35.51,2.57,20.18-1.96,38.04-12.74,50.28-9.07,10.3-21.87,15.75-37,15.75-.86,0-1.72-.02-2.59-.05-11.13-.45-22.02-8.75-31.62-16.07-4.01-3.06-7.81-5.95-11.41-8.15l-24.33,31.01c0,14.1-.25,28.38-.49,42.19-.54,30.88-1.09,62.81,1.11,93.93.51,7.24.99,13.64,1.42,19.32,3.22,43.07,3.42,45.65-7.24,70.86l-.36.85-.52-.77Z"/>
    <path class="cls-1" d="M415.25,714.95c27.4,0,42.69,11.27,45.72,35.07,4.67,36.73-14.69,65.47-49.25,65.47-.85,0-1.71-.02-2.57-.05-15.64-.63-30.66-16.89-43.17-24.37-5.57,7.1-16.16,20.6-24.71,31.5,0,45.78-2.56,91.26.62,136.33,4.36,61.64,6.24,61.5-5.79,89.95-15.58-23.37-22.93-41.76-22.27-72.57,1.13-52.82,8.66-110.02-30.63-159.54-13.57-17.1-15.9-57.9-4.45-75.73,10.6-16.51,46.13-18.38,71.32-23.65,4.72-.99,9.58-1.29,14.5-1.29,7.62,0,15.38.72,23.04.72,3.6,0,7.17-.16,10.7-.63,6.08-.81,11.73-1.21,16.94-1.21M415.25,713.95c-5.21,0-10.95.41-17.07,1.22-3.13.42-6.59.62-10.56.62s-7.72-.18-11.5-.36c-3.79-.18-7.71-.36-11.53-.36-5.76,0-10.44.42-14.71,1.31-5.38,1.13-11.14,2.08-17.24,3.09-22.69,3.76-46.16,7.65-54.72,21-5.49,8.56-8.23,23.04-7.31,38.74.91,15.71,5.33,29.98,11.82,38.15,34.41,43.37,32.67,92.48,30.99,139.97-.22,6.23-.45,12.67-.58,18.93-.69,32.16,7.36,50.52,22.44,73.14l1.03,1.54.72-1.71c10.71-25.32,10.45-28.78,7.28-71.09-.42-5.66-.9-12.08-1.42-19.32-2.2-31.1-1.65-63.02-1.11-93.89.24-13.76.49-27.98.49-42.03l8.92-11.37,15.03-19.16c3.47,2.15,7.13,4.94,10.99,7.89,9.66,7.37,20.62,15.72,31.9,16.17.87.04,1.75.05,2.61.05,15.28,0,28.21-5.5,37.38-15.92,10.88-12.36,15.45-30.35,12.86-50.68-1.53-12.06-6.28-21.19-14.11-27.13-7.7-5.85-18.67-8.82-32.6-8.82h0Z"/>
  </g>
  <g>
    <path class="cls-2" d="M643.75,796.4c-37.92,0-64.86-14.77-72.08-39.5l-.23-.79,113.79,22.72-3.33,12.85-.29.07c-12.95,3.09-25.69,4.65-37.86,4.65Z"/>
    <path class="cls-1" d="M572.16,756.77c38.87,7.76,75.67,15.11,112.46,22.45l-3.12,12.05c-13.09,3.12-25.84,4.64-37.74,4.64-35.9,0-64.2-13.8-71.6-39.14M570.73,755.46l.46,1.58c3.64,12.47,12.49,22.73,25.6,29.68,12.57,6.66,28.81,10.18,46.96,10.18,12.21,0,24.98-1.57,37.98-4.67l.59-.14.15-.58,3.12-12.05.27-1.02-1.04-.21-112.46-22.45-1.62-.32h0Z"/>
  </g>
  <g>
    <polygon class="cls-2" points="565.46 810.74 567.88 792.48 676.86 811.04 675.29 823.67 565.46 810.74"/>
    <path class="cls-1" d="M568.31,793.06c36,6.13,71.99,12.26,107.99,18.39-.48,3.89-.97,7.78-1.45,11.66-36.28-4.27-72.55-8.54-108.83-12.81.76-5.75,1.52-11.5,2.29-17.25M567.46,791.9l-.14,1.03-1.12,8.48-1.16,8.77-.13,1.01,1.01.12,108.83,12.81.99.12.12-.99.82-6.63.62-5.03.12-.95-.94-.16-57.53-9.8-50.46-8.59-1.02-.17h0Z"/>
  </g>
</svg>