<?xml version="1.0" encoding="UTF-8"?>
<svg id="_Слой_1" data-name="Слой 1" xmlns="http://www.w3.org/2000/svg" viewBox="0 0 1401.08 1238.17">
  <defs>
    <style>
      .cls-1 {
        fill: #1d1d1b;
      }

      .cls-1, .cls-2 {
        stroke-width: 0px;
      }

      .cls-2 {
        fill: #fff;
      }
    </style>
  </defs>
  <g>
    <path class="cls-2" d="M614.96,1168.78c-3.91,0-7.2-.4-10.04-1.23-16.92-4.93-33.85-10.73-50.23-16.34-6.35-2.18-12.91-4.42-19.38-6.59l-.51-.17,25.17-59.6c-5.62-2.26-11.7-4.67-18.12-7.21-16.51-6.54-35.22-13.95-53.7-21.83-22.23-9.48-28.2-22.43-22.04-47.81,18.31-75.42,36.65-156.31,46.76-236.85,6.12-48.78,7.94-98.87,9.69-147.32,1.03-28.59,2.1-58.16,4.05-87.17,1.19-17.75-1.34-28.98-8.21-36.43-6.72-7.29-18.11-10.95-34.81-11.19-20.34-.29-40.62-3.18-62.09-6.23-9.63-1.37-19.59-2.78-29.85-4-3.13,86.44-3.39,173.07-3.64,256.86-.35,115.93-.72,235.81-8.85,352.85l-.03.43-17.08,1.37-.1-.41c-.88-3.54-1.99-7.13-3.07-10.61-2.35-7.6-4.78-15.46-4.96-23.27-.64-28.18-.76-56.83-.87-84.54-.1-23.2-.19-47.19-.6-70.78-.95-55.37-2.12-111.66-3.25-166.1-1.01-48.82-2.06-99.31-2.95-148.97-.07-3.75-.12-7.49-.17-11.23-.42-29.87-.82-58.09-7.86-83.79-3.62-3.97-8.22-8-12.66-11.91-10.07-8.84-20.48-17.99-20.63-27.28-.55-33.26,13.06-50.16,41.59-51.64l-28.54-68.87.05-.17c1.21-4.29,5.61-8.53,10.26-13.01,6.92-6.67,14.76-14.23,14.18-23.77-.48-7.92-6.6-16.19-18.7-25.29l-.76-.57,40.22-13.3-4.86-21.83,37.1,20.68-7.78,3.65c1.13,4.2,2.06,8.56,2.96,12.77,2.05,9.59,4.18,19.5,8.7,28.06,8.04,15.23,14.87,29.83,10.23,41.03-2.82,6.81-9.59,11.84-20.69,15.36.75,2.62,1.76,5.17,2.73,7.63,2.11,5.32,3.93,9.92,2.42,13.42-4.49,10.44-4.75,19.17-.75,25.25,3.88,5.89,11.85,9.27,21.88,9.27,2.05,0,4.16-.14,6.28-.42,68.31-9.01,145.72-19.23,209.25-73.33-27.33-23.77-39.56-49-37.38-77.1,1.82-23.41,13.39-48.33,36.41-78.42l.27-.35c3.35-4.37,6.81-8.89,8.4-13.81,18.01-55.62,61.3-82.66,132.35-82.66,4.71,0,9.64.12,14.62.36,64.83,3.1,131.04,16.55,189.47,28.41,15.83,3.21,25.6,8.91,29.86,17.4,4.74,9.44,2.91,22.41-5.76,40.79-1.77,3.75-2.38,8.12-2.96,12.34-.59,4.27-1.2,8.68-3.01,12.56-1.9,4.08-5.82,7.34-9.61,10.49-1.66,1.38-3.38,2.81-4.89,4.27l-.49.47-.31-.6c-1.07-2.09-2.56-4.31-3.99-6.46-3.25-4.86-6.61-9.89-5.69-14.16,1.67-7.78,5.65-15.19,10.69-24.56,2.19-4.08,4.65-8.66,7.22-13.83-10.27,4.98-19.94,9.22-29.3,13.33-20.08,8.81-37.43,16.42-51.87,27.54-21.62,16.65-27.09,43.4-16.72,81.77,5.81,21.48,5.4,39.32-15.47,56.57-5.51,4.56-10.64,18.19-7.59,23.09,30.28,48.57,33.72,102.76,37.04,155.18.8,12.64,1.63,25.71,2.82,38.46,3.36,35.85,5.03,72.5,6.65,107.95,2.55,55.8,5.18,113.51,14.46,169.27,19.46,116.96,75.82,206.28,167.5,265.49,15.17,9.8,31.85,18.02,49.52,26.73,8.78,4.33,17.87,8.81,27.38,13.76l1.33.69-1.48.25c-17.94,2.99-35.37,6-52.22,8.91-36.52,6.31-71.02,12.27-105.78,17.16-47.63,6.7-95.39,10.1-141.94,10.1-41.23,0-82.82-2.66-123.61-7.92-6.93-.89-14.13-1.33-22-1.33-18.82,0-38.34,2.57-57.21,5.06-12.45,1.64-25.33,3.34-37.9,4.28-1.28.1-2.58.21-3.89.33-3.51.31-7.14.63-10.67.63ZM647.61,262.17c4.9,4.36,9.6,9.09,14.15,13.67,10.81,10.88,21.03,21.16,33.77,27.01,7.43,3.41,15.01,5.13,22.53,5.13,21.85,0,41.05-14.35,56.95-28.39,4.59-4.05,5.97-11.54,6.8-16.01.21-1.12.38-2.06.56-2.75l-52.48-10.97,10.22-39.06,10.86-9.72c-6.11-2.31-12.27-4.89-18.23-7.38-16.29-6.81-33.13-13.85-50.34-16.09-.1-.01-.2-.02-.3-.02-4.47,0-10.99,11.69-16.74,22.01-2.57,4.62-5.01,8.99-7.24,12.34,6.12,2.1,11.61,3.82,16.47,5.34,11.41,3.57,19.65,6.15,26.84,10.59,2.74,1.69,3.17,9.97,2.61,15.31-.36,3.44-1.06,5.37-2.06,5.72-11.01,3.92-22.7,6.42-37.5,9.59-5.3,1.14-10.78,2.31-16.87,3.68Z"/>
    <path class="cls-1" d="M770.76,84.49c4.83,0,9.71.12,14.6.36,63.52,3.04,126.91,15.71,189.39,28.4,34.37,6.98,38.92,25.31,23.75,57.49-3.59,7.62-2.41,17.26-5.97,24.9-2.68,5.76-9.45,9.81-14.39,14.62-3.49-6.81-10.9-14.38-9.64-20.28,2.44-11.37,9.79-21.81,18.52-39.58-33.06,16.16-61.11,25.04-82.57,41.57-27.1,20.87-24.56,53.94-16.89,82.3,6.38,23.62,4.11,40-15.31,56.05-5.82,4.81-10.82,18.73-7.7,23.74,37.53,60.2,33.66,127.99,39.79,193.42,8.65,92.32,5.94,186.06,21.11,277.26,17.86,107.31,68.72,201.89,167.72,265.83,22.6,14.59,47.93,25.4,76.94,40.51-56.52,9.41-107.07,18.9-157.99,26.06-47.28,6.65-94.51,10.09-141.87,10.09-41.05,0-82.19-2.59-123.55-7.91-7.29-.94-14.65-1.33-22.07-1.33-31.26,0-63.51,6.96-95.15,9.34-4.74.36-9.72.95-14.53.95-3.44,0-6.78-.3-9.9-1.21-23.46-6.83-46.43-15.17-69.59-22.93,7.99-18.93,15.99-37.86,25.15-59.57-20.12-8.09-46.42-18.21-72.29-29.23-21.92-9.34-27.95-21.69-21.75-47.23,19-78.27,36.77-157.26,46.77-236.9,9.74-77.58,8.5-156.36,13.74-234.51,2.1-31.33-7.12-47.63-43.51-48.16-29.64-.43-59.19-6.37-92.42-10.29-7.52,207.25,1.46,409.18-12.52,610.24-5.41.43-10.82.87-16.23,1.3-2.79-11.25-7.75-22.46-8.01-33.77-1.18-51.76-.58-103.55-1.47-155.32-1.8-105.03-4.31-210.04-6.19-315.07-.59-33.08-.09-66.17-8.08-95.26-11.79-12.97-33.02-25.8-33.24-38.94-.36-21.6,4.46-49.58,41.82-51.17-8.97-21.65-17.64-42.58-28.74-69.37,4.24-15.03,49.24-29.75,5.56-62.61,16.13-5.33,26.84-8.87,39.74-13.14-.87-3.9-2.34-10.52-4.71-21.18,14.15,7.89,24.71,13.77,35.27,19.66-2.43,1.14-4.85,2.28-7.28,3.41,3.77,13.86,5.2,28.83,11.81,41.35,12.8,24.25,21.9,45.74-10.63,55.83,2.31,8.44,7.44,16.21,5.3,21.18-10.67,24.8,3.88,35.22,21.59,35.22,2.08,0,4.21-.14,6.34-.43,73.93-9.76,148.21-20.99,209.95-73.82-58.69-50.72-41.26-103.05-1.33-155.22,3.41-4.45,7.08-9.17,8.74-14.31,20.76-64.14,73.59-82.32,131.87-82.32M718.07,308.49c21.6,0,40.57-13.77,57.28-28.51,6.18-5.46,6.65-16.7,7.67-19.52-21.55-4.5-37.02-7.74-52.5-10.97,3.35-12.8,6.7-25.6,10.05-38.4,3.79-3.39,7.57-6.78,11.36-10.17-23.05-8.64-45.6-20.69-69.46-23.79-.12-.02-.24-.02-.37-.02-6.89,0-17.27,24.15-24.76,35.11,20.5,7.06,33.46,9.69,43.83,16.09,3.63,2.24,3.05,19.28.65,20.14-14.99,5.33-31.05,8-55.26,13.46,16.49,14.48,30.12,32.85,48.78,41.41,7.88,3.61,15.46,5.18,22.73,5.18M770.76,83.49c-32.85,0-59.18,5.64-80.49,17.23-25,13.6-42.61,35.74-52.34,65.78-1.57,4.85-5,9.33-8.32,13.67l-.26.34c-23.09,30.17-34.69,55.18-36.51,78.69-2.18,28.12,9.96,53.36,37.11,77.13-63.34,53.67-140.47,63.85-208.55,72.83-2.1.28-4.19.42-6.21.42-9.85,0-17.67-3.3-21.46-9.04-3.91-5.93-3.63-14.5.79-24.78,1.59-3.69-.27-8.38-2.41-13.8-.91-2.3-1.85-4.68-2.58-7.12,10.98-3.56,17.7-8.64,20.54-15.5,4.72-11.4-2.16-26.11-10.25-41.45-4.49-8.5-6.6-18.38-8.65-27.94-.88-4.09-1.78-8.31-2.86-12.39l1.96-.92,4.56-2.14,1.77-.83-1.7-.95-21.59-12.03-13.68-7.62-1.95-1.09.48,2.18,2.68,12.04,1.84,8.26-17.33,5.73-21.55,7.12-1.81.6,1.53,1.15c11.97,9.01,18.03,17.16,18.5,24.92.57,9.31-7.18,16.78-14.02,23.38-4.71,4.54-9.15,8.82-10.4,13.24l-.09.33.13.32,18.59,44.87,9.61,23.2c-28.38,1.73-41.91,18.79-41.36,52.11.16,9.51,10.65,18.73,20.8,27.64,4.4,3.86,8.94,7.86,12.54,11.78,6.99,25.61,7.39,53.75,7.81,83.55.05,3.74.11,7.49.17,11.23.89,49.66,1.93,100.15,2.95,148.97,1.13,54.44,2.29,110.73,3.25,166.1.41,23.59.5,47.58.6,70.77.11,27.72.23,56.37.87,84.55.18,7.88,2.62,15.77,4.98,23.4,1.07,3.47,2.18,7.06,3.06,10.58l.2.82.85-.07,1.67-.13,14.56-1.17.86-.07.06-.86c8.14-117.06,8.5-236.95,8.85-352.89.25-83.61.52-170.05,3.62-256.3,10.06,1.2,19.84,2.59,29.3,3.94,21.48,3.05,41.77,5.94,62.15,6.23,16.56.24,27.83,3.85,34.45,11.03,6.77,7.34,9.26,18.46,8.08,36.06-1.95,29.01-3.02,58.58-4.05,87.18-1.75,48.44-3.57,98.52-9.69,147.28-10.11,80.51-28.44,161.39-46.75,236.79-6.23,25.68-.18,38.79,22.33,48.39,18.5,7.88,37.21,15.3,53.72,21.84,6.24,2.47,12.16,4.82,17.64,7.02l-16.57,39.25-8.19,19.39-.42.99,1.02.34c6.46,2.16,13.02,4.41,19.36,6.59,16.39,5.62,33.33,11.42,50.26,16.36,2.89.84,6.22,1.25,10.18,1.25,3.55,0,7.19-.32,10.72-.63,1.31-.11,2.61-.23,3.89-.32,12.59-.95,25.47-2.64,37.93-4.29,18.86-2.48,38.37-5.05,57.15-5.05,7.86,0,15.03.43,21.94,1.32,40.81,5.26,82.42,7.92,123.68,7.92,46.57,0,94.35-3.4,142.01-10.1,34.76-4.89,69.26-10.85,105.78-17.16,16.86-2.91,34.29-5.92,52.24-8.91l2.95-.49-2.65-1.38c-9.52-4.96-18.6-9.44-27.39-13.77-17.65-8.7-34.33-16.92-49.47-26.7-91.56-59.13-147.84-148.34-167.28-265.15-9.28-55.73-11.91-113.42-14.45-169.21-1.62-35.45-3.29-72.11-6.65-107.97-1.19-12.74-2.02-25.81-2.82-38.44-3.33-52.48-6.77-106.74-37.11-155.41-2.69-4.31,1.79-17.73,7.48-22.44,21.08-17.42,21.49-35.42,15.64-57.09-10.31-38.15-4.9-64.73,16.54-81.25,14.39-11.08,31.71-18.68,51.76-27.48,8.97-3.93,18.21-7.99,28-12.7-2.33,4.63-4.56,8.78-6.56,12.5-5.06,9.41-9.05,16.84-10.74,24.69-.96,4.48,2.46,9.59,5.76,14.54,1.43,2.13,2.9,4.34,3.96,6.41l.62,1.2.97-.94c1.5-1.45,3.2-2.88,4.86-4.25,3.83-3.18,7.79-6.48,9.74-10.66,1.84-3.95,2.46-8.4,3.05-12.7.58-4.18,1.18-8.51,2.92-12.2,8.74-18.53,10.57-31.63,5.76-41.23-4.34-8.64-14.22-14.42-30.21-17.67-58.44-11.87-124.68-25.32-189.54-28.42-5-.24-9.93-.36-14.65-.36h0ZM658.89,211.68c2.14-3.28,4.46-7.45,6.91-11.83,5.4-9.69,12.13-21.76,16.3-21.76.08,0,.16,0,.24.02,17.15,2.23,33.96,9.26,50.21,16.06,5.72,2.39,11.61,4.86,17.48,7.09l-2.56,2.29-7.57,6.78-.22.2-.08.29-6.7,25.6-3.35,12.8-.27,1.02,1.03.22,46.35,9.69,5.1,1.07c-.14.63-.29,1.4-.45,2.28-.81,4.41-2.17,11.79-6.64,15.73-15.83,13.97-34.94,28.26-56.62,28.26-7.45,0-14.96-1.71-22.32-5.09-12.66-5.81-22.85-16.06-33.63-26.91-4.33-4.36-8.8-8.86-13.45-13.05,5.72-1.28,10.9-2.39,15.92-3.47,14.81-3.17,26.51-5.68,37.55-9.6.45-.16,1.8-.64,2.39-6.14.54-5.09.25-13.88-2.84-15.79-7.25-4.47-15.51-7.06-26.96-10.64-4.69-1.47-9.97-3.12-15.85-5.12h0Z"/>
  </g>
  <g>
    <path class="cls-2" d="M359.43,201.21c-10.82,0-20.81-.33-30.53-1.02-1.62-.11-3.36-2.26-4.54-4.03-2.97-4.5-6.3-13.01-4.82-17.29,9.69-28.11,20.63-56.01,31.21-82.99,3.44-8.78,6.86-17.5,10.21-26.15l.45-1.17.48,1.16c3.72,9.01,7.45,17.99,11.17,26.96,11.38,27.38,23.15,55.7,33.87,83.74,1.78,4.64-1.09,14.52-3.26,17.89-.6.93-1.15,1.4-1.69,1.43-15.84,1-29.75,1.48-42.55,1.48Z"/>
    <path class="cls-1" d="M361.42,69.89c15.29,37.1,30.88,73.65,45.04,110.68,2.03,5.3-2.41,18.51-4.52,18.65-14.13.89-28.34,1.48-42.52,1.48-10.19,0-20.37-.31-30.5-1.02-3.74-.27-10.89-14.96-8.92-20.66,12.82-37.19,27.73-73.74,41.42-109.13M361.39,67.2l-.9,2.33c-3.35,8.65-6.84,17.55-10.21,26.15-10.58,26.99-21.52,54.89-31.22,83.01-1.6,4.64,1.97,13.32,4.88,17.73,1.8,2.72,3.45,4.15,4.92,4.26,9.74.69,19.74,1.03,30.57,1.03,12.81,0,26.74-.49,42.58-1.48.72-.05,1.38-.57,2.08-1.66,2.22-3.45,5.14-13.56,3.31-18.34-10.73-28.05-22.5-56.36-33.88-83.75-3.67-8.82-7.46-17.94-11.17-26.96l-.95-2.31h0Z"/>
  </g>
</svg>