<?xml version="1.0" encoding="UTF-8"?>
<svg id="_Слой_1" data-name="Слой 1" xmlns="http://www.w3.org/2000/svg" viewBox="0 0 1401.08 1238.17">
  <defs>
    <style>
      .cls-1 {
        fill: #1d1d1b;
      }

      .cls-1, .cls-2 {
        stroke-width: 0px;
      }

      .cls-2 {
        fill: #fff;
      }
    </style>
  </defs>
  <path class="cls-2" d="M1096.94,1047.55l-.07-.02c-27.76-8.02-50.41-19.31-69.23-34.49-20.96-16.91-36.68-38.2-48.05-65.08-2.01-4.75-12.31-7.82-18.51-7.83-79.8-.23-149.96-.34-214.48-.34-89.25,0-170.15.21-247.33.65-7.22.04-17.92,7.17-22.03,14.66-29.61,54.07-79.84,86.35-134.38,86.35-25.64,0-50.96-7.3-73.2-21.11-23.81-14.78-43.34-36.15-58.06-63.49-6.92-12.86-13.99-17.42-27-17.42-.1,0-.2,0-.31,0-.01.56-.32.56-9.83.56q-4.66,0-4.67-.57c0-.36.08-.49.74-.55v-138.66h1.43c.28-.19,1.22-.19,4.34-.19,8.63,0,9.05,0,9.07.52.45,0,.9.01,1.34.01,13.15,0,20.42-4.51,27.77-17.22,28.76-49.75,77.25-79.45,129.72-79.45,45.83,0,88.27,23.14,116.44,63.5,16.69,23.91,32.67,33.67,55.15,33.67,3.52,0,7.33-.25,11.32-.74,3.52-.43,6.37-.64,8.97-.64,2.76,0,5.21.23,7.48.69,5.33,1.09,10.64,1.65,15.77,1.65,31.52,0,54.9-20.36,79.65-41.91,3.74-3.26,7.61-6.63,11.49-9.91-3.2-2.64-6.23-5.15-9.15-7.57-6.17-5.11-12-9.94-17.8-14.62-36.54-29.44-65.27-52.25-90.62-72.37-44.63-35.42-83.17-66.02-146.14-118.31-11.9-9.88-21.56-14.1-32.29-14.1-5.9,0-12.35,1.24-20.32,3.9-14.25,4.76-29.04,7.17-43.96,7.18-44.79,0-88.86-21.67-120.92-59.45-37.84-44.59-53.68-105.67-43.47-167.57,8.26-50.08,36.57-86.99,63.17-116.48l.15-.17h5.07l258.15,219.25-20.65,43.62,48.51,39.02c50.19,40.37,101.24,81.43,143.37,115.29,21.54,17.31,30.39,23.95,38.2,29.81,9.38,7.04,16.79,12.6,43.2,34.61,7.26,6.05,12.58,8.64,17.8,8.64,5.1,0,10.45-2.5,17.34-8.1,52.54-42.72,106.23-74.94,158.15-106.09,52.4-31.44,106.58-63.96,159.5-107.24,7.52-6.15,12.32-16.81,17.4-28.1,2.58-5.74,5.26-11.68,8.47-17.53l.14-.26h76.41l.02.48c.13,3.28.29,6.46.44,9.57.32,6.54.63,12.73.66,18.95.16,29.7.34,55.5.51,79.74.39,55.71.72,103.82.67,172.45-.01,14.62,3.7,21.44,16.54,30.38,15.44,10.75,29.55,24.37,43.19,37.54,7.93,7.65,16.13,15.56,24.51,22.84,6.71,5.82,16.68,13.61,25.83,14.02,9.48.43,13.09.67,14.46.79,1.49-.06,5.39-.12,15.13-.12h.5v139.58h-.5c-2.82,0-5.06,0-6.8.02-.15.23-.57.23-1.58.23-3.63,0-4.32-.04-4.46-.35-1.93-.08-4.33-.16-7.17-.26-.71-.02-1.39-.04-2.07-.04-13.08,0-19.84,4.75-25.82,18.15-19.86,44.45-54.94,73.05-110.4,89.99l-.07.02h-46.83ZM1119.29,824.7c-12.39.06-24.28,5.2-33.46,14.49-10.29,10.41-16.14,25.08-16.05,40.24.19,29.87,22.61,54.17,49.97,54.17,12.49,0,24.55-5.3,34-14.9,10.38-10.54,16.2-25,15.98-39.67-.44-29.46-23.45-54.34-50.24-54.34h-.21ZM343.32,817.45c-26.45,0-48.84,25.24-48.9,55.12-.03,15.79,6.07,30.97,16.73,41.66,8.95,8.97,20.31,13.92,31.98,13.93h0c11.82,0,23.41-5.12,32.67-14.42,10.72-10.76,16.83-25.62,16.76-40.75-.13-29.99-22.61-55.42-49.08-55.52h-.17ZM787.75,750.46c7.28,4.77,13.99,9.99,20.48,15.05,13.87,10.8,25.85,20.13,38.87,21.81,17.08,2.2,35.48,3.22,57.92,3.22h0c15.52,0,31.34-.49,46.63-.97,7.71-.24,15.68-.49,23.5-.67,7.37-.17,15.41-5.74,23-11.73,26.1-20.6,47.05-38.01,65.92-54.82,6.29-5.6,12.73-14.49,12.9-21.7.83-33.69.64-67.98.45-101.14-.07-11.58-.13-23.16-.15-34.73-.02-8.05-.01-16.11,0-25.75v-15.31s-289.52,226.75-289.52,226.75Z"/>
  <path class="cls-1" d="M194.03,191.13c85.37,72.51,170.75,145.02,257.71,218.88-6.77,14.3-13.42,28.34-20.65,43.63,64.52,51.89,136.22,109.58,192.19,154.56,48.29,38.82,33.73,24.68,81.39,64.42,6.88,5.73,12.42,8.75,18.12,8.75,5.34,0,10.82-2.65,17.65-8.21,105.58-85.84,212.3-127.17,317.65-213.34,11.37-9.3,16.3-28.13,25.99-45.77h75.63c.41,10.13,1.05,19.32,1.11,28.51.54,98.34,1.26,153.86,1.18,252.19-.01,15.28,4.2,22.05,16.75,30.79,24.36,16.96,44.84,40.53,67.66,60.34,7.54,6.55,17.2,13.74,26.14,14.15,8.91.4,12.89.65,14.44.79-2.1.07-.69.16.23.16.65,0,1.06-.04-.23-.16,1.77-.06,6.03-.12,15.17-.12v138.58c-4.68,0-7.73.02-9.64.04-1.92-.09-5.18-.22-10.36-.39-.71-.02-1.41-.04-2.08-.04-12.76,0-19.98,4.35-26.28,18.45-22.43,50.2-62.91,75.3-110.09,89.72h-46.68c-51.72-14.95-93.45-43.69-116.96-99.29-2.11-4.98-12.44-8.12-18.97-8.14-71.49-.21-142.99-.34-214.48-.34-82.45,0-164.89.18-247.33.65-7.67.04-18.39,7.48-22.46,14.92-31.35,57.26-82.8,86.09-133.94,86.09s-100.5-27.98-130.82-84.34c-7.24-13.46-14.61-17.69-27.44-17.69-.52,0-1.05,0-1.6.02-5.83.15-9.28.26-11.09.34-.29,0-.58,0-.89,0v-138.58c1.06,0,2.05,0,2.96,0,1.83.08,5.33.18,11.22.33.51.01,1.01.02,1.51.02,12.91,0,20.58-4.29,28.2-17.47,30.14-52.13,79.81-79.2,129.28-79.2,43.21,0,86.27,20.64,116.03,63.28,16.91,24.23,33.25,33.88,55.56,33.88,3.63,0,7.41-.26,11.38-.74,2.92-.36,5.93-.63,8.91-.63,2.5,0,4.98.19,7.38.68,5.52,1.13,10.8,1.66,15.87,1.66,36.78,0,62.67-27.67,91.92-52.33-10.26-8.45-18.77-15.61-27.41-22.57-100.2-80.73-137.63-108.37-236.75-190.67-11.78-9.78-21.47-14.21-32.61-14.21-6.18,0-12.8,1.36-20.48,3.93-14.52,4.85-29.25,7.15-43.81,7.15-95.92,0-184.81-99.74-163.9-226.44,7.82-47.4,33.28-83.22,63.05-116.23h4.67M1077.78,522.68c-97.89,76.66-190.69,149.34-290.89,227.81,22.96,14.91,40.62,34.8,60.14,37.31,19.17,2.47,38.54,3.23,57.98,3.23,23.36,0,46.82-1.1,70.16-1.64,7.88-.18,16.4-6.39,23.3-11.84,22.39-17.67,44.54-35.78,65.95-54.84,6.02-5.36,12.88-14.48,13.07-22.06,1.12-45.27.39-90.59.3-135.89-.03-12.19,0-24.37,0-42.09M343.16,928.65c26.73,0,50.04-26,49.92-55.68-.13-30.43-22.68-55.91-49.58-56.02-.06,0-.12,0-.17,0-26.9,0-49.34,25.24-49.4,55.61-.06,30.53,22.35,56.07,49.21,56.09h.02M1119.76,934.11h.03c27.47-.02,50.89-25.59,50.44-55.08-.45-29.91-23.53-54.83-50.74-54.83-.07,0-.14,0-.21,0-27.62.13-50.2,25.06-50,55.24.19,30.19,22.8,54.67,50.47,54.67M176.31,800.49c6.44,0,16.64.18-2.31.19-3.4-.15-1.06-.19,2.31-.19M171.92,939.27c20.69,0,9.49.2,2.56.2-3.52,0-5.94-.05-2.56-.2M1292.51,939.31c3.28.16,2.7.21,1.26.21-2.34,0-6.97-.14-1.26-.21M194.39,190.13h-5.48l-.3.33c-26.65,29.55-55.01,66.52-63.3,116.73-5.32,32.23-3.81,63.73,4.48,93.62,7.62,27.48,21.15,53.2,39.1,74.36,32.15,37.89,76.37,59.63,121.31,59.63,14.97,0,29.82-2.42,44.12-7.2,7.91-2.64,14.32-3.87,20.16-3.87,10.61,0,20.17,4.18,31.97,13.98,62.98,52.29,101.52,82.89,146.14,118.31,25.35,20.12,54.08,42.93,90.62,72.37,5.79,4.67,11.61,9.49,17.77,14.6,2.78,2.31,5.67,4.7,8.71,7.2-3.73,3.16-7.44,6.39-11.04,9.52-24.68,21.49-47.99,41.79-79.32,41.79-5.1,0-10.37-.55-15.67-1.64-2.31-.47-4.79-.7-7.58-.7-2.62,0-5.49.2-9.03.64-3.97.49-7.75.74-11.26.74-22.29,0-38.15-9.69-54.74-33.45-14.53-20.81-32.47-36.94-53.33-47.94-19.55-10.32-41.52-15.77-63.53-15.77-52.64,0-101.3,29.79-130.15,79.7-7.24,12.53-14.4,16.97-27.34,16.97-.33,0-.66,0-.99,0-.29-.43-.95-.44-1.65-.46-.52-.01-1.25-.03-2.1-.04-1.78-.02-3.91-.04-5.68-.04-1.11,0-2.11,0-2.83.02-.68.01-1.23.02-1.61.18h-1.83v138.75c-.53.13-.75.4-.74.97.02,1,.84,1.02,2.2,1.04.76.01,1.81.02,2.98.02,1.9,0,4.21-.01,6.16-.04.92-.01,1.72-.03,2.29-.04.77-.02,1.45-.04,1.74-.49,12.76.01,19.7,4.51,26.51,17.16,14.76,27.43,34.35,48.85,58.23,63.68,22.32,13.86,47.73,21.19,73.47,21.19s51.99-7.51,74.92-21.72c24.14-14.96,44.85-37.4,59.9-64.89,4.03-7.36,14.53-14.36,21.59-14.4,77.18-.44,158.08-.65,247.32-.65,64.49,0,134.64.11,214.47.34,6.07.02,16.12,2.96,18.05,7.53,11.4,26.96,27.17,48.31,48.2,65.28,18.88,15.23,41.58,26.54,69.41,34.58l.14.04h46.97l.14-.04c26.05-7.96,47.19-18.29,64.64-31.6,20.27-15.46,35.34-34.65,46.07-58.67,5.89-13.18,12.53-17.86,25.37-17.86.66,0,1.35.01,2.05.04,2.75.09,5.07.17,6.96.25.36.27,1.05.29,2.09.32.82.02,1.84.04,2.59.04s1.41,0,1.78-.23c1.81,0,4.02-.01,6.6-.01h1v-140.58h-1c-9.62,0-13.55.06-15.15.12-1.41-.12-5.07-.36-14.42-.78-9-.41-18.88-8.13-25.53-13.9-8.37-7.27-16.56-15.17-24.49-22.82-13.66-13.18-27.78-26.81-43.25-37.59-12.68-8.83-16.34-15.55-16.33-29.97.06-68.62-.28-116.71-.67-172.4-.17-24.62-.35-50.08-.51-79.8-.03-6.24-.34-12.42-.66-18.98-.15-3.09-.31-6.29-.44-9.57l-.04-.96h-77.19l-.28.52c-3.22,5.86-5.9,11.81-8.49,17.56-5.05,11.23-9.83,21.84-17.26,27.91-52.89,43.26-107.06,75.77-159.44,107.2-51.93,31.17-105.63,63.39-158.21,106.13-6.79,5.52-12.04,7.98-17.02,7.98s-10.32-2.55-17.48-8.52c-26.42-22.02-33.83-27.58-43.22-34.63-7.8-5.86-16.65-12.49-38.19-29.8-41.92-33.69-93.11-74.87-142.62-114.68l-48.96-39.38,20.31-42.92.33-.69-.58-.5L194.67,190.37l-.28-.24h0ZM788.6,750.42l121.59-95.22,166.59-130.46c0,5.22,0,9.95,0,14.35,0,9.62,0,17.65,0,25.69.02,11.57.09,23.33.15,34.7.19,33.17.38,67.47-.45,101.16-.17,7.06-6.52,15.81-12.74,21.34-18.86,16.79-39.8,34.21-65.9,54.8-7.52,5.94-15.48,11.45-22.7,11.62-7.83.18-15.8.43-23.51.67-15.29.48-31.11.97-46.62.97-22.41,0-40.8-1.02-57.85-3.22-12.88-1.66-24.81-10.95-38.62-21.71-6.32-4.92-12.85-10.01-19.93-14.69h0ZM343.13,928.65v-1c-11.54,0-22.77-4.9-31.63-13.78-10.57-10.6-16.61-25.65-16.58-41.3.06-29.61,22.22-54.62,48.4-54.62h.17c26.2.11,48.45,25.3,48.58,55.03.07,15-5.99,29.73-16.61,40.4-9.17,9.21-20.64,14.28-32.3,14.28l-.02,1h0ZM1119.76,934.11v-1c-27.09,0-49.28-24.08-49.47-53.68-.1-15.03,5.7-29.57,15.9-39.89,9.09-9.19,20.85-14.29,33.11-14.34h.2c26.52,0,49.3,24.66,49.74,53.85.22,14.54-5.55,28.87-15.84,39.31-9.35,9.5-21.29,14.74-33.61,14.75l-.03,1h0Z"/>
</svg>