<?xml version="1.0" encoding="UTF-8"?>
<svg id="_Слой_1" data-name="Слой 1" xmlns="http://www.w3.org/2000/svg" viewBox="0 0 595.28 527.24">
  <defs>
    <style>
      .cls-1 {
        fill: #1d1d1b;
      }

      .cls-1, .cls-2 {
        stroke-width: 0px;
      }

      .cls-2 {
        fill: #fff;
      }
    </style>
  </defs>
  <path class="cls-2" d="M461.96,444.76l-.06-.02c-22.81-5.99-38-17.72-46.44-35.85-.67-1.45-4.39-2.62-7.03-2.63-31.46-.08-59.11-.12-84.54-.12-35.19,0-67.08.08-97.51.23-2.76.01-6.86,2.5-8.43,5.11-11.73,19.47-31.63,31.09-53.23,31.1-21.27,0-40.71-11.39-52-30.47-2.7-4.56-5.32-6.09-10.39-6.09-.2,0-.41,0-.62,0-5.78.13-12.08.19-19.82.19-4.31,0-8.62-.02-12.93-.04-4.31-.02-8.63-.04-12.94-.04h-.5v-50.66h.5c4.55,0,9.05-.02,13.51-.04,4.39-.02,8.74-.03,13.06-.03,7.82,0,14.17.06,19.98.19.2,0,.39,0,.58,0,5.07,0,7.87-1.58,10.7-6.03,11.4-17.92,30.61-28.61,51.39-28.61,18.16,0,34.98,8.34,46.14,22.87,6.52,8.49,12.75,11.95,21.51,11.95,1.4,0,2.85-.09,4.43-.26,1.4-.16,2.53-.23,3.57-.23,1.11,0,2.09.08,3,.25,2.09.39,4.16.59,6.17.59,12.33,0,21.5-7.26,31.22-14.96,1.39-1.1,2.78-2.2,4.19-3.29-1.14-.85-2.22-1.67-3.27-2.46-2.46-1.85-4.72-3.56-7-5.23-10.36-7.58-20.73-15.15-31.1-22.71-28.71-20.93-58.39-42.58-87.22-64.34-4.64-3.5-8.39-4.99-12.55-4.99-2.3,0-4.81.44-7.93,1.39-5.65,1.71-11.51,2.58-17.42,2.58-18.88,0-37.73-9.07-50.42-24.27-13.31-15.94-18.52-36.35-14.69-57.47,3.27-18.04,14.47-31.31,25-41.91l.15-.15h2.22l102.07,78.8-8.14,15.63,21.93,16.03c17.89,13.08,35.69,26.1,53.5,39.1,5.68,4.15,11.38,8.27,17.07,12.4,13.18,9.54,26.81,19.41,40,29.41,2.81,2.13,4.85,3.03,6.84,3.04,1.95,0,4-.88,6.66-2.84,18.96-14.01,38.32-28.13,57.06-41.78,22.4-16.32,45.56-33.2,68.17-50.02,2.91-2.16,4.69-5.77,6.76-9.96,1.02-2.06,2.08-4.2,3.35-6.31l.15-.24h30.58l.02.48c.05,1.17.11,2.31.17,3.42.13,2.35.25,4.57.26,6.81l.12,19.1c.18,28.39.37,57.75.35,86.63,0,5.1,1.42,7.48,6.37,10.61,6.1,3.86,11.68,8.75,17.07,13.48,3.12,2.74,6.35,5.57,9.65,8.17,2.61,2.06,6.49,4.82,10.02,4.96,5.65.23,11.63.34,19.38.34,3.8,0,7.61-.02,11.46-.05,3.9-.02,7.84-.05,11.81-.05h.5v50.66h-.5c-3.67,0-7.36.02-11.07.04-3.74.02-7.49.04-11.26.04-6.44,0-11.71-.07-16.56-.22-.28,0-.54-.01-.81-.01-5.02,0-7.61,1.66-9.91,6.33-7.87,16.02-21.76,26.32-43.72,32.41l-.07.02h-18.54ZM470.81,364.9c-5.16.02-10.01,2.07-13.67,5.76-3.61,3.66-5.58,8.46-5.55,13.53.07,10.53,8.78,19.1,19.4,19.1,5.14,0,10.2-2.17,13.91-5.94,3.62-3.69,5.57-8.41,5.49-13.29-.17-10.39-9.1-19.16-19.5-19.16v-.5l-.08.5ZM164.89,362.3c-10.26,0-18.95,8.9-18.98,19.43-.01,5.21,2.11,10.32,5.81,14.03,3.58,3.59,8.23,5.56,13.09,5.56h0c4.87,0,9.74-2.1,13.4-5.77,3.7-3.72,5.81-8.71,5.79-13.68-.05-10.58-8.77-19.54-19.05-19.58l-.07-.5v.5ZM340.67,337.95c2.72,1.65,5.23,3.42,7.67,5.15,5.44,3.85,10.13,7.17,15.19,7.76,6.72.79,13.97,1.15,22.8,1.15,6.11,0,12.35-.18,18.38-.35,3.09-.09,6.19-.17,9.27-.24,2.83-.06,5.95-2.03,8.9-4.15,10.29-7.38,18.54-13.62,25.98-19.63,2.35-1.9,4.9-5.07,4.97-7.53.33-12.08.25-24.37.18-36.27-.03-4.14-.05-8.28-.06-12.42,0-2.89,0-5.77,0-9.23v-4.89s-113.26,80.63-113.26,80.63Z"/>
  <path class="cls-1" d="M81.05,118.81c33.66,25.98,67.31,51.97,101.6,78.44-2.67,5.12-5.29,10.16-8.14,15.64,25.44,18.6,50.59,37.01,75.77,55.39,19.04,13.91,38.27,27.56,57.06,41.8,2.71,2.05,4.9,3.14,7.14,3.14,2.11,0,4.26-.95,6.96-2.94,41.62-30.76,83.7-60.92,125.23-91.8,4.48-3.33,6.43-10.08,10.25-16.4h29.82c.16,3.63.42,6.92.44,10.22.21,35.24.5,70.48.47,105.72,0,5.47,1.66,7.9,6.61,11.03,9.6,6.08,17.68,14.53,26.67,21.62,2.97,2.35,6.78,4.92,10.3,5.07,6.44.27,12.89.34,19.4.34,7.65,0,15.38-.1,23.26-.1v49.66c-7.37,0-14.83.09-22.32.09-5.51,0-11.04-.05-16.56-.22-.28,0-.55-.01-.82-.01-5.03,0-7.88,1.56-10.36,6.61-8.84,17.99-24.8,26.99-43.4,32.15h-18.4c-20.39-5.36-36.84-15.66-46.11-35.58-.83-1.79-4.91-2.91-7.48-2.92-28.19-.07-56.38-.12-84.57-.12-32.5,0-65,.07-97.5.23-3.02.02-7.25,2.68-8.86,5.35-12.36,20.52-32.64,30.85-52.81,30.85s-39.62-10.03-51.57-30.23c-2.86-4.82-5.76-6.34-10.82-6.34-.21,0-.42,0-.63,0-6.6.15-13.2.19-19.81.19-8.62,0-17.24-.07-25.87-.07v-49.66c9.03,0,17.85-.07,26.57-.07,6.7,0,13.34.04,19.98.19.2,0,.4,0,.59,0,5.09,0,8.11-1.54,11.12-6.26,11.88-18.68,31.47-28.38,50.97-28.38,17.04,0,34.01,7.4,45.74,22.68,6.67,8.68,13.11,12.14,21.9,12.14,1.43,0,2.92-.09,4.49-.27,1.15-.13,2.34-.23,3.51-.23.99,0,1.96.07,2.91.25,2.18.41,4.26.59,6.26.59,14.5,0,24.71-9.92,36.24-18.75-4.04-3.03-7.4-5.59-10.81-8.09-39.5-28.93-79.24-57.55-118.32-87.05-4.64-3.51-8.46-5.09-12.86-5.09-2.44,0-5.05.49-8.07,1.41-5.73,1.74-11.53,2.56-17.27,2.56-37.82,0-72.86-35.74-64.62-81.15,3.08-16.99,13.12-29.82,24.86-41.65h1.84M454.44,256.35c-38.59,27.47-75.18,53.52-114.68,81.64,9.05,5.34,16.02,12.47,23.71,13.37,7.56.88,15.2,1.16,22.86,1.16,9.21,0,18.46-.39,27.66-.59,3.11-.07,6.46-2.29,9.19-4.24,8.83-6.33,17.56-12.82,26-19.65,2.37-1.92,5.08-5.19,5.15-7.91.44-16.22.15-32.46.12-48.7-.01-4.37,0-8.73,0-15.08M164.82,401.83c10.54,0,19.73-9.32,19.68-19.95-.05-10.91-8.94-20.04-19.55-20.08-.02,0-.05,0-.07,0-10.61,0-19.45,9.04-19.48,19.93-.02,10.94,8.81,20.09,19.4,20.1h0M470.99,403.79h.01c10.83,0,20.06-9.17,19.89-19.74-.18-10.72-9.28-19.65-20-19.65-.03,0-.05,0-.08,0-10.89.05-19.79,8.98-19.71,19.79.08,10.82,8.99,19.59,19.9,19.59M81.39,117.81h-2.6l-.29.3c-10.58,10.66-21.83,24.01-25.13,42.18-3.86,21.27,1.39,41.82,14.79,57.88,12.78,15.31,31.77,24.45,50.81,24.45,5.96,0,11.87-.88,17.56-2.61,3.06-.93,5.54-1.36,7.78-1.36,4.05,0,7.71,1.46,12.25,4.89,28.84,21.77,58.52,43.41,87.23,64.35,10.2,7.44,20.74,15.13,31.1,22.71,2.28,1.67,4.58,3.4,7,5.23.88.67,1.8,1.35,2.74,2.06-1.24.96-2.48,1.94-3.68,2.89-9.65,7.64-18.76,14.85-30.91,14.85-1.98,0-4.02-.19-6.07-.58-.95-.18-1.96-.26-3.09-.26-1.05,0-2.21.07-3.62.23-1.54.17-3.01.26-4.37.26-8.58,0-14.7-3.4-21.11-11.75-11.26-14.66-28.22-23.07-46.54-23.07-20.96,0-40.32,10.78-51.81,28.85-2.76,4.33-5.35,5.8-10.27,5.8-.19,0-.38,0-.57,0-5.82-.13-12.17-.19-20-.19-4.33,0-8.68.02-13.06.03-4.46.02-8.96.04-13.51.04h-1v51.66h1c4.32,0,8.63.02,12.94.04,4.31.02,8.62.04,12.93.04,7.75,0,14.05-.06,19.83-.19.21,0,.41,0,.61,0,4.86,0,7.37,1.48,9.96,5.85,11.38,19.23,30.99,30.72,52.43,30.72s41.84-11.71,53.66-31.34c1.47-2.44,5.44-4.85,8-4.86,30.42-.16,62.31-.23,97.49-.23,25.43,0,53.09.04,84.56.12,2.67,0,6.05,1.21,6.57,2.34,8.51,18.28,23.8,30.1,46.76,36.13l.12.03h18.67l.13-.04c22.1-6.14,36.09-16.52,44.03-32.67,2.22-4.53,4.61-6.05,9.46-6.05.26,0,.52,0,.79.01,4.86.15,10.14.22,16.59.22,3.76,0,7.57-.02,11.25-.04,3.7-.02,7.39-.04,11.06-.04h1v-51.66h-1c-3.97,0-7.96.03-11.81.05-3.76.02-7.66.05-11.45.05-7.74,0-13.71-.1-19.36-.34-3.38-.14-7.17-2.84-9.73-4.86-3.29-2.59-6.51-5.42-9.63-8.16-5.4-4.74-10.99-9.64-17.13-13.53-4.82-3.05-6.14-5.24-6.14-10.19.03-28.88-.16-58.24-.35-86.63-.04-6.37-.08-12.73-.12-19.1-.01-2.25-.13-4.48-.26-6.84-.06-1.11-.12-2.25-.17-3.42l-.04-.96h-31.34l-.29.48c-1.28,2.13-2.35,4.27-3.37,6.34-2.04,4.12-3.8,7.69-6.61,9.77-22.62,16.82-45.79,33.71-68.2,50.04-18.72,13.65-38.08,27.75-57.03,41.76-2.57,1.9-4.53,2.75-6.36,2.75s-3.83-.88-6.54-2.93c-13.19-10-26.82-19.87-40.01-29.42-5.6-4.06-11.39-8.25-17.07-12.4-17.53-12.8-35.05-25.62-52.67-38.5l-22.41-16.38,7.75-14.87.39-.74-.66-.51-43.96-33.94-57.64-44.5-.27-.21h0ZM341.58,337.92l11.07-7.88,100.78-71.75v3.93c0,3.45,0,6.34,0,9.22,0,4.15.04,8.29.06,12.44.07,11.88.15,24.16-.18,36.23-.06,2.31-2.52,5.33-4.78,7.16-7.43,6.01-15.67,12.24-25.95,19.62-2.89,2.07-5.93,4-8.62,4.05-3.09.07-6.23.15-9.27.24-6.03.17-12.26.35-18.36.35-8.81,0-16.04-.37-22.74-1.15-4.93-.58-9.58-3.87-14.96-7.67-2.25-1.59-4.56-3.23-7.05-4.77h0ZM164.81,401.83v-1c-4.73,0-9.26-1.93-12.74-5.42-3.61-3.62-5.67-8.61-5.66-13.68.02-10.26,8.48-18.93,18.48-18.93h.06c10,.04,18.5,8.77,18.55,19.08.02,4.84-2.03,9.7-5.64,13.32-3.56,3.58-8.31,5.63-13.03,5.63v1h0ZM470.99,403.79v-1c-10.35,0-18.82-8.34-18.9-18.6-.03-4.94,1.88-9.61,5.4-13.17,3.56-3.6,8.29-5.59,13.31-5.61h.08c10.13,0,18.84,8.55,19,18.67.08,4.75-1.82,9.34-5.35,12.93-3.61,3.68-8.55,5.79-13.54,5.79v1h-.01Z"/>
</svg>